{"glyphs":{"0":{"ha":940,"x_min":119,"x_max":965,"o":"m 681 1113 q 813 1088 758 1113 q 901 1018 867 1063 q 950 913 935 974 q 965 782 965 853 q 949 614 965 704 q 902 434 933 524 q 824 263 871 344 q 715 117 778 181 q 575 17 653 54 q 404 -21 497 -21 q 271 6 325 -21 q 183 78 217 32 q 134 187 149 125 q 119 319 119 249 q 135 487 119 397 q 181 665 150 576 q 260 834 213 753 q 369 977 307 915 q 510 1076 432 1039 q 681 1113 588 1113 m 653 1000 q 531 963 586 1000 q 432 867 475 926 q 358 732 389 807 q 306 580 326 657 q 275 431 285 503 q 265 308 265 360 q 272 227 265 267 q 298 157 279 188 q 349 108 317 126 q 431 90 381 90 q 552 128 497 90 q 650 226 607 165 q 724 363 693 286 q 776 517 756 439 q 807 666 797 594 q 817 789 817 738 q 809 869 817 831 q 783 936 801 907 q 733 983 764 965 q 653 1000 701 1000 z "},"1":{"ha":940,"x_min":56,"x_max":806,"o":"m 283 861 q 424 865 365 861 q 525 890 483 868 q 594 958 567 911 q 642 1092 621 1006 l 775 1092 l 532 117 l 806 117 l 778 0 l 56 0 l 85 117 l 383 117 l 553 794 q 454 760 506 769 q 350 750 403 750 l 256 750 l 283 861 l 283 861 z "},"2":{"ha":940,"x_min":38,"x_max":1015,"o":"m 283 1017 q 472 1092 371 1072 q 675 1113 574 1113 q 794 1104 733 1113 q 904 1072 856 1096 q 984 1003 953 1049 q 1015 886 1015 958 q 978 715 1015 796 q 879 560 940 633 q 739 424 818 488 q 576 304 660 360 q 411 201 493 249 q 263 117 329 154 l 853 117 l 824 0 l 38 0 l 65 113 q 204 189 122 144 q 374 290 286 233 q 550 410 463 346 q 707 547 638 475 q 819 695 776 618 q 863 853 863 772 q 843 926 863 899 q 792 970 824 954 q 724 991 761 986 q 649 996 686 996 q 523 985 583 996 q 404 947 463 975 l 369 808 l 231 808 l 283 1017 z "},"3":{"ha":940,"x_min":79,"x_max":1017,"o":"m 283 1018 q 470 1091 372 1069 q 671 1113 568 1113 q 787 1106 726 1113 q 899 1077 847 1099 q 983 1013 950 1056 q 1017 900 1017 971 q 956 701 1017 788 q 790 575 896 614 q 913 407 913 531 q 909 363 913 385 q 900 319 906 342 q 829 158 875 224 q 719 53 783 93 q 574 -3 654 14 q 400 -21 493 -21 q 288 -14 344 -21 q 184 15 231 -7 q 108 78 138 38 q 79 189 79 119 q 86 257 79 224 q 101 322 93 290 l 240 322 q 230 275 235 299 q 225 226 225 251 q 244 157 225 182 q 294 118 264 132 q 362 101 325 104 q 433 97 399 97 q 562 115 501 97 q 667 169 622 133 q 738 262 713 206 q 764 393 764 318 q 743 456 764 432 q 689 494 722 481 q 615 511 656 507 q 532 515 574 515 q 453 513 490 515 q 393 511 417 511 l 421 622 q 553 620 485 622 q 683 631 622 618 q 791 682 744 644 q 857 799 838 719 q 864 831 861 814 q 867 864 867 847 q 845 935 867 908 q 791 974 824 961 q 720 992 758 988 q 647 996 682 996 q 524 985 585 996 q 404 947 463 975 l 369 808 l 231 808 l 283 1018 z "},"4":{"ha":940,"x_min":56,"x_max":1001,"o":"m 1001 1092 l 828 394 l 942 394 l 913 278 l 799 278 l 731 0 l 588 0 l 657 278 l 56 278 l 85 397 l 872 1092 l 1001 1092 m 686 394 l 814 911 l 226 394 l 686 394 z "},"5":{"ha":940,"x_min":78,"x_max":1051,"o":"m 1051 1092 l 1024 975 l 506 975 l 389 713 q 643 769 510 769 q 758 758 706 769 q 850 720 811 747 q 911 648 889 693 q 933 533 933 603 q 928 458 933 496 q 913 383 922 419 q 734 76 860 172 q 393 -21 608 -21 q 281 -14 338 -21 q 180 16 225 -7 q 106 80 135 39 q 78 190 78 121 q 84 257 78 224 q 99 322 90 290 l 236 322 q 226 278 232 300 q 221 232 221 256 q 240 163 221 189 q 288 122 258 136 q 354 102 318 107 q 425 97 390 97 q 556 115 500 97 q 652 169 611 133 q 720 259 693 206 q 765 383 747 313 q 777 442 772 413 q 782 501 782 471 q 767 578 782 549 q 725 624 751 607 q 663 646 699 640 q 586 651 626 651 q 433 626 503 651 q 296 550 363 601 l 190 574 l 414 1092 l 1051 1092 z "},"6":{"ha":940,"x_min":107,"x_max":1056,"o":"m 901 951 q 861 973 886 964 q 808 987 836 982 q 753 994 781 992 q 708 996 726 996 q 561 967 622 996 q 456 888 500 938 q 381 774 411 839 q 328 635 350 708 q 485 692 403 672 q 650 713 567 713 q 758 702 707 713 q 848 667 810 692 q 909 599 886 642 q 932 492 932 557 q 927 426 932 458 q 914 361 922 393 q 737 70 863 161 q 410 -21 611 -21 q 283 -9 339 -21 q 188 32 226 3 q 128 111 149 61 q 107 239 107 161 q 119 379 107 310 q 150 517 132 449 q 223 747 181 639 q 332 937 265 856 q 497 1065 399 1018 q 736 1113 594 1113 q 817 1108 772 1113 q 906 1094 861 1104 q 991 1065 951 1083 q 1056 1018 1031 1046 l 1003 808 l 865 808 l 901 951 m 603 604 q 445 582 522 604 q 297 524 368 560 q 272 403 282 464 q 261 279 261 342 q 306 138 261 178 q 449 97 350 97 q 589 124 526 97 q 695 200 651 151 q 762 314 739 249 q 785 457 785 379 q 771 528 785 500 q 733 574 757 557 q 675 597 708 590 q 603 604 642 604 z "},"7":{"ha":940,"x_min":172,"x_max":1079,"o":"m 1079 1092 l 1051 981 l 333 0 l 172 0 l 897 975 l 261 975 l 290 1092 l 1079 1092 z "},"8":{"ha":940,"x_min":61,"x_max":1024,"o":"m 61 222 q 82 341 61 286 q 140 441 103 396 q 226 519 176 486 q 335 571 276 551 q 244 638 276 594 q 211 746 211 682 q 256 908 211 839 q 371 1023 301 978 q 526 1090 440 1068 q 692 1113 611 1113 q 804 1101 746 1113 q 912 1065 863 1090 q 992 995 961 1039 q 1024 885 1024 951 q 1005 778 1024 828 q 953 689 986 729 q 874 619 919 649 q 778 571 829 589 q 879 499 843 547 q 915 381 915 451 q 869 205 915 281 q 751 79 824 129 q 588 4 678 29 q 410 -21 497 -21 q 290 -9 351 -21 q 178 31 229 3 q 94 105 126 58 q 61 222 61 151 m 540 508 q 423 495 482 508 q 317 451 364 482 q 242 373 271 421 q 213 257 213 325 q 233 180 213 211 q 287 131 254 149 q 360 105 319 113 q 439 97 400 97 q 556 114 497 97 q 663 164 615 131 q 741 247 711 197 q 771 364 771 297 q 749 438 771 410 q 692 482 726 467 q 617 503 657 497 q 540 508 576 508 m 663 996 q 553 983 608 996 q 453 941 497 969 q 380 867 408 913 q 351 760 351 822 q 372 688 351 715 q 426 647 393 661 q 497 626 458 632 q 569 621 535 621 q 678 633 624 621 q 778 674 733 646 q 850 747 822 703 q 878 854 878 792 q 857 924 878 897 q 804 967 836 951 q 735 990 772 983 q 663 996 697 996 z "},"9":{"ha":940,"x_min":157,"x_max":1025,"o":"m 258 0 q 495 182 376 83 q 703 396 614 281 q 573 353 640 368 q 436 338 506 338 q 322 351 374 338 q 234 395 271 365 q 177 472 197 425 q 157 586 157 519 q 163 660 157 624 q 178 733 168 697 q 249 910 204 838 q 358 1028 294 983 q 506 1092 422 1072 q 694 1113 590 1113 q 815 1105 756 1113 q 922 1074 875 1097 q 997 1006 968 1050 q 1025 886 1025 961 q 1019 807 1025 846 q 1003 729 1013 768 q 917 505 972 607 q 786 315 861 403 q 621 149 711 226 q 433 0 531 72 l 258 0 m 510 454 q 653 473 583 454 q 788 528 724 492 q 820 599 804 560 q 849 681 836 639 q 869 765 861 724 q 876 843 876 807 q 858 923 876 893 q 810 969 840 953 q 742 991 781 986 q 661 996 703 996 q 532 981 588 996 q 435 933 476 965 q 367 851 394 901 q 321 728 339 800 q 306 618 306 671 q 322 538 306 569 q 365 488 338 507 q 429 462 392 469 q 510 454 467 454 z "},"\u0017":{"ha":940,"x_min":0,"x_max":0,"o":""}," ":{"ha":940,"x_min":0,"x_max":0,"o":""},"!":{"ha":940,"x_min":314,"x_max":775,"o":"m 775 1092 l 563 339 l 433 339 l 596 1092 l 775 1092 m 314 65 q 356 185 314 140 q 472 229 397 229 q 541 213 513 229 q 569 153 569 197 q 528 35 569 81 q 413 -11 486 -11 q 343 4 372 -11 q 314 65 314 19 z "},"\"":{"ha":940,"x_min":300,"x_max":972,"o":"m 300 607 m 972 1092 l 829 607 l 714 607 l 813 1092 l 972 1092 m 558 1092 l 415 607 l 300 607 l 399 1092 l 558 1092 z "},"#":{"ha":940,"x_min":46,"x_max":1056,"o":"m 254 419 l 351 672 l 171 672 l 213 779 l 393 779 l 514 1092 l 631 1092 l 510 779 l 769 779 l 890 1092 l 1007 1092 l 886 779 l 1056 779 l 1015 672 l 844 672 l 747 419 l 931 419 l 890 313 l 706 313 l 585 0 l 469 0 l 589 313 l 329 313 l 208 0 l 92 0 l 213 313 l 46 313 l 86 419 l 254 419 m 371 419 l 631 419 l 728 672 l 468 672 l 371 419 z "},"$":{"ha":940,"x_min":65,"x_max":1042,"o":"m 774 1226 l 733 1065 q 894 1045 814 1063 q 1042 981 975 1028 l 993 790 l 854 790 l 885 913 q 778 949 835 940 q 665 958 722 958 q 565 951 622 958 q 458 922 508 943 q 372 865 407 901 q 338 772 338 829 q 381 697 338 724 q 491 653 425 671 q 633 622 557 636 q 776 586 710 608 q 885 526 842 564 q 929 424 929 488 q 890 260 929 329 q 785 144 850 190 q 640 72 721 97 q 478 42 560 47 l 435 -133 l 319 -133 l 361 39 q 258 49 311 40 q 163 78 206 57 q 92 137 119 99 q 65 238 65 175 q 71 295 65 267 q 83 351 76 324 l 222 351 q 213 310 217 332 q 208 268 208 289 q 231 201 208 225 q 288 166 254 178 q 360 151 321 154 q 431 149 399 149 q 551 160 489 149 q 665 198 614 171 q 748 272 715 225 q 781 392 781 319 q 737 467 781 440 q 628 510 693 493 q 486 542 563 528 q 344 578 410 556 q 235 638 279 600 q 192 740 192 675 q 232 884 192 825 q 335 981 272 943 q 472 1038 397 1018 q 617 1063 547 1057 l 658 1226 l 774 1226 z "},"%":{"ha":940,"x_min":10,"x_max":1092,"o":"m 10 0 m 1092 829 l 1067 732 l 10 265 l 35 363 l 1092 829 m 700 456 q 780 448 742 456 q 847 422 818 440 q 893 372 876 404 q 910 293 910 340 q 887 150 910 215 q 821 37 864 85 q 716 -38 778 -11 q 575 -65 654 -65 q 494 -58 532 -65 q 426 -31 456 -50 q 381 19 397 -12 q 364 100 364 51 q 387 243 364 178 q 453 356 410 308 q 558 429 496 403 q 700 456 621 456 m 682 382 q 587 358 626 382 q 522 294 547 333 q 485 207 497 256 q 474 110 474 158 q 506 29 474 51 q 592 7 538 7 q 685 31 646 7 q 751 94 725 56 q 788 182 776 133 q 800 279 800 231 q 768 360 800 338 q 682 382 736 382 m 525 1157 q 605 1149 567 1157 q 672 1124 643 1142 q 718 1074 701 1106 q 735 994 735 1042 q 712 851 735 917 q 646 738 689 786 q 541 663 603 690 q 400 636 479 636 q 319 644 357 636 q 251 670 281 651 q 206 721 222 689 q 189 801 189 753 q 212 944 189 879 q 278 1057 235 1010 q 383 1131 321 1104 q 525 1157 446 1157 m 507 1083 q 412 1059 451 1083 q 347 996 372 1035 q 310 908 322 957 q 299 811 299 860 q 331 731 299 753 q 417 708 363 708 q 510 733 471 708 q 576 796 550 757 q 613 883 601 835 q 625 981 625 932 q 593 1061 625 1039 q 507 1083 561 1083 z "},"&":{"ha":940,"x_min":22,"x_max":1000,"o":"m 22 179 q 53 318 22 257 q 135 427 85 379 q 248 512 185 475 q 374 578 311 549 q 340 631 357 604 q 308 687 322 658 q 284 746 293 715 q 275 808 275 776 q 311 948 275 890 q 405 1042 347 1006 q 533 1096 463 1079 q 675 1113 604 1113 q 765 1106 718 1113 q 852 1080 813 1099 q 917 1027 892 1061 q 942 939 942 993 q 902 797 942 857 q 803 693 863 738 q 674 615 744 649 q 543 553 604 582 l 697 303 l 876 540 l 1000 540 l 751 215 l 885 0 l 733 0 l 664 111 q 501 9 590 39 q 311 -21 411 -21 q 210 -12 261 -21 q 117 18 158 -4 q 49 79 75 40 q 22 179 22 118 m 361 97 q 496 122 432 97 q 611 196 560 146 l 424 496 q 335 454 379 476 q 254 401 290 432 q 195 331 218 371 q 172 235 172 290 q 189 168 172 194 q 233 126 206 142 q 294 104 260 111 q 361 97 328 97 m 404 821 q 413 773 404 797 q 436 724 422 749 q 465 677 450 700 q 492 635 481 654 q 590 678 535 656 q 693 732 644 701 q 774 805 742 763 q 807 907 807 847 q 792 958 807 939 q 752 988 776 978 q 700 1000 728 997 q 647 1003 672 1003 q 560 994 603 1003 q 482 963 517 985 q 426 907 447 942 q 404 821 404 872 z "},"'":{"ha":940,"x_min":507,"x_max":765,"o":"m 765 1092 l 622 607 l 507 607 l 606 1092 l 765 1092 z "},"(":{"ha":940,"x_min":268,"x_max":1153,"o":"m 1153 1363 q 883 1176 1013 1285 q 653 936 753 1068 q 493 650 553 804 q 433 326 433 496 q 514 -16 433 139 q 742 -283 594 -171 l 571 -283 q 344 -16 421 -175 q 268 325 268 143 q 327 644 268 489 q 485 935 386 800 q 712 1179 583 1069 q 981 1363 840 1289 l 1153 1363 z "},")":{"ha":940,"x_min":-53,"x_max":831,"o":"m 528 1363 q 658 1242 601 1310 q 753 1098 715 1175 q 811 935 792 1021 q 831 758 831 849 q 772 438 831 593 q 614 147 713 282 q 387 -99 515 11 q 118 -283 258 -208 l -53 -283 q 217 -97 88 -206 q 447 145 347 13 q 605 432 546 278 q 664 756 664 586 q 584 1096 664 942 q 357 1363 504 1250 l 528 1363 z "},"*":{"ha":940,"x_min":204,"x_max":982,"o":"m 568 793 l 622 1092 l 746 1092 l 653 793 l 951 963 l 982 853 l 676 722 l 918 589 l 832 481 l 618 647 l 564 350 l 439 350 l 533 647 l 235 481 l 204 589 l 511 719 l 269 850 l 354 958 l 568 793 z "},"+":{"ha":940,"x_min":111,"x_max":985,"o":"m 499 606 l 568 882 l 699 882 l 629 606 l 985 606 l 956 486 l 600 486 l 531 210 l 400 210 l 469 486 l 111 486 l 142 606 l 499 606 z "},",":{"ha":940,"x_min":269,"x_max":569,"o":"m 269 -204 q 341 -106 307 -156 q 403 -1 375 -56 q 340 21 363 -1 q 317 83 317 43 q 360 192 317 154 q 472 229 404 229 q 540 214 511 229 q 569 154 569 199 q 551 69 569 118 q 505 -31 532 19 q 448 -128 478 -82 q 396 -204 418 -175 l 269 -204 l 269 -204 z "},"-":{"ha":940,"x_min":194,"x_max":863,"o":"m 863 521 l 833 400 l 194 400 l 225 521 l 863 521 z "},".":{"ha":940,"x_min":314,"x_max":569,"o":"m 314 65 q 356 185 314 140 q 472 229 397 229 q 541 213 513 229 q 569 153 569 197 q 528 35 569 81 q 413 -11 486 -11 q 343 4 372 -11 q 314 65 314 19 z "},"/":{"ha":940,"x_min":-106,"x_max":1200,"o":"m 1200 1269 l 35 -201 l -106 -201 l 1060 1269 l 1200 1269 z "},":":{"ha":940,"x_min":324,"x_max":708,"o":"m 324 33 m 324 110 q 365 229 324 185 q 482 274 407 274 q 551 258 522 274 q 579 197 579 242 q 538 79 579 125 q 422 33 496 33 q 353 49 382 33 q 324 110 324 64 m 453 624 q 494 743 453 699 q 611 788 536 788 q 680 772 651 788 q 708 711 708 756 q 667 593 708 639 q 551 547 625 547 q 482 563 511 547 q 453 624 453 578 z "},";":{"ha":940,"x_min":279,"x_max":708,"o":"m 279 0 m 279 -160 q 351 -61 317 -111 q 413 43 385 -11 q 349 65 372 43 q 326 128 326 88 q 370 236 326 199 q 482 274 414 274 q 550 258 521 274 q 579 199 579 243 q 560 113 579 163 q 515 13 542 64 q 458 -84 488 -37 q 406 -160 428 -131 l 279 -160 l 279 -160 m 453 624 q 494 743 453 699 q 611 788 536 788 q 680 772 651 788 q 708 711 708 756 q 667 593 708 639 q 551 547 625 547 q 482 563 511 547 q 453 624 453 578 z "},"<":{"ha":940,"x_min":111,"x_max":1081,"o":"m 1081 981 l 1046 847 l 271 547 l 894 243 l 861 110 l 111 483 l 143 607 l 1081 981 z "},"=":{"ha":940,"x_min":67,"x_max":1029,"o":"m 1029 785 l 1000 664 l 156 664 l 186 785 l 1029 785 m 940 426 l 911 306 l 67 306 l 97 426 l 940 426 z "},">":{"ha":940,"x_min":18,"x_max":986,"o":"m 986 607 l 956 483 l 18 110 l 51 243 l 826 547 l 203 847 l 236 981 l 986 607 z "},"?":{"ha":940,"x_min":253,"x_max":1040,"o":"m 300 1017 q 391 1065 342 1046 q 492 1094 440 1083 q 598 1108 544 1104 q 700 1113 651 1113 q 813 1106 753 1113 q 923 1079 872 1100 q 1007 1018 974 1058 q 1040 908 1040 978 q 1010 756 1040 817 q 935 654 981 696 q 835 583 890 613 q 728 525 779 554 q 638 460 678 496 q 582 368 597 424 l 574 339 l 436 339 l 446 378 q 501 484 463 442 q 590 557 540 526 q 691 614 639 588 q 787 673 743 640 q 858 751 831 706 q 886 868 886 797 q 865 937 886 911 q 810 976 843 963 q 740 992 778 989 q 668 996 701 996 q 608 994 640 996 q 542 986 575 992 q 478 971 508 981 q 422 946 447 961 l 392 829 l 253 829 l 300 1017 m 314 67 q 356 185 314 142 q 472 229 397 229 q 541 213 513 229 q 569 153 569 197 q 528 35 569 81 q 413 -11 486 -11 q 343 5 372 -11 q 314 67 314 21 z "},"@":{"ha":940,"x_min":32,"x_max":994,"o":"m 851 635 q 869 703 860 668 q 878 774 878 738 q 851 843 878 819 q 788 877 825 867 q 708 888 750 888 q 633 889 665 889 q 540 885 588 889 q 450 864 493 882 q 356 785 394 840 q 290 663 317 729 q 244 527 263 596 q 214 407 226 458 q 176 246 194 328 q 157 82 157 164 q 175 -15 157 21 q 226 -70 193 -51 q 303 -94 258 -89 q 400 -99 347 -99 q 510 -94 453 -99 q 624 -78 567 -89 q 735 -51 681 -68 q 836 -10 789 -35 l 808 -121 q 710 -165 769 -147 q 585 -195 650 -183 q 456 -212 519 -207 q 349 -217 393 -217 q 221 -208 279 -217 q 121 -174 163 -200 q 56 -100 79 -149 q 32 29 32 -51 q 51 214 32 121 q 93 396 71 307 q 133 549 110 464 q 192 715 157 635 q 278 863 228 796 q 401 961 329 929 q 524 994 460 988 q 651 1000 589 1000 q 763 997 703 1000 q 874 976 822 993 q 960 920 925 958 q 994 814 994 882 q 988 745 994 779 q 974 678 982 711 l 840 144 l 733 144 l 747 197 q 650 147 704 161 q 542 133 596 133 q 431 165 467 133 q 394 275 394 197 q 400 344 394 310 q 414 411 406 378 q 447 519 428 468 q 497 607 467 569 q 573 667 528 644 q 683 689 618 689 q 726 687 701 689 q 774 678 750 685 q 818 662 797 672 q 851 635 839 651 m 831 551 q 767 590 803 579 q 694 600 732 600 q 608 571 643 600 q 552 498 574 542 q 522 403 531 454 q 513 311 513 353 q 534 244 513 263 q 601 226 556 226 q 685 240 646 226 q 763 278 725 254 l 831 551 z "},"A":{"ha":940,"x_min":-22,"x_max":853,"o":"m 765 1092 l 853 0 l 699 0 l 686 214 l 246 214 l 124 0 l -22 0 l 614 1092 l 765 1092 m 313 331 l 679 331 l 644 910 l 313 331 z "},"B":{"ha":940,"x_min":28,"x_max":1021,"o":"m 713 1092 q 814 1088 760 1092 q 914 1067 868 1083 q 990 1015 960 1050 q 1021 918 1021 981 q 1008 818 1021 869 q 969 719 994 767 q 908 635 944 672 q 826 575 872 597 q 902 505 879 549 q 925 403 925 461 q 921 347 925 375 q 910 292 917 319 q 847 144 888 201 q 749 56 806 88 q 619 12 692 24 q 461 0 546 0 l 28 0 l 299 1092 l 713 1092 m 213 122 l 475 122 q 581 130 535 122 q 663 159 628 138 q 723 219 699 181 q 763 318 747 257 q 770 357 767 338 q 774 396 774 376 q 754 463 774 439 q 706 498 735 488 q 641 510 676 508 q 572 513 606 513 l 310 513 l 213 122 m 338 619 l 601 619 q 697 626 656 619 q 769 651 739 632 q 822 704 800 669 q 857 794 843 739 q 864 828 861 811 q 867 864 867 846 q 848 924 867 903 q 801 956 829 946 q 739 967 772 965 q 676 969 706 969 l 424 969 l 338 619 z "},"C":{"ha":940,"x_min":94,"x_max":1056,"o":"m 997 790 l 853 790 l 892 942 q 844 964 871 956 q 787 977 817 972 q 728 983 757 982 q 675 985 699 985 q 508 949 571 985 q 406 853 444 914 q 346 714 368 793 q 301 547 324 635 q 269 410 285 481 q 254 269 254 340 q 267 188 254 219 q 303 138 279 156 q 363 113 328 119 q 444 107 399 107 q 555 117 507 107 q 640 152 603 128 q 701 218 676 176 q 739 322 725 260 l 878 322 q 815 158 854 224 q 717 52 775 92 q 581 -4 658 13 q 406 -21 503 -21 q 278 -12 336 -21 q 180 24 221 -3 q 117 101 139 51 q 94 229 94 150 q 110 390 94 310 q 146 549 126 471 q 214 782 178 678 q 310 960 250 886 q 463 1073 369 1033 q 703 1113 557 1113 q 791 1110 742 1113 q 889 1097 840 1107 q 982 1067 938 1086 q 1056 1018 1026 1049 l 997 790 z "},"D":{"ha":940,"x_min":28,"x_max":993,"o":"m 675 1092 q 806 1079 747 1092 q 906 1036 864 1067 q 970 954 947 1006 q 993 824 993 903 q 980 683 993 753 q 950 544 967 614 q 883 326 921 426 q 784 154 844 226 q 632 41 724 82 q 404 0 540 0 l 28 0 l 299 1092 l 675 1092 m 210 128 l 435 128 q 589 164 528 128 q 690 259 650 200 q 753 392 729 318 q 797 544 778 467 q 824 663 813 603 q 835 783 835 724 q 787 924 835 883 q 643 964 739 964 l 418 964 l 210 128 z "},"E":{"ha":940,"x_min":28,"x_max":1092,"o":"m 1092 1092 l 1061 964 l 422 964 l 340 632 l 957 632 l 926 508 l 310 508 l 214 128 l 856 128 l 824 0 l 28 0 l 299 1092 l 1092 1092 z "},"F":{"ha":940,"x_min":28,"x_max":1093,"o":"m 1093 1092 l 1063 964 l 422 964 l 336 618 l 964 618 l 933 492 l 306 492 l 183 0 l 28 0 l 299 1092 l 1093 1092 z "},"G":{"ha":940,"x_min":93,"x_max":1056,"o":"m 964 617 l 810 0 l 704 0 l 710 126 q 529 21 626 57 q 324 -15 432 -15 q 147 38 200 -15 q 93 217 93 92 q 109 384 93 300 q 146 550 125 468 q 215 783 179 679 q 310 960 250 886 q 463 1073 369 1033 q 701 1113 556 1113 q 791 1110 742 1113 q 889 1097 840 1107 q 982 1067 938 1086 q 1056 1018 1026 1049 l 997 790 l 853 790 l 892 942 q 787 977 847 969 q 675 985 726 985 q 508 949 571 985 q 406 853 444 914 q 344 714 367 793 q 300 547 322 635 q 267 403 282 476 q 253 258 253 331 q 283 144 253 179 q 393 110 314 110 q 572 150 489 110 q 726 250 656 190 l 789 500 l 565 500 l 594 617 l 964 617 z "},"H":{"ha":940,"x_min":28,"x_max":1072,"o":"m 454 1092 l 340 632 l 803 632 l 917 1092 l 1072 1092 l 801 0 l 646 0 l 772 508 l 310 508 l 183 0 l 28 0 l 299 1092 l 454 1092 z "},"I":{"ha":940,"x_min":57,"x_max":1042,"o":"m 1042 1092 l 1014 978 l 736 978 l 521 114 l 799 114 l 771 0 l 57 0 l 85 114 l 364 114 l 581 978 l 300 978 l 328 1092 l 1042 1092 z "},"J":{"ha":940,"x_min":67,"x_max":1072,"o":"m 1072 1092 l 899 394 q 832 206 871 285 q 733 77 793 128 q 590 3 674 26 q 392 -21 507 -21 q 278 -15 336 -21 q 174 14 221 -8 q 97 78 126 36 q 67 189 67 119 q 74 257 67 224 q 89 322 81 290 l 229 322 q 218 278 222 300 q 214 233 214 257 q 233 167 214 192 q 283 128 253 142 q 348 111 313 115 q 417 107 383 107 q 549 125 494 107 q 640 178 603 143 q 701 268 676 214 q 743 394 725 322 l 917 1092 l 1072 1092 z "},"K":{"ha":940,"x_min":28,"x_max":1143,"o":"m 1143 1092 l 763 754 l 869 0 l 703 0 l 618 625 l 260 308 l 183 0 l 28 0 l 299 1092 l 454 1092 l 303 479 l 969 1092 l 1143 1092 z "},"L":{"ha":940,"x_min":44,"x_max":844,"o":"m 472 1092 l 232 128 l 844 128 l 814 0 l 44 0 l 315 1092 l 472 1092 z "},"M":{"ha":940,"x_min":-14,"x_max":1114,"o":"m 393 1092 l 560 585 l 976 1092 l 1114 1092 l 843 0 l 703 0 l 918 868 l 540 389 l 486 389 l 343 871 l 128 0 l -14 0 l 257 1092 l 393 1092 z "},"N":{"ha":940,"x_min":15,"x_max":1085,"o":"m 444 1092 l 740 275 l 943 1092 l 1085 1092 l 814 0 l 697 0 l 372 867 l 157 0 l 15 0 l 288 1092 l 444 1092 z "},"O":{"ha":940,"x_min":75,"x_max":1019,"o":"m 688 1107 q 810 1105 750 1107 q 916 1085 869 1103 q 991 1025 963 1067 q 1019 904 1019 983 q 1000 723 1019 814 q 958 544 981 632 q 922 399 943 481 q 868 241 901 318 q 787 101 835 164 q 668 13 739 39 q 540 -12 608 -10 q 408 -15 471 -15 q 286 -14 346 -15 q 180 6 226 -12 q 104 65 133 24 q 75 186 75 107 q 94 367 75 276 q 136 544 114 457 q 174 690 153 608 q 228 849 194 772 q 309 989 261 926 q 428 1078 357 1051 q 556 1103 488 1100 q 688 1107 625 1107 m 657 981 q 572 978 617 981 q 490 960 528 976 q 411 888 444 939 q 354 774 378 836 q 315 650 331 713 q 289 544 300 588 q 252 394 269 471 q 235 240 235 317 q 251 163 235 189 q 296 124 268 136 q 361 111 324 113 q 439 110 399 110 q 524 112 479 110 q 607 131 568 114 q 685 201 653 150 q 742 315 718 253 q 781 439 765 376 q 807 544 796 501 q 844 696 826 618 q 863 850 863 774 q 845 928 863 901 q 799 966 828 954 q 734 979 771 978 q 657 981 697 981 z "},"P":{"ha":940,"x_min":28,"x_max":1043,"o":"m 683 1092 q 803 1088 740 1092 q 920 1066 867 1085 q 1008 1006 974 1047 q 1043 890 1043 965 q 1036 808 1043 849 q 1018 726 1029 767 q 952 551 992 619 q 861 443 913 483 q 747 385 810 403 q 609 363 683 368 q 451 361 535 358 q 274 364 367 364 l 183 0 l 28 0 l 299 1092 l 683 1092 m 304 488 l 544 488 q 672 497 619 488 q 760 532 724 506 q 822 605 797 558 q 864 725 846 651 q 876 782 871 753 q 882 840 882 811 q 861 913 882 888 q 808 949 840 938 q 736 962 775 960 q 663 964 697 964 l 422 964 l 304 488 z "},"Q":{"ha":940,"x_min":88,"x_max":1022,"o":"m 693 1113 q 819 1108 760 1113 q 924 1081 879 1103 q 996 1013 969 1058 q 1022 888 1022 968 q 1004 719 1022 804 q 967 554 986 635 q 915 364 942 457 q 844 196 889 271 q 728 71 800 121 q 543 10 657 21 l 563 -79 q 601 -126 571 -112 q 672 -144 632 -140 q 751 -144 711 -147 q 818 -140 790 -140 l 786 -267 l 654 -267 q 531 -250 572 -267 q 470 -200 489 -233 q 447 -115 451 -167 q 436 6 443 -64 q 308 8 371 6 q 196 31 244 11 q 117 94 147 50 q 88 222 88 139 q 106 390 88 306 q 143 554 124 474 q 187 722 165 644 q 236 860 208 799 q 301 969 264 922 q 391 1049 338 1017 q 518 1097 444 1081 q 693 1113 592 1113 m 661 985 q 579 981 621 985 q 500 960 538 978 q 419 889 453 939 q 363 779 386 839 q 324 658 340 719 q 297 553 308 597 q 263 411 279 483 q 247 267 247 339 q 263 189 247 217 q 306 148 279 161 q 369 132 333 135 q 447 129 406 129 q 533 133 489 129 q 615 154 576 136 q 693 225 661 176 q 748 332 725 274 q 786 449 771 390 q 813 553 801 508 q 847 696 829 622 q 864 840 864 769 q 848 920 864 892 q 805 963 832 949 q 741 981 778 978 q 661 985 704 985 z "},"R":{"ha":940,"x_min":28,"x_max":1050,"o":"m 710 1092 q 821 1089 761 1092 q 931 1069 881 1086 q 1016 1015 982 1053 q 1050 908 1050 978 q 1044 838 1050 872 q 1029 769 1038 804 q 980 630 1008 686 q 908 538 951 574 q 804 486 865 503 q 657 464 743 469 l 869 0 l 693 0 l 486 461 l 297 461 l 183 0 l 28 0 l 299 1092 l 710 1092 m 325 571 l 590 571 q 702 576 656 571 q 781 603 749 582 q 836 663 814 624 q 875 768 858 701 q 886 816 882 792 q 890 864 890 840 q 871 927 890 906 q 822 958 851 949 q 756 968 792 967 q 690 969 721 969 l 424 969 l 325 571 z "},"S":{"ha":940,"x_min":51,"x_max":1046,"o":"m 881 939 q 775 976 832 967 q 663 985 718 985 q 560 976 615 985 q 457 944 504 967 q 378 883 410 922 q 347 785 347 844 q 390 706 347 733 q 497 661 432 678 q 635 631 561 644 q 774 594 710 618 q 881 530 839 571 q 924 418 924 489 q 920 374 924 396 q 911 332 917 353 q 836 166 886 233 q 717 57 786 99 q 563 -3 649 15 q 382 -21 478 -21 q 267 -14 325 -21 q 160 16 208 -7 q 82 81 113 39 q 51 193 51 124 q 58 258 51 225 q 72 322 64 290 l 219 322 q 210 282 214 303 q 206 240 206 261 q 226 170 206 196 q 279 131 247 144 q 349 113 311 117 q 421 108 386 108 q 544 124 483 108 q 655 172 606 139 q 734 256 704 204 q 764 379 764 307 q 722 452 764 426 q 615 495 679 478 q 477 528 551 513 q 339 567 403 543 q 233 633 275 592 q 190 743 190 674 q 238 918 190 847 q 360 1032 286 989 q 526 1094 435 1075 q 703 1113 617 1113 q 792 1108 746 1113 q 883 1094 839 1104 q 969 1065 928 1083 q 1046 1018 1011 1047 l 994 808 l 850 808 l 881 939 z "},"T":{"ha":940,"x_min":236,"x_max":1104,"o":"m 1104 1092 l 1072 964 l 732 964 l 493 0 l 338 0 l 576 964 l 236 964 l 267 1092 l 1104 1092 z "},"U":{"ha":940,"x_min":85,"x_max":1072,"o":"m 454 1092 l 269 351 q 255 286 261 319 q 249 219 249 253 q 267 155 249 176 q 315 124 286 133 q 378 115 343 115 q 444 114 413 114 q 568 124 519 114 q 649 159 617 133 q 702 231 682 185 q 740 351 722 278 l 924 1092 l 1072 1092 l 890 358 q 827 168 861 242 q 740 54 793 94 q 609 -1 688 14 q 411 -15 531 -15 q 301 -14 358 -15 q 195 3 243 -12 q 116 55 147 18 q 85 161 85 92 q 95 260 85 211 q 117 358 106 310 l 299 1092 l 454 1092 z "},"V":{"ha":940,"x_min":249,"x_max":1124,"o":"m 411 1092 l 458 189 l 969 1092 l 1124 1092 l 488 0 l 336 0 l 249 1092 l 411 1092 z "},"W":{"ha":940,"x_min":86,"x_max":1156,"o":"m 360 1092 l 246 267 l 606 958 l 697 958 l 717 279 l 1013 1092 l 1156 1092 l 747 0 l 593 0 l 593 724 l 221 0 l 86 0 l 215 1092 l 360 1092 z "},"X":{"ha":940,"x_min":-47,"x_max":1113,"o":"m 1113 1092 l 658 574 l 876 0 l 697 0 l 529 458 l 122 0 l -47 0 l 475 600 l 288 1092 l 467 1092 l 606 714 l 946 1092 l 1113 1092 z "},"Y":{"ha":940,"x_min":214,"x_max":1156,"o":"m 388 1092 l 589 699 l 988 1092 l 1156 1092 l 638 583 l 493 0 l 338 0 l 482 583 l 214 1092 l 388 1092 z "},"Z":{"ha":940,"x_min":42,"x_max":1057,"o":"m 1057 1092 l 1028 975 l 257 128 l 817 128 l 786 0 l 42 0 l 71 122 l 847 964 l 281 964 l 313 1092 l 1057 1092 z "},"[":{"ha":940,"x_min":147,"x_max":1182,"o":"m 1182 1363 l 1151 1235 l 685 1235 l 338 -157 l 804 -157 l 772 -283 l 147 -283 l 557 1363 l 1182 1363 z "},"\\":{"ha":940,"x_min":260,"x_max":833,"o":"m 401 1269 l 833 -201 l 693 -201 l 260 1269 l 401 1269 z "},"]":{"ha":940,"x_min":-83,"x_max":951,"o":"m 951 1363 l 542 -283 l -83 -283 l -53 -157 l 414 -157 l 760 1235 l 294 1235 l 325 1363 l 951 1363 z "},"^":{"ha":940,"x_min":81,"x_max":969,"o":"m 754 1092 l 969 447 l 822 447 l 657 971 l 231 447 l 81 447 l 617 1092 l 754 1092 z "},"_":{"ha":940,"x_min":-107,"x_max":863,"o":"m 863 -87 l 833 -207 l -107 -207 l -76 -87 l 863 -87 z "},"`":{"ha":940,"x_min":463,"x_max":840,"o":"m 644 1049 l 840 839 l 704 839 l 463 1049 l 644 1049 z "},"a":{"ha":940,"x_min":69,"x_max":893,"o":"m 69 133 q 101 257 69 207 q 184 340 133 307 q 297 391 235 372 q 418 419 358 410 l 736 471 q 744 501 740 486 q 747 532 747 517 q 728 587 747 567 q 680 617 708 607 q 619 630 651 628 q 561 632 588 632 q 451 624 507 632 q 347 586 396 615 l 326 499 l 194 499 l 228 635 q 310 690 264 668 q 406 726 356 713 q 506 744 456 739 q 606 749 557 749 q 701 744 650 749 q 794 721 751 739 q 865 669 836 703 q 893 578 893 636 q 877 466 893 528 q 842 342 861 404 q 808 223 824 279 q 792 128 792 167 q 799 114 792 118 q 818 109 807 110 q 840 109 829 108 q 858 110 851 110 l 832 0 q 778 -2 811 0 q 715 1 746 -4 q 663 21 685 6 q 640 69 640 36 q 640 78 640 74 q 642 88 640 83 q 556 47 596 65 q 474 15 515 28 q 390 -6 433 1 q 293 -14 346 -14 q 216 -8 256 -14 q 144 13 176 -3 q 90 58 111 29 q 69 133 69 88 m 215 175 q 231 130 215 146 q 272 106 247 114 q 322 97 296 99 q 369 94 349 94 q 446 103 407 94 q 523 127 485 113 q 597 159 561 142 q 667 193 633 176 l 711 374 l 422 325 q 354 310 390 319 q 287 285 318 301 q 235 242 256 268 q 215 175 215 215 z "},"b":{"ha":940,"x_min":58,"x_max":917,"o":"m 478 1092 l 361 624 q 514 715 425 688 q 690 742 603 742 q 785 732 743 742 q 857 699 828 722 q 901 638 886 676 q 917 542 917 600 q 909 453 917 497 q 890 364 901 408 q 841 216 869 285 q 769 96 813 147 q 662 15 725 44 q 510 -14 599 -14 q 438 -7 481 -14 q 351 14 394 0 q 273 50 308 28 q 224 101 238 72 l 199 0 l 58 0 l 329 1092 l 478 1092 m 263 228 q 356 136 296 164 q 486 108 415 108 q 591 128 549 108 q 663 182 633 147 q 712 264 693 217 q 744 365 731 311 q 757 426 751 396 q 763 488 763 456 q 724 594 763 565 q 614 624 685 624 q 462 592 533 624 q 332 504 390 561 l 263 228 z "},"c":{"ha":940,"x_min":107,"x_max":933,"o":"m 782 579 q 740 605 765 596 q 688 619 715 614 q 633 626 660 625 q 583 628 606 628 q 459 613 510 628 q 374 567 408 599 q 316 485 339 535 q 276 365 293 435 q 263 301 269 333 q 257 236 257 268 q 272 164 257 190 q 313 123 288 138 q 374 104 339 108 q 446 100 408 100 q 530 105 489 100 q 606 125 571 110 q 665 169 640 140 q 703 244 690 197 l 836 244 q 776 113 817 164 q 680 32 736 61 q 556 -8 624 3 q 411 -19 488 -19 q 297 -12 351 -19 q 199 20 242 -4 q 132 88 157 44 q 107 201 107 131 q 113 283 107 243 q 131 364 119 324 q 194 538 157 465 q 288 657 232 610 q 420 726 343 704 q 604 749 497 749 q 692 744 646 749 q 784 728 739 740 q 868 694 829 717 q 933 635 907 672 l 894 478 l 757 478 l 782 579 z "},"d":{"ha":940,"x_min":93,"x_max":1042,"o":"m 1042 1092 l 771 0 l 631 0 l 658 111 q 501 15 592 43 q 318 -14 410 -14 q 224 -4 265 -14 q 153 28 182 6 q 108 90 124 51 q 93 185 93 128 q 101 274 93 229 q 119 364 108 319 q 169 514 140 444 q 242 634 197 583 q 350 713 286 685 q 506 742 414 742 q 581 737 540 742 q 660 719 622 732 q 728 683 697 706 q 778 624 760 660 l 894 1092 l 1042 1092 m 749 504 q 659 599 717 574 q 531 624 601 624 q 424 604 468 624 q 349 551 379 585 q 300 469 319 517 q 267 365 281 421 q 254 305 260 335 q 249 243 249 275 q 288 137 249 165 q 399 108 326 108 q 679 228 564 108 l 749 504 z "},"e":{"ha":940,"x_min":107,"x_max":903,"o":"m 260 333 q 249 239 249 285 q 264 163 249 192 q 306 120 279 135 q 369 101 333 106 q 444 96 404 96 q 521 100 481 96 q 597 117 561 104 q 660 154 633 129 q 697 221 688 179 l 831 221 l 825 203 q 761 90 804 133 q 661 23 718 47 q 539 -10 604 -1 q 410 -19 474 -19 q 294 -11 349 -19 q 197 22 239 -3 q 131 90 156 46 q 107 204 107 133 q 113 283 107 244 q 129 361 119 322 q 192 534 154 461 q 288 655 231 607 q 423 726 344 703 q 606 749 501 749 q 713 742 660 749 q 808 713 765 735 q 876 651 850 690 q 903 546 903 611 q 899 494 903 522 q 890 438 896 467 q 875 383 883 410 q 858 333 867 356 l 260 333 m 576 633 q 473 622 518 633 q 393 588 428 611 q 333 525 358 564 q 288 432 307 486 l 756 432 q 766 471 763 449 q 769 511 769 493 q 751 576 769 551 q 705 613 733 600 q 642 629 676 625 q 576 633 608 633 z "},"f":{"ha":940,"x_min":117,"x_max":1058,"o":"m 724 999 q 584 981 633 999 q 509 928 535 964 q 470 835 483 892 q 438 700 457 779 l 929 700 l 901 592 l 411 592 l 265 0 l 117 0 l 264 592 l 128 592 l 154 700 l 290 700 q 344 890 318 813 q 414 1017 369 968 q 535 1089 458 1067 q 742 1111 611 1111 q 822 1108 776 1111 q 913 1095 868 1106 q 998 1066 958 1085 q 1058 1014 1038 1047 l 1018 853 l 883 853 l 911 961 q 820 992 874 986 q 724 999 767 999 z "},"g":{"ha":940,"x_min":-75,"x_max":1104,"o":"m 35 61 q 63 131 35 103 q 132 180 92 160 q 215 213 172 200 q 286 238 257 226 q 185 290 222 254 q 147 397 147 326 q 151 441 147 419 q 160 485 154 463 q 224 622 182 569 q 324 702 267 674 q 453 740 382 731 q 603 749 524 749 q 660 747 631 749 q 717 743 689 746 q 769 822 746 789 q 819 875 792 854 q 884 906 847 896 q 978 915 921 915 l 1104 915 l 1078 810 q 985 813 1022 810 q 921 810 949 815 q 867 785 893 804 q 808 724 842 767 q 894 669 864 704 q 925 572 925 633 q 922 528 925 550 q 913 485 918 507 q 849 347 890 399 q 751 267 808 294 q 623 230 693 239 q 472 221 553 221 q 438 221 454 221 q 403 222 421 221 q 356 206 392 218 q 283 178 321 193 q 217 149 246 164 q 188 124 188 133 q 195 112 188 114 q 210 110 203 110 l 658 110 q 729 105 694 110 q 791 85 764 100 q 835 44 818 71 q 851 -25 851 18 q 830 -148 851 -96 q 769 -235 808 -200 q 675 -287 729 -269 q 554 -304 621 -304 l 119 -304 q 55 -301 89 -304 q -8 -285 21 -297 q -56 -249 -37 -272 q -75 -187 -75 -226 q -35 -69 -75 -115 q 68 10 6 -22 q 43 31 51 17 q 35 61 35 44 m 579 650 q 468 640 521 650 q 376 606 415 631 q 315 537 338 581 q 292 425 292 493 q 313 363 292 385 q 365 331 333 342 q 431 319 396 321 q 496 318 467 318 q 606 328 554 318 q 697 363 658 338 q 759 431 736 388 q 782 544 782 475 q 761 605 782 583 q 709 637 740 626 q 643 649 678 647 q 579 650 608 650 m 194 0 q 147 -22 171 -10 q 101 -50 122 -33 q 67 -88 81 -67 q 54 -139 54 -110 q 66 -174 54 -161 q 96 -192 78 -186 q 133 -201 114 -199 q 169 -203 153 -203 l 554 -203 q 617 -196 588 -203 q 668 -173 646 -189 q 703 -132 690 -157 q 715 -69 715 -107 q 705 -33 715 -47 q 678 -12 694 -19 q 643 -2 663 -4 q 606 0 624 0 l 194 0 z "},"h":{"ha":940,"x_min":58,"x_max":913,"o":"m 478 1092 l 360 618 q 521 713 426 685 q 707 742 615 742 q 788 735 750 742 q 853 711 825 729 q 897 662 881 693 q 913 581 913 631 q 908 521 913 550 q 896 463 903 492 l 781 0 l 633 0 l 746 456 q 753 491 750 474 q 756 526 756 508 q 744 575 756 557 q 715 603 733 593 q 674 615 697 613 q 625 618 650 618 q 464 590 539 618 q 331 499 389 563 l 207 0 l 58 0 l 329 1092 l 478 1092 z "},"i":{"ha":940,"x_min":111,"x_max":801,"o":"m 694 729 l 540 108 l 801 108 l 775 0 l 111 0 l 138 108 l 392 108 l 519 619 l 292 619 l 318 729 l 694 729 m 551 911 q 590 1022 551 981 q 699 1064 629 1064 q 765 1050 736 1064 q 793 992 793 1036 q 753 881 793 922 q 643 839 713 839 q 578 853 606 839 q 551 911 551 868 z "},"j":{"ha":940,"x_min":10,"x_max":990,"o":"m 908 729 l 713 -57 q 653 -184 693 -136 q 560 -259 614 -232 q 439 -295 506 -286 q 300 -304 372 -304 q 210 -301 260 -304 q 115 -285 160 -299 q 40 -241 71 -271 q 10 -156 10 -211 q 16 -100 10 -128 q 29 -44 22 -72 l 157 -44 q 149 -76 153 -60 q 146 -107 146 -92 q 165 -155 146 -139 q 212 -178 185 -171 q 269 -187 239 -186 q 321 -187 299 -187 q 399 -184 360 -187 q 471 -167 438 -181 q 529 -128 504 -153 q 565 -58 554 -103 l 733 619 l 422 619 l 449 729 l 908 729 m 749 913 q 790 1023 749 982 q 899 1064 831 1064 q 963 1049 935 1064 q 990 993 990 1035 q 951 881 990 924 q 842 839 913 839 q 776 854 804 839 q 749 913 749 869 z "},"k":{"ha":940,"x_min":58,"x_max":1053,"o":"m 1053 729 l 721 531 l 871 0 l 715 0 l 586 450 l 272 261 l 207 0 l 58 0 l 329 1092 l 478 1092 l 301 382 l 868 729 l 1053 729 z "},"l":{"ha":940,"x_min":111,"x_max":801,"o":"m 796 1092 l 551 108 l 801 108 l 775 0 l 111 0 l 138 108 l 403 108 l 621 983 l 382 983 l 408 1092 l 796 1092 z "},"m":{"ha":940,"x_min":-31,"x_max":1013,"o":"m 278 729 l 256 640 q 356 714 301 686 q 478 742 411 742 q 529 737 504 742 q 574 719 554 732 q 608 687 594 707 q 624 636 621 667 q 733 713 675 685 q 863 742 790 742 q 919 736 892 742 q 967 717 946 731 q 1000 682 988 704 q 1013 626 1013 660 q 1010 597 1013 611 q 1004 569 1007 583 l 863 0 l 726 0 q 744 69 732 22 q 772 173 757 115 q 803 294 788 231 q 833 413 819 357 q 856 510 847 468 q 864 567 864 551 q 839 609 864 600 q 786 618 814 618 q 688 593 731 618 q 607 531 646 568 l 476 0 l 353 0 q 369 65 357 19 q 397 169 382 111 q 429 292 413 228 q 459 413 446 357 q 481 510 472 469 q 490 564 490 551 q 467 607 490 596 q 415 618 443 618 q 310 588 357 618 q 229 514 264 558 l 103 0 l -31 0 l 150 729 l 278 729 z "},"n":{"ha":940,"x_min":58,"x_max":913,"o":"m 381 729 l 350 610 q 515 711 421 681 q 707 742 610 742 q 788 735 750 742 q 853 711 825 729 q 897 662 881 693 q 913 581 913 631 q 908 521 913 550 q 896 463 903 492 l 781 0 l 633 0 l 746 456 q 753 491 750 474 q 756 526 756 508 q 744 575 756 557 q 715 603 733 593 q 674 615 697 613 q 625 618 650 618 q 464 590 539 618 q 331 499 389 563 l 207 0 l 58 0 l 240 729 l 381 729 z "},"o":{"ha":940,"x_min":107,"x_max":907,"o":"m 603 749 q 718 740 663 749 q 815 708 774 732 q 882 641 857 685 q 907 526 907 597 q 901 445 907 486 q 883 364 894 404 q 821 191 858 264 q 727 72 783 118 q 593 3 671 25 q 411 -19 515 -19 q 297 -12 351 -19 q 199 20 242 -4 q 132 88 157 44 q 107 201 107 131 q 114 283 107 242 q 131 364 121 324 q 193 537 156 464 q 287 657 231 610 q 420 726 343 704 q 603 749 497 749 m 572 628 q 452 611 501 628 q 369 561 403 594 q 313 478 335 528 q 275 364 292 429 q 262 301 268 332 q 256 238 256 269 q 270 166 256 193 q 310 124 285 139 q 369 105 335 110 q 440 100 403 100 q 562 116 513 100 q 644 165 611 132 q 699 248 678 199 q 738 364 721 297 q 751 427 744 396 q 757 490 757 458 q 742 562 757 535 q 703 603 728 589 q 644 623 678 618 q 572 628 611 628 z "},"p":{"ha":940,"x_min":-12,"x_max":917,"o":"m 261 222 q 352 128 293 153 q 482 103 411 103 q 588 123 544 103 q 660 178 631 143 q 710 260 690 213 q 743 363 729 308 q 756 424 750 393 q 761 486 761 454 q 722 591 761 564 q 613 618 683 618 q 458 590 528 618 q 331 499 389 561 l 261 222 m 381 729 l 351 617 q 510 713 418 685 q 694 742 601 742 q 788 732 747 742 q 858 699 829 722 q 901 637 886 675 q 917 542 917 599 q 909 453 917 497 q 890 364 901 408 q 841 213 869 282 q 768 94 813 144 q 660 15 724 43 q 506 -14 597 -14 q 435 -9 478 -14 q 350 9 392 -4 q 276 45 308 22 q 236 104 243 68 l 136 -283 l -12 -283 l 240 729 l 381 729 z "},"q":{"ha":940,"x_min":94,"x_max":953,"o":"m 953 729 l 701 -283 l 553 -283 l 649 104 q 495 13 585 39 q 318 -14 406 -14 q 224 -4 265 -14 q 153 28 182 6 q 110 90 125 51 q 94 185 94 128 q 102 274 94 229 q 121 364 110 319 q 170 515 142 446 q 243 635 199 585 q 351 713 288 685 q 507 742 415 742 q 585 736 544 742 q 665 717 626 731 q 735 678 703 703 q 783 617 767 654 l 813 729 l 953 729 m 747 499 q 657 592 715 567 q 526 618 599 618 q 421 599 464 618 q 349 547 378 581 q 300 465 319 513 q 267 363 281 418 q 254 301 260 332 q 249 239 249 271 q 288 131 249 160 q 400 103 328 103 q 678 222 563 103 l 747 499 z "},"r":{"ha":940,"x_min":58,"x_max":975,"o":"m 381 729 l 340 572 q 435 637 386 606 q 538 691 485 668 q 647 728 592 714 q 761 742 703 742 q 821 737 786 742 q 888 719 856 732 q 946 686 921 707 q 975 635 971 665 l 933 468 l 796 468 l 825 585 q 800 603 817 596 q 763 615 783 611 q 724 622 743 619 q 692 624 704 624 q 592 610 642 624 q 497 576 543 597 q 406 528 450 556 q 324 472 363 501 l 207 0 l 58 0 l 240 729 l 381 729 z "},"s":{"ha":940,"x_min":79,"x_max":914,"o":"m 225 232 q 215 183 215 206 q 238 131 215 150 q 291 103 260 113 q 356 92 322 94 q 413 90 389 90 q 500 96 450 90 q 595 118 550 101 q 672 166 640 135 q 703 249 703 197 q 663 303 703 286 q 564 329 624 321 q 435 342 504 338 q 306 361 365 347 q 206 403 246 375 q 167 488 167 432 q 210 619 167 568 q 317 699 253 669 q 456 738 382 728 q 592 749 531 749 q 759 733 675 749 q 914 668 843 717 l 878 521 l 749 521 l 769 608 q 669 638 721 632 q 565 644 618 644 q 490 641 535 644 q 405 625 446 638 q 335 588 364 613 q 306 519 306 563 q 328 478 306 493 q 390 455 351 463 q 476 443 428 447 q 576 434 525 439 q 675 422 626 429 q 762 397 724 414 q 823 353 800 381 q 846 281 846 325 q 824 176 846 221 q 767 97 803 131 q 685 41 732 64 q 585 5 638 18 q 481 -14 533 -8 q 382 -19 429 -19 q 288 -15 340 -19 q 188 6 235 -11 q 110 56 142 22 q 79 146 79 89 q 83 190 79 168 q 94 232 88 211 l 225 232 z "},"t":{"ha":940,"x_min":128,"x_max":929,"o":"m 290 700 l 342 904 l 489 904 l 438 700 l 929 700 l 901 592 l 411 592 q 387 503 403 561 q 355 383 371 446 q 326 265 339 321 q 314 185 314 210 q 333 133 314 151 q 381 106 353 114 q 442 95 410 97 q 497 93 474 93 q 587 97 549 93 q 653 116 625 101 q 701 160 681 131 q 735 240 721 190 l 863 240 q 805 103 838 154 q 726 24 772 51 q 615 -11 679 -3 q 461 -19 550 -19 q 365 -15 417 -19 q 267 6 313 -11 q 192 56 222 22 q 161 149 161 89 q 174 244 161 185 q 203 367 186 303 q 236 493 219 432 q 263 592 253 554 l 128 592 l 154 700 l 290 700 z "},"u":{"ha":940,"x_min":97,"x_max":953,"o":"m 379 729 l 265 274 q 258 238 261 256 q 254 200 254 219 q 265 151 254 169 q 294 124 276 133 q 336 113 313 115 q 385 110 360 110 q 545 138 471 110 q 681 229 619 167 l 804 729 l 953 729 l 771 0 l 631 0 l 660 118 q 495 17 589 47 q 304 -12 401 -12 q 224 -6 261 -12 q 158 17 186 0 q 113 65 129 35 q 97 146 97 96 q 103 207 97 178 q 115 267 108 236 l 231 729 l 379 729 z "},"v":{"ha":940,"x_min":158,"x_max":1033,"o":"m 319 729 l 446 139 l 881 729 l 1033 729 l 486 0 l 339 0 l 158 729 l 319 729 z "},"w":{"ha":940,"x_min":110,"x_max":1067,"o":"m 265 729 l 239 175 l 521 622 l 614 622 l 674 179 l 928 729 l 1067 729 l 719 0 l 590 0 l 524 446 l 235 0 l 110 0 l 125 729 l 265 729 z "},"x":{"ha":940,"x_min":-47,"x_max":1022,"o":"m 1022 729 l 607 389 l 876 0 l 703 0 l 490 307 l 117 0 l -47 0 l 431 394 l 203 729 l 376 729 l 547 476 l 858 729 l 1022 729 z "},"y":{"ha":940,"x_min":-29,"x_max":1033,"o":"m 317 729 l 465 269 l 876 729 l 1033 729 l 129 -283 l -29 -283 l 360 151 l 158 729 l 317 729 z "},"z":{"ha":940,"x_min":42,"x_max":967,"o":"m 967 729 l 942 628 l 263 119 l 814 119 l 786 0 l 42 0 l 69 111 l 733 608 l 193 608 l 222 729 l 967 729 z "},"{":{"ha":940,"x_min":175,"x_max":1182,"o":"m 1182 1363 l 1153 1243 l 960 1243 q 866 1237 906 1243 q 801 1212 826 1231 q 762 1158 775 1193 q 749 1067 749 1124 q 760 928 749 996 q 772 790 772 861 q 740 644 772 711 q 635 539 708 576 q 675 491 663 519 q 688 429 688 463 q 651 297 688 367 q 569 157 614 226 q 488 23 525 88 q 451 -94 451 -42 q 469 -136 451 -122 q 513 -156 488 -150 q 565 -163 538 -162 q 610 -164 592 -164 l 801 -164 l 772 -283 l 517 -283 q 442 -280 482 -283 q 369 -262 403 -276 q 312 -223 335 -249 q 289 -151 289 -197 q 308 -58 289 -107 q 354 42 326 -8 q 415 144 382 93 q 476 243 449 196 q 523 333 504 290 q 542 411 542 376 q 531 447 542 433 q 502 466 519 460 q 465 474 485 472 q 429 476 446 476 l 175 476 l 206 601 l 460 601 q 589 643 553 601 q 625 772 625 685 q 613 917 625 846 q 600 1064 600 989 q 621 1204 600 1147 q 683 1297 642 1261 q 786 1347 725 1332 q 926 1363 847 1363 l 1182 1363 z "},"|":{"ha":940,"x_min":274,"x_max":819,"o":"m 819 1363 l 404 -304 l 274 -304 l 689 1363 l 819 1363 z "},"}":{"ha":940,"x_min":-83,"x_max":924,"o":"m 582 1363 q 656 1359 617 1363 q 730 1342 696 1356 q 786 1301 764 1328 q 808 1229 808 1275 q 790 1135 808 1185 q 743 1035 771 1086 q 683 934 715 985 q 622 836 650 883 q 576 746 594 789 q 557 668 557 703 q 568 633 557 646 q 596 613 579 619 q 633 603 613 606 q 669 601 653 601 l 924 601 l 893 476 l 639 476 q 509 435 544 476 q 474 306 474 394 q 487 158 474 231 q 500 11 500 86 q 478 -127 500 -71 q 414 -218 456 -183 q 311 -268 372 -253 q 172 -283 250 -283 l -83 -283 l -54 -164 l 138 -164 q 231 -158 190 -164 q 297 -133 271 -151 q 337 -80 324 -114 q 350 11 350 -46 q 338 151 350 82 q 326 292 326 221 q 358 436 326 371 q 463 539 390 501 q 422 586 435 558 q 410 646 410 614 q 427 734 410 688 q 471 827 444 781 q 528 921 497 874 q 586 1013 560 968 q 630 1098 613 1057 q 647 1174 647 1139 q 629 1215 647 1200 q 586 1235 611 1229 q 534 1242 561 1242 q 489 1243 507 1243 l 296 1243 l 325 1363 l 582 1363 z "},"~":{"ha":940,"x_min":96,"x_max":1003,"o":"m 133 569 q 261 644 190 618 q 407 669 332 669 q 509 650 471 669 q 579 608 547 631 q 645 565 611 585 q 736 546 679 546 q 881 584 815 546 q 1003 674 947 622 l 965 522 q 837 449 907 475 q 692 422 767 422 q 618 431 649 422 q 563 454 588 440 q 519 484 539 468 q 476 514 499 500 q 426 537 453 528 q 361 546 399 546 q 217 508 282 546 q 96 418 151 469 l 133 569 z "}," ":{"ha":940,"x_min":0,"x_max":0,"o":""},"¡":{"ha":940,"x_min":365,"x_max":826,"o":"m 365 0 m 365 -283 l 578 469 l 707 469 l 544 -283 l 365 -283 m 826 743 q 785 624 826 668 q 668 579 743 579 q 599 595 628 579 q 571 656 571 611 q 613 774 571 728 q 728 819 654 819 q 797 804 768 819 q 826 743 826 789 z "},"¢":{"ha":940,"x_min":103,"x_max":1038,"o":"m 883 921 q 834 940 861 933 q 778 951 807 947 q 722 957 750 956 q 669 958 694 958 q 506 928 569 958 q 403 844 443 897 q 339 717 363 790 q 293 556 315 643 q 267 437 278 497 q 256 317 256 376 q 269 231 256 264 q 307 181 282 199 q 369 156 332 163 q 453 149 406 149 q 560 158 511 149 q 646 190 608 167 q 709 252 683 213 q 749 351 735 292 l 886 351 q 834 215 867 271 q 753 122 801 158 q 642 66 706 85 q 497 42 578 47 l 454 -133 l 338 -133 l 379 39 q 265 52 317 40 q 178 90 214 64 q 122 162 142 117 q 103 276 103 207 q 117 417 103 347 q 147 554 131 486 q 208 757 175 665 q 293 915 240 849 q 428 1021 346 982 q 636 1065 510 1060 l 676 1226 l 793 1226 l 753 1065 q 826 1058 788 1063 q 903 1044 865 1054 q 975 1019 940 1035 q 1038 981 1010 1004 l 985 774 l 846 774 l 883 921 z "},"£":{"ha":940,"x_min":-1,"x_max":1093,"o":"m 938 944 q 887 969 915 960 q 828 985 858 979 q 767 994 797 992 q 711 996 738 996 q 599 984 654 996 q 501 944 544 972 q 433 872 458 917 q 407 761 407 828 q 419 675 407 717 q 443 593 431 633 l 982 593 l 958 497 l 465 497 q 456 376 472 433 q 408 272 440 319 q 328 185 375 224 q 229 117 282 146 l 842 117 l 814 0 l -1 0 l 25 113 q 131 167 76 138 q 228 237 185 197 q 299 328 271 276 q 326 444 326 379 q 322 497 326 469 l 115 497 l 139 593 l 294 593 q 270 674 281 633 q 260 757 260 714 q 304 926 260 858 q 419 1036 349 994 q 577 1095 490 1078 q 749 1113 664 1113 q 835 1109 788 1113 q 931 1095 883 1106 q 1022 1066 979 1085 q 1093 1017 1065 1047 l 1042 808 l 904 808 l 938 944 z "},"¤":{"ha":940,"x_min":121,"x_max":975,"o":"m 324 860 l 394 779 q 505 821 446 811 q 622 831 564 831 q 673 829 646 831 q 726 822 700 828 q 777 807 753 817 q 821 781 801 797 l 932 860 l 975 801 l 860 719 q 868 654 868 688 q 860 580 868 621 q 840 497 853 539 q 811 416 828 454 q 775 351 794 378 l 844 276 l 772 218 l 710 288 q 595 240 657 251 q 471 228 533 228 q 417 229 446 228 q 359 237 388 231 q 304 255 331 243 q 260 288 278 267 l 163 218 l 121 276 l 228 351 q 224 377 225 364 q 222 403 222 390 q 230 481 222 438 q 251 568 238 525 q 285 651 265 611 q 326 718 304 690 l 251 801 l 324 860 m 600 746 q 388 663 460 746 q 315 440 315 579 q 330 374 315 399 q 369 335 344 349 q 426 317 394 322 q 493 313 458 313 q 673 364 611 313 q 763 529 735 415 q 772 574 768 551 q 776 619 776 596 q 762 685 776 660 q 722 723 747 710 q 665 741 697 736 q 600 746 633 746 z "},"¥":{"ha":940,"x_min":42,"x_max":1156,"o":"m 379 1092 l 596 726 l 996 1092 l 1156 1092 l 647 635 l 631 569 l 976 569 l 953 474 l 607 474 l 564 301 l 910 301 l 886 206 l 540 206 l 489 0 l 340 0 l 392 206 l 42 206 l 67 301 l 415 301 l 458 474 l 108 474 l 133 569 l 482 569 l 497 632 l 214 1092 l 379 1092 z "},"¦":{"ha":940,"x_min":272,"x_max":818,"o":"m 576 392 l 403 -304 l 272 -304 l 446 392 l 576 392 m 818 1363 l 644 667 l 514 667 l 688 1363 l 818 1363 z "},"§":{"ha":940,"x_min":-50,"x_max":1089,"o":"m 932 958 q 826 994 882 985 q 714 1004 771 1004 q 614 997 671 1004 q 506 968 557 989 q 420 911 456 947 q 385 818 385 875 q 428 744 385 769 q 538 701 472 718 q 681 672 604 685 q 824 635 758 658 q 934 573 890 613 q 978 465 978 533 q 963 372 978 417 q 924 288 949 328 q 864 216 899 249 q 789 160 829 183 q 806 119 801 140 q 811 76 811 99 q 762 -103 811 -31 q 635 -221 713 -176 q 465 -285 558 -265 q 282 -304 371 -304 q 171 -299 229 -304 q 63 -272 113 -293 q -18 -212 14 -251 q -50 -104 -50 -172 q -45 -48 -50 -76 q -33 8 -40 -19 l 106 8 q 96 -33 100 -11 q 92 -75 92 -54 q 115 -142 92 -118 q 172 -178 138 -167 q 244 -192 206 -189 q 315 -194 283 -194 q 437 -183 375 -194 q 549 -145 499 -172 q 631 -71 599 -118 q 663 50 663 -24 q 619 125 663 99 q 510 169 575 151 q 369 199 444 186 q 228 235 293 213 q 119 296 163 258 q 75 399 75 333 q 92 491 75 449 q 140 569 110 533 q 209 631 169 604 q 292 676 249 658 q 252 726 265 697 q 239 789 239 756 q 290 947 239 885 q 418 1047 342 1010 q 583 1098 494 1083 q 747 1113 672 1113 q 836 1109 790 1113 q 926 1096 882 1106 q 1011 1069 969 1086 q 1089 1026 1053 1053 l 1042 836 l 903 836 l 932 958 m 832 436 q 821 481 832 463 q 792 511 810 499 q 753 532 775 524 q 711 547 732 540 q 552 583 632 571 q 394 622 472 594 q 331 594 363 611 q 276 552 300 576 q 236 497 251 528 q 221 428 221 465 q 248 371 221 394 q 319 330 275 347 q 417 300 363 313 q 525 276 471 288 q 627 253 579 265 q 706 226 675 242 q 795 316 758 261 q 832 436 832 371 z "},"¨":{"ha":940,"x_min":304,"x_max":999,"o":"m 774 918 q 813 1015 774 981 q 911 1049 851 1049 q 971 1037 943 1049 q 999 986 999 1025 q 961 890 999 924 q 863 856 924 856 q 830 858 846 856 q 801 867 814 860 q 781 886 789 874 q 774 918 774 899 m 304 921 q 343 1016 304 983 q 442 1049 382 1049 q 501 1037 474 1049 q 528 986 528 1025 q 491 890 528 924 q 393 856 454 856 q 331 868 358 856 q 304 921 304 881 z "},"©":{"ha":940,"x_min":46,"x_max":1051,"o":"m 753 663 l 667 663 l 682 726 q 640 738 663 736 q 596 740 618 740 q 526 724 553 740 q 484 679 500 707 q 458 617 468 651 q 440 547 449 582 q 426 483 433 515 q 419 419 419 451 q 438 365 419 379 q 494 351 457 351 q 573 370 542 351 q 611 439 604 389 l 696 439 q 668 360 688 392 q 619 310 649 329 q 552 283 590 292 q 471 275 514 275 q 410 279 438 275 q 364 297 383 283 q 334 333 344 310 q 324 393 324 356 q 331 472 324 433 q 349 547 339 510 q 381 658 364 608 q 425 744 397 708 q 497 799 453 779 q 611 818 540 818 q 654 817 631 818 q 701 810 678 815 q 744 797 724 806 q 781 772 765 788 l 753 663 m 689 1107 q 819 1106 754 1107 q 936 1085 885 1104 q 1019 1023 988 1067 q 1051 894 1051 979 q 1033 718 1051 807 q 993 544 1014 629 q 955 396 976 478 q 899 237 933 314 q 815 99 865 160 q 689 13 764 38 q 551 -12 625 -8 q 410 -15 476 -15 q 279 -14 344 -15 q 162 6 214 -12 q 78 67 110 24 q 46 196 46 111 q 65 372 46 283 q 104 544 83 460 q 142 694 121 611 q 199 853 164 776 q 284 991 233 929 q 410 1078 335 1053 q 548 1103 474 1100 q 689 1107 622 1107 m 668 1022 q 557 1019 615 1022 q 447 997 499 1017 q 348 922 389 975 q 279 802 307 868 q 234 667 251 736 q 203 544 217 597 q 167 392 183 469 q 150 236 150 314 q 174 135 150 169 q 238 87 199 101 q 328 72 278 72 q 431 71 379 71 q 542 73 483 71 q 651 94 601 75 q 751 169 711 117 q 819 288 792 222 q 865 422 847 353 q 896 544 882 490 q 932 697 915 619 q 949 853 949 775 q 924 955 949 919 q 860 1005 900 990 q 770 1021 821 1019 q 668 1022 719 1022 z "},"ª":{"ha":940,"x_min":192,"x_max":883,"o":"m 289 653 q 308 732 289 700 q 358 785 328 764 q 428 817 389 806 q 507 835 467 829 l 749 868 q 754 892 751 879 q 757 915 757 904 q 746 947 757 936 q 719 961 735 957 q 685 966 704 965 q 653 967 667 967 q 614 966 635 967 q 572 962 593 965 q 530 953 550 958 q 493 939 510 947 l 481 888 l 372 888 l 394 975 q 457 1012 422 997 q 529 1035 492 1026 q 604 1046 567 1043 q 676 1049 642 1049 q 739 1047 704 1049 q 803 1034 774 1044 q 854 1002 833 1024 q 875 943 875 981 q 865 873 875 910 q 843 800 856 836 q 821 728 831 764 q 811 663 811 693 q 820 650 811 654 q 841 645 829 646 q 865 645 853 644 q 883 646 876 646 l 864 568 l 785 568 q 748 569 765 568 q 718 576 731 569 q 698 594 706 582 q 690 629 690 606 q 630 601 658 614 q 572 578 601 588 q 513 564 543 569 q 446 558 482 558 q 394 561 422 558 q 343 574 367 564 q 304 603 319 585 q 289 653 289 621 m 818 411 l 794 315 l 192 315 l 215 411 l 818 411 m 488 636 q 599 656 546 636 q 706 699 653 676 l 732 801 l 518 767 q 479 758 499 764 q 443 744 460 753 q 416 719 426 735 q 406 681 406 704 q 414 656 406 665 q 435 643 422 647 q 462 638 447 639 q 488 636 476 636 z "},"«":{"ha":940,"x_min":63,"x_max":1046,"o":"m 63 0 m 1046 800 l 1007 646 l 622 392 l 879 133 l 842 -21 l 501 322 l 535 457 l 1046 800 m 607 800 l 568 646 l 183 392 l 440 133 l 403 -21 l 63 322 l 96 457 l 607 800 z "},"¬":{"ha":940,"x_min":117,"x_max":985,"o":"m 985 606 l 835 0 l 725 0 l 850 504 l 117 504 l 142 606 l 985 606 z "},"­":{"ha":940,"x_min":194,"x_max":863,"o":"m 194 400 m 863 521 l 833 400 l 194 400 l 225 521 l 863 521 z "},"®":{"ha":940,"x_min":46,"x_max":1051,"o":"m 689 1107 q 819 1106 754 1107 q 936 1085 885 1104 q 1019 1023 988 1067 q 1051 894 1051 979 q 1033 718 1051 807 q 993 544 1014 629 q 955 396 976 478 q 899 237 933 314 q 815 99 865 160 q 689 13 764 38 q 551 -12 625 -8 q 410 -15 476 -15 q 279 -14 344 -15 q 162 6 214 -12 q 78 67 110 24 q 46 196 46 111 q 65 372 46 283 q 104 544 83 460 q 142 694 121 611 q 199 853 164 776 q 284 991 233 929 q 410 1078 335 1053 q 548 1103 474 1100 q 689 1107 622 1107 m 668 1022 q 556 1019 615 1022 q 446 997 497 1017 q 347 922 388 975 q 279 802 307 868 q 234 667 251 736 q 203 544 217 597 q 167 392 183 469 q 150 236 150 314 q 174 135 150 169 q 238 87 199 101 q 328 72 278 72 q 431 71 379 71 q 542 73 483 71 q 653 94 601 75 q 751 169 711 115 q 819 288 792 222 q 865 422 847 353 q 896 544 882 492 q 933 699 915 619 q 950 856 950 778 q 925 956 950 922 q 860 1005 900 990 q 770 1021 821 1019 q 668 1022 719 1022 m 613 807 q 665 806 636 807 q 719 797 694 804 q 762 772 744 789 q 779 721 779 754 q 769 640 779 678 q 739 574 760 603 q 685 526 718 544 q 608 504 653 508 l 694 285 l 589 285 l 506 501 l 438 501 l 385 285 l 290 285 l 419 807 l 613 807 m 456 571 l 560 571 q 652 597 622 571 q 682 690 682 624 q 674 716 682 707 q 653 728 665 725 q 626 733 640 732 q 599 733 611 733 l 494 733 l 456 571 z "},"¯":{"ha":940,"x_min":236,"x_max":1079,"o":"m 1079 1026 l 1056 931 l 236 931 l 260 1026 l 1079 1026 z "},"°":{"ha":940,"x_min":308,"x_max":935,"o":"m 692 1107 q 781 1101 738 1107 q 858 1078 824 1096 q 914 1027 893 1060 q 935 939 935 994 q 930 881 935 910 q 918 825 925 853 q 868 694 899 747 q 794 607 838 640 q 690 558 750 574 q 551 543 631 543 q 463 549 506 543 q 385 572 419 554 q 329 622 350 589 q 308 710 308 654 q 313 768 308 739 q 325 825 318 797 q 374 956 344 903 q 449 1043 404 1010 q 553 1092 493 1076 q 692 1107 613 1107 m 668 1013 q 574 1003 614 1013 q 507 972 535 993 q 460 914 479 950 q 429 825 442 878 q 420 783 424 804 q 417 739 417 761 q 431 683 417 703 q 466 652 444 663 q 516 639 488 642 q 574 636 544 636 q 669 646 629 636 q 736 677 708 656 q 783 735 764 699 q 815 825 801 771 q 824 867 821 846 q 828 908 828 888 q 814 965 828 944 q 777 997 800 986 q 726 1010 754 1007 q 668 1013 697 1013 z "},"±":{"ha":940,"x_min":0,"x_max":1011,"o":"m 0 40 m 525 717 l 594 993 l 725 993 l 656 717 l 1011 717 l 982 597 l 626 597 l 557 321 l 426 321 l 496 597 l 138 597 l 168 717 l 525 717 m 874 160 l 844 40 l 0 40 l 31 160 l 874 160 z "},"²":{"ha":940,"x_min":336,"x_max":872,"o":"m 336 590 m 447 1057 q 556 1093 494 1085 q 669 1101 617 1101 q 733 1099 697 1101 q 799 1084 768 1096 q 851 1050 831 1072 q 872 990 872 1028 q 831 882 872 932 q 732 791 790 832 q 611 718 674 750 q 506 665 549 686 l 806 665 l 788 590 l 336 590 l 351 656 q 413 685 374 667 q 499 727 453 703 q 594 781 546 751 q 681 840 642 810 q 744 903 719 871 q 768 967 768 935 q 756 999 768 988 q 726 1017 743 1011 q 688 1025 708 1024 q 654 1026 668 1026 q 591 1022 628 1026 q 531 1006 554 1017 l 517 956 l 424 956 l 447 1057 z "},"³":{"ha":940,"x_min":360,"x_max":875,"o":"m 360 581 m 453 1058 q 558 1094 500 1086 q 668 1101 615 1101 q 730 1099 694 1101 q 797 1087 765 1097 q 852 1056 829 1076 q 875 999 875 1036 q 847 909 875 946 q 772 853 819 872 q 829 774 829 831 q 803 678 829 715 q 735 619 776 642 q 643 589 693 597 q 547 581 593 581 q 488 583 521 581 q 427 597 456 586 q 379 627 399 607 q 360 683 360 647 q 363 713 360 699 q 369 743 367 728 l 464 743 q 459 725 461 735 q 457 707 457 715 q 469 678 457 688 q 499 663 482 668 q 535 658 517 658 q 567 657 554 657 q 622 660 593 657 q 674 675 650 664 q 714 707 699 686 q 729 761 729 728 q 703 799 729 788 q 643 813 678 810 q 575 815 608 817 q 526 813 542 813 l 544 885 q 610 883 571 885 q 687 889 650 882 q 750 915 724 896 q 776 976 776 935 q 763 1006 776 996 q 730 1021 749 1017 q 692 1026 711 1025 q 660 1026 672 1026 q 595 1023 628 1026 q 533 1007 563 1019 l 521 956 l 426 956 l 453 1058 z "},"´":{"ha":940,"x_min":403,"x_max":886,"o":"m 886 1049 l 539 839 l 403 839 l 704 1049 l 886 1049 z "},"¶":{"ha":940,"x_min":149,"x_max":1156,"o":"m 1156 1092 l 1126 972 l 982 972 l 819 319 q 653 -31 771 122 q 358 -283 535 -183 l 192 -283 q 365 -169 285 -229 q 507 -35 444 -108 q 615 125 569 38 q 688 319 661 213 l 850 972 l 628 972 l 507 486 q 396 485 458 486 q 278 495 333 483 q 186 540 224 507 q 149 644 149 574 q 155 716 149 681 q 171 788 161 751 q 223 935 193 876 q 297 1029 253 994 q 406 1078 342 1064 q 564 1092 471 1092 l 1156 1092 z "},"·":{"ha":940,"x_min":414,"x_max":669,"o":"m 414 394 m 414 471 q 456 590 414 546 q 572 635 497 635 q 641 619 613 635 q 669 558 669 603 q 628 440 669 486 q 513 394 586 394 q 443 410 472 394 q 414 471 414 425 z "},"¸":{"ha":940,"x_min":233,"x_max":486,"o":"m 486 -58 l 331 -304 l 233 -304 l 339 -58 l 486 -58 z "},"¹":{"ha":940,"x_min":353,"x_max":786,"o":"m 353 590 m 460 988 q 524 990 494 988 q 578 1002 554 992 q 619 1033 601 1013 q 649 1092 638 1054 l 740 1092 l 632 665 l 786 665 l 768 590 l 353 590 l 371 665 l 532 665 l 601 940 q 492 915 549 915 l 442 915 l 460 988 l 460 988 z "},"º":{"ha":940,"x_min":192,"x_max":910,"o":"m 676 1049 q 758 1044 717 1049 q 833 1024 800 1039 q 888 978 867 1008 q 910 897 910 949 q 906 849 910 874 q 896 801 901 825 q 849 683 879 731 q 777 607 819 635 q 679 567 735 579 q 553 556 624 556 q 471 560 513 556 q 395 579 429 564 q 340 624 361 594 q 318 706 318 654 q 322 753 318 729 q 332 801 325 778 q 379 920 350 872 q 451 997 408 968 q 549 1037 493 1025 q 676 1049 606 1049 m 654 964 q 574 956 607 964 q 516 928 540 947 q 476 878 492 908 q 449 801 460 847 q 441 765 444 783 q 438 729 438 747 q 449 680 438 697 q 480 653 461 663 q 524 641 499 643 q 574 639 549 639 q 654 647 621 639 q 712 674 688 656 q 751 724 736 693 q 778 801 767 756 q 785 838 782 819 q 789 875 789 856 q 777 924 789 906 q 747 951 765 942 q 703 962 728 960 q 654 964 679 964 m 818 411 l 794 315 l 192 315 l 215 411 l 818 411 z "},"»":{"ha":940,"x_min":-24,"x_max":961,"o":"m 0 0 m 961 457 l 926 322 l 415 -21 l 454 133 l 840 390 l 582 646 l 619 800 l 961 457 m 522 457 l 488 322 l -24 -21 l 15 133 l 401 390 l 143 646 l 181 800 l 522 457 z "},"¼":{"ha":940,"x_min":10,"x_max":1092,"o":"m 10 0 m 1092 829 l 1067 732 l 10 265 l 35 363 l 1092 829 m 231 1043 q 295 1045 265 1043 q 349 1058 325 1047 q 390 1089 372 1068 q 419 1147 408 1110 l 511 1147 l 403 721 l 557 721 l 539 646 l 124 646 l 142 721 l 303 721 l 372 996 q 263 971 319 971 l 213 971 l 231 1043 l 231 1043 m 839 446 l 760 131 l 832 131 l 813 57 l 742 57 l 714 -56 l 617 -56 l 644 57 l 319 57 l 339 133 l 744 446 l 839 446 m 663 131 l 715 344 l 440 131 l 663 131 z "},"½":{"ha":940,"x_min":10,"x_max":1092,"o":"m 10 0 m 1092 829 l 1067 732 l 10 265 l 35 363 l 1092 829 m 231 1043 q 295 1045 265 1043 q 349 1058 325 1047 q 390 1089 372 1068 q 419 1147 408 1110 l 511 1147 l 403 721 l 557 721 l 539 646 l 124 646 l 142 721 l 303 721 l 372 996 q 263 971 319 971 l 213 971 l 231 1043 l 231 1043 m 463 411 q 571 447 510 439 q 685 456 632 456 q 748 453 713 456 q 815 438 783 450 q 867 404 846 426 q 888 344 888 382 q 847 236 888 286 q 747 145 806 186 q 626 72 689 104 q 521 19 564 40 l 821 19 l 803 -56 l 351 -56 l 367 10 q 428 39 389 21 q 515 81 468 57 q 609 135 561 106 q 696 194 657 164 q 759 257 735 225 q 783 321 783 289 q 771 353 783 342 q 741 372 758 365 q 703 379 724 378 q 669 381 683 381 q 606 376 643 381 q 546 360 569 371 l 532 310 l 439 310 l 463 411 z "},"¾":{"ha":940,"x_min":10,"x_max":1092,"o":"m 10 0 m 1092 829 l 1067 732 l 10 265 l 35 363 l 1092 829 m 839 446 l 760 131 l 832 131 l 813 57 l 742 57 l 714 -56 l 617 -56 l 644 57 l 319 57 l 339 133 l 744 446 l 839 446 m 663 131 l 715 344 l 440 131 l 663 131 m 293 1114 q 398 1149 340 1142 q 508 1157 456 1157 q 570 1155 535 1157 q 638 1142 606 1153 q 692 1112 669 1132 q 715 1054 715 1092 q 688 965 715 1001 q 613 908 660 928 q 669 829 669 886 q 643 734 669 771 q 575 675 617 697 q 483 644 533 653 q 388 636 433 636 q 328 639 361 636 q 267 652 296 642 q 219 683 239 663 q 200 739 200 703 q 203 769 200 754 q 210 799 207 783 l 304 799 q 299 781 301 790 q 297 763 297 771 q 310 733 297 743 q 340 719 322 724 q 376 713 357 714 q 407 713 394 713 q 462 716 433 713 q 515 731 490 719 q 554 763 539 742 q 569 817 569 783 q 544 854 569 843 q 483 869 518 865 q 415 870 449 872 q 367 868 382 868 l 385 940 q 451 939 411 940 q 527 944 490 938 q 590 971 564 951 q 617 1032 617 990 q 603 1062 617 1051 q 570 1076 589 1072 q 532 1081 551 1081 q 500 1082 513 1082 q 435 1078 468 1082 q 374 1063 403 1075 l 361 1011 l 267 1011 l 293 1114 z "},"¿":{"ha":940,"x_min":115,"x_max":903,"o":"m 115 0 m 856 -208 q 765 -256 814 -237 q 663 -285 715 -275 q 558 -300 611 -296 q 456 -304 504 -304 q 343 -298 403 -304 q 233 -271 283 -292 q 149 -210 182 -250 q 115 -100 115 -169 q 145 52 115 -8 q 220 154 175 113 q 321 225 265 196 q 427 283 376 254 q 518 349 478 313 q 574 440 558 385 l 582 469 l 719 469 l 710 431 q 654 324 693 367 q 566 251 615 282 q 465 194 517 221 q 369 135 413 168 q 297 57 325 103 q 269 -60 269 11 q 291 -128 269 -103 q 345 -167 313 -154 q 416 -184 378 -180 q 488 -187 454 -187 q 548 -185 515 -187 q 614 -178 581 -183 q 678 -162 647 -172 q 733 -137 708 -153 l 764 -21 l 903 -21 l 856 -208 m 842 742 q 800 623 842 667 q 683 579 758 579 q 615 595 643 579 q 586 656 586 611 q 628 774 586 728 q 743 819 669 819 q 813 803 783 819 q 842 742 842 788 z "},"À":{"ha":940,"x_min":-22,"x_max":868,"o":"m 0 0 m 765 1092 l 853 0 l 699 0 l 686 214 l 246 214 l 124 0 l -22 0 l 614 1092 l 765 1092 m 313 331 l 679 331 l 644 910 l 313 331 m 672 1361 l 868 1151 l 732 1151 l 490 1361 l 672 1361 z "},"Á":{"ha":940,"x_min":-22,"x_max":1018,"o":"m 0 0 m 765 1092 l 853 0 l 699 0 l 686 214 l 246 214 l 124 0 l -22 0 l 614 1092 l 765 1092 m 313 331 l 679 331 l 644 910 l 313 331 m 1018 1361 l 671 1151 l 535 1151 l 836 1361 l 1018 1361 z "},"Â":{"ha":940,"x_min":-22,"x_max":1063,"o":"m 0 0 m 765 1092 l 853 0 l 699 0 l 686 214 l 246 214 l 124 0 l -22 0 l 614 1092 l 765 1092 m 313 331 l 679 331 l 644 910 l 313 331 m 828 1361 l 1063 1151 l 908 1151 l 735 1289 l 493 1151 l 339 1151 l 679 1361 l 828 1361 z "},"Ã":{"ha":940,"x_min":-22,"x_max":1158,"o":"m 0 0 m 765 1092 l 853 0 l 699 0 l 686 214 l 246 214 l 124 0 l -22 0 l 614 1092 l 765 1092 m 313 331 l 679 331 l 644 910 l 313 331 m 322 1274 q 447 1324 381 1308 q 581 1340 514 1340 q 667 1328 626 1340 q 748 1300 708 1315 q 827 1272 788 1285 q 913 1260 867 1260 q 1042 1282 982 1260 q 1158 1344 1101 1304 l 1132 1235 q 1008 1184 1074 1200 q 875 1168 942 1168 q 786 1181 826 1168 q 706 1208 746 1193 q 627 1236 667 1224 q 542 1249 588 1249 q 411 1226 471 1249 q 294 1164 351 1203 l 322 1274 z "},"Ä":{"ha":940,"x_min":-22,"x_max":1076,"o":"m 0 0 m 765 1092 l 853 0 l 699 0 l 686 214 l 246 214 l 124 0 l -22 0 l 614 1092 l 765 1092 m 313 331 l 679 331 l 644 910 l 313 331 m 851 1231 q 890 1327 851 1293 q 989 1361 929 1361 q 1049 1349 1021 1361 q 1076 1299 1076 1338 q 1039 1202 1076 1236 q 940 1168 1001 1168 q 908 1170 924 1168 q 879 1179 892 1172 q 859 1199 867 1186 q 851 1231 851 1211 m 382 1233 q 421 1328 382 1296 q 519 1361 460 1361 q 578 1349 551 1361 q 606 1299 606 1338 q 569 1202 606 1236 q 471 1168 532 1168 q 409 1181 436 1168 q 382 1233 382 1193 z "},"Å":{"ha":940,"x_min":-22,"x_max":924,"o":"m 0 0 m 765 1092 l 853 0 l 699 0 l 686 214 l 246 214 l 124 0 l -22 0 l 614 1092 l 765 1092 m 313 331 l 679 331 l 644 910 l 313 331 m 521 1200 q 542 1282 521 1250 q 596 1331 563 1314 q 671 1355 629 1349 q 754 1361 713 1361 q 806 1359 776 1361 q 862 1349 836 1357 q 906 1323 888 1340 q 924 1274 924 1306 q 903 1191 924 1222 q 849 1142 882 1160 q 775 1119 817 1125 q 692 1113 733 1113 q 639 1115 668 1113 q 583 1125 610 1117 q 539 1151 557 1133 q 521 1200 521 1168 m 739 1299 q 694 1297 717 1299 q 654 1286 672 1294 q 624 1261 636 1278 q 613 1217 613 1244 q 623 1191 613 1200 q 648 1178 633 1182 q 679 1174 663 1175 q 707 1174 696 1174 q 751 1176 729 1174 q 792 1186 774 1178 q 820 1211 810 1194 q 831 1257 831 1228 q 821 1282 831 1274 q 797 1294 811 1290 q 766 1298 782 1297 q 739 1299 750 1299 z "},"Æ":{"ha":940,"x_min":-51,"x_max":1149,"o":"m 1149 1092 l 1117 964 l 796 964 l 714 632 l 1018 632 l 988 508 l 683 508 l 589 128 l 911 128 l 881 0 l 411 0 l 464 214 l 183 214 l 92 0 l -51 0 l 429 1092 l 1149 1092 m 507 964 l 233 331 l 493 331 l 650 964 l 507 964 z "},"Ç":{"ha":940,"x_min":94,"x_max":1056,"o":"m 94 0 m 997 790 l 853 790 l 892 942 q 844 964 871 956 q 787 977 817 972 q 728 983 757 982 q 675 985 699 985 q 508 949 571 985 q 406 853 444 914 q 346 714 368 793 q 301 547 324 635 q 269 410 285 481 q 254 269 254 340 q 267 188 254 219 q 303 138 279 156 q 363 113 328 119 q 444 107 399 107 q 555 117 507 107 q 640 152 603 128 q 701 218 676 176 q 739 322 725 260 l 878 322 q 815 158 854 224 q 717 52 775 92 q 581 -4 658 13 q 406 -21 503 -21 q 278 -12 336 -21 q 180 24 221 -3 q 117 101 139 51 q 94 229 94 150 q 110 390 94 310 q 146 549 126 471 q 214 782 178 678 q 310 960 250 886 q 463 1073 369 1033 q 703 1113 557 1113 q 791 1110 742 1113 q 889 1097 840 1107 q 982 1067 938 1086 q 1056 1018 1026 1049 l 997 790 m 486 -58 l 331 -304 l 233 -304 l 339 -58 l 486 -58 z "},"È":{"ha":940,"x_min":28,"x_max":1092,"o":"m 28 0 m 1092 1092 l 1061 964 l 422 964 l 340 632 l 957 632 l 926 508 l 310 508 l 214 128 l 856 128 l 824 0 l 28 0 l 299 1092 l 1092 1092 m 672 1361 l 868 1151 l 732 1151 l 490 1361 l 672 1361 z "},"É":{"ha":940,"x_min":28,"x_max":1092,"o":"m 28 0 m 1092 1092 l 1061 964 l 422 964 l 340 632 l 957 632 l 926 508 l 310 508 l 214 128 l 856 128 l 824 0 l 28 0 l 299 1092 l 1092 1092 m 1018 1361 l 671 1151 l 535 1151 l 836 1361 l 1018 1361 z "},"Ê":{"ha":940,"x_min":28,"x_max":1092,"o":"m 28 0 m 1092 1092 l 1061 964 l 422 964 l 340 632 l 957 632 l 926 508 l 310 508 l 214 128 l 856 128 l 824 0 l 28 0 l 299 1092 l 1092 1092 m 828 1361 l 1063 1151 l 908 1151 l 735 1289 l 493 1151 l 339 1151 l 679 1361 l 828 1361 z "},"Ë":{"ha":940,"x_min":28,"x_max":1092,"o":"m 28 0 m 1092 1092 l 1061 964 l 422 964 l 340 632 l 957 632 l 926 508 l 310 508 l 214 128 l 856 128 l 824 0 l 28 0 l 299 1092 l 1092 1092 m 851 1231 q 890 1327 851 1293 q 989 1361 929 1361 q 1049 1349 1021 1361 q 1076 1299 1076 1338 q 1039 1202 1076 1236 q 940 1168 1001 1168 q 908 1170 924 1168 q 879 1179 892 1172 q 859 1199 867 1186 q 851 1231 851 1211 m 382 1233 q 421 1328 382 1296 q 519 1361 460 1361 q 578 1349 551 1361 q 606 1299 606 1338 q 569 1202 606 1236 q 471 1168 532 1168 q 409 1181 436 1168 q 382 1233 382 1193 z "},"Ì":{"ha":940,"x_min":57,"x_max":1042,"o":"m 57 0 m 1042 1092 l 1014 978 l 736 978 l 521 114 l 799 114 l 771 0 l 57 0 l 85 114 l 364 114 l 581 978 l 300 978 l 328 1092 l 1042 1092 m 672 1361 l 868 1151 l 732 1151 l 490 1361 l 672 1361 z "},"Í":{"ha":940,"x_min":57,"x_max":1042,"o":"m 57 0 m 1042 1092 l 1014 978 l 736 978 l 521 114 l 799 114 l 771 0 l 57 0 l 85 114 l 364 114 l 581 978 l 300 978 l 328 1092 l 1042 1092 m 1018 1361 l 671 1151 l 535 1151 l 836 1361 l 1018 1361 z "},"Î":{"ha":940,"x_min":57,"x_max":1063,"o":"m 57 0 m 1042 1092 l 1014 978 l 736 978 l 521 114 l 799 114 l 771 0 l 57 0 l 85 114 l 364 114 l 581 978 l 300 978 l 328 1092 l 1042 1092 m 828 1361 l 1063 1151 l 908 1151 l 735 1289 l 493 1151 l 339 1151 l 679 1361 l 828 1361 z "},"Ï":{"ha":940,"x_min":57,"x_max":1076,"o":"m 57 0 m 1042 1092 l 1014 978 l 736 978 l 521 114 l 799 114 l 771 0 l 57 0 l 85 114 l 364 114 l 581 978 l 300 978 l 328 1092 l 1042 1092 m 851 1231 q 890 1327 851 1293 q 989 1361 929 1361 q 1049 1349 1021 1361 q 1076 1299 1076 1338 q 1039 1202 1076 1236 q 940 1168 1001 1168 q 908 1170 924 1168 q 879 1179 892 1172 q 859 1199 867 1186 q 851 1231 851 1211 m 382 1233 q 421 1328 382 1296 q 519 1361 460 1361 q 578 1349 551 1361 q 606 1299 606 1338 q 569 1202 606 1236 q 471 1168 532 1168 q 409 1181 436 1168 q 382 1233 382 1193 z "},"Ð":{"ha":940,"x_min":28,"x_max":993,"o":"m 675 1092 q 806 1079 747 1092 q 906 1036 864 1067 q 970 954 947 1006 q 993 824 993 903 q 980 683 993 753 q 950 544 967 614 q 883 326 921 426 q 784 154 844 226 q 632 41 724 82 q 404 0 540 0 l 28 0 l 154 508 l 72 508 l 103 632 l 185 632 l 299 1092 l 675 1092 m 335 632 l 597 632 l 568 508 l 304 508 l 210 128 l 435 128 q 589 164 528 128 q 690 259 650 200 q 753 392 729 318 q 797 544 778 467 q 824 663 813 603 q 835 783 835 724 q 787 924 835 883 q 643 964 739 964 l 418 964 l 335 632 z "},"Ñ":{"ha":940,"x_min":15,"x_max":1158,"o":"m 15 0 m 444 1092 l 740 275 l 943 1092 l 1085 1092 l 814 0 l 697 0 l 372 867 l 157 0 l 15 0 l 288 1092 l 444 1092 m 322 1274 q 447 1324 381 1308 q 581 1340 514 1340 q 667 1328 626 1340 q 748 1300 708 1315 q 827 1272 788 1285 q 913 1260 867 1260 q 1042 1282 982 1260 q 1158 1344 1101 1304 l 1132 1235 q 1008 1184 1074 1200 q 875 1168 942 1168 q 786 1181 826 1168 q 706 1208 746 1193 q 627 1236 667 1224 q 542 1249 588 1249 q 411 1226 471 1249 q 294 1164 351 1203 l 322 1274 z "},"Ò":{"ha":940,"x_min":75,"x_max":1019,"o":"m 75 0 m 688 1107 q 810 1105 750 1107 q 916 1085 869 1103 q 991 1025 963 1067 q 1019 904 1019 983 q 1000 723 1019 814 q 958 544 981 632 q 922 399 943 481 q 868 241 901 318 q 787 101 835 164 q 668 13 739 39 q 540 -12 608 -10 q 408 -15 471 -15 q 286 -14 346 -15 q 180 6 226 -12 q 104 65 133 24 q 75 186 75 107 q 94 367 75 276 q 136 544 114 457 q 174 690 153 608 q 228 849 194 772 q 309 989 261 926 q 428 1078 357 1051 q 556 1103 488 1100 q 688 1107 625 1107 m 657 981 q 572 978 617 981 q 490 960 528 976 q 411 888 444 939 q 354 774 378 836 q 315 650 331 713 q 289 544 300 588 q 252 394 269 471 q 235 240 235 317 q 251 163 235 189 q 296 124 268 136 q 361 111 324 113 q 439 110 399 110 q 524 112 479 110 q 607 131 568 114 q 685 201 653 150 q 742 315 718 253 q 781 439 765 376 q 807 544 796 501 q 844 696 826 618 q 863 850 863 774 q 845 928 863 901 q 799 966 828 954 q 734 979 771 978 q 657 981 697 981 m 672 1361 l 868 1151 l 732 1151 l 490 1361 l 672 1361 z "},"Ó":{"ha":940,"x_min":75,"x_max":1019,"o":"m 75 0 m 688 1107 q 810 1105 750 1107 q 916 1085 869 1103 q 991 1025 963 1067 q 1019 904 1019 983 q 1000 723 1019 814 q 958 544 981 632 q 922 399 943 481 q 868 241 901 318 q 787 101 835 164 q 668 13 739 39 q 540 -12 608 -10 q 408 -15 471 -15 q 286 -14 346 -15 q 180 6 226 -12 q 104 65 133 24 q 75 186 75 107 q 94 367 75 276 q 136 544 114 457 q 174 690 153 608 q 228 849 194 772 q 309 989 261 926 q 428 1078 357 1051 q 556 1103 488 1100 q 688 1107 625 1107 m 657 981 q 572 978 617 981 q 490 960 528 976 q 411 888 444 939 q 354 774 378 836 q 315 650 331 713 q 289 544 300 588 q 252 394 269 471 q 235 240 235 317 q 251 163 235 189 q 296 124 268 136 q 361 111 324 113 q 439 110 399 110 q 524 112 479 110 q 607 131 568 114 q 685 201 653 150 q 742 315 718 253 q 781 439 765 376 q 807 544 796 501 q 844 696 826 618 q 863 850 863 774 q 845 928 863 901 q 799 966 828 954 q 734 979 771 978 q 657 981 697 981 m 1018 1361 l 671 1151 l 535 1151 l 836 1361 l 1018 1361 z "},"Ô":{"ha":940,"x_min":75,"x_max":1063,"o":"m 75 0 m 688 1107 q 810 1105 750 1107 q 916 1085 869 1103 q 991 1025 963 1067 q 1019 904 1019 983 q 1000 723 1019 814 q 958 544 981 632 q 922 399 943 481 q 868 241 901 318 q 787 101 835 164 q 668 13 739 39 q 540 -12 608 -10 q 408 -15 471 -15 q 286 -14 346 -15 q 180 6 226 -12 q 104 65 133 24 q 75 186 75 107 q 94 367 75 276 q 136 544 114 457 q 174 690 153 608 q 228 849 194 772 q 309 989 261 926 q 428 1078 357 1051 q 556 1103 488 1100 q 688 1107 625 1107 m 657 981 q 572 978 617 981 q 490 960 528 976 q 411 888 444 939 q 354 774 378 836 q 315 650 331 713 q 289 544 300 588 q 252 394 269 471 q 235 240 235 317 q 251 163 235 189 q 296 124 268 136 q 361 111 324 113 q 439 110 399 110 q 524 112 479 110 q 607 131 568 114 q 685 201 653 150 q 742 315 718 253 q 781 439 765 376 q 807 544 796 501 q 844 696 826 618 q 863 850 863 774 q 845 928 863 901 q 799 966 828 954 q 734 979 771 978 q 657 981 697 981 m 828 1361 l 1063 1151 l 908 1151 l 735 1289 l 493 1151 l 339 1151 l 679 1361 l 828 1361 z "},"Õ":{"ha":940,"x_min":75,"x_max":1158,"o":"m 75 0 m 688 1107 q 810 1105 750 1107 q 916 1085 869 1103 q 991 1025 963 1067 q 1019 904 1019 983 q 1000 723 1019 814 q 958 544 981 632 q 922 399 943 481 q 868 241 901 318 q 787 101 835 164 q 668 13 739 39 q 540 -12 608 -10 q 408 -15 471 -15 q 286 -14 346 -15 q 180 6 226 -12 q 104 65 133 24 q 75 186 75 107 q 94 367 75 276 q 136 544 114 457 q 174 690 153 608 q 228 849 194 772 q 309 989 261 926 q 428 1078 357 1051 q 556 1103 488 1100 q 688 1107 625 1107 m 657 981 q 572 978 617 981 q 490 960 528 976 q 411 888 444 939 q 354 774 378 836 q 315 650 331 713 q 289 544 300 588 q 252 394 269 471 q 235 240 235 317 q 251 163 235 189 q 296 124 268 136 q 361 111 324 113 q 439 110 399 110 q 524 112 479 110 q 607 131 568 114 q 685 201 653 150 q 742 315 718 253 q 781 439 765 376 q 807 544 796 501 q 844 696 826 618 q 863 850 863 774 q 845 928 863 901 q 799 966 828 954 q 734 979 771 978 q 657 981 697 981 m 322 1274 q 447 1324 381 1308 q 581 1340 514 1340 q 667 1328 626 1340 q 748 1300 708 1315 q 827 1272 788 1285 q 913 1260 867 1260 q 1042 1282 982 1260 q 1158 1344 1101 1304 l 1132 1235 q 1008 1184 1074 1200 q 875 1168 942 1168 q 786 1181 826 1168 q 706 1208 746 1193 q 627 1236 667 1224 q 542 1249 588 1249 q 411 1226 471 1249 q 294 1164 351 1203 l 322 1274 z "},"Ö":{"ha":940,"x_min":75,"x_max":1076,"o":"m 75 0 m 688 1107 q 810 1105 750 1107 q 916 1085 869 1103 q 991 1025 963 1067 q 1019 904 1019 983 q 1000 723 1019 814 q 958 544 981 632 q 922 399 943 481 q 868 241 901 318 q 787 101 835 164 q 668 13 739 39 q 540 -12 608 -10 q 408 -15 471 -15 q 286 -14 346 -15 q 180 6 226 -12 q 104 65 133 24 q 75 186 75 107 q 94 367 75 276 q 136 544 114 457 q 174 690 153 608 q 228 849 194 772 q 309 989 261 926 q 428 1078 357 1051 q 556 1103 488 1100 q 688 1107 625 1107 m 657 981 q 572 978 617 981 q 490 960 528 976 q 411 888 444 939 q 354 774 378 836 q 315 650 331 713 q 289 544 300 588 q 252 394 269 471 q 235 240 235 317 q 251 163 235 189 q 296 124 268 136 q 361 111 324 113 q 439 110 399 110 q 524 112 479 110 q 607 131 568 114 q 685 201 653 150 q 742 315 718 253 q 781 439 765 376 q 807 544 796 501 q 844 696 826 618 q 863 850 863 774 q 845 928 863 901 q 799 966 828 954 q 734 979 771 978 q 657 981 697 981 m 851 1231 q 890 1327 851 1293 q 989 1361 929 1361 q 1049 1349 1021 1361 q 1076 1299 1076 1338 q 1039 1202 1076 1236 q 940 1168 1001 1168 q 908 1170 924 1168 q 879 1179 892 1172 q 859 1199 867 1186 q 851 1231 851 1211 m 382 1233 q 421 1328 382 1296 q 519 1361 460 1361 q 578 1349 551 1361 q 606 1299 606 1338 q 569 1202 606 1236 q 471 1168 532 1168 q 409 1181 436 1168 q 382 1233 382 1193 z "},"×":{"ha":940,"x_min":86,"x_max":1014,"o":"m 449 546 l 204 783 l 317 871 l 569 625 l 944 871 l 1014 785 l 650 546 l 894 308 l 782 222 l 529 467 l 156 222 l 86 308 l 449 546 z "},"Ø":{"ha":940,"x_min":-89,"x_max":1190,"o":"m 688 1107 q 751 1106 715 1107 q 822 1103 786 1106 q 890 1092 857 1100 q 949 1069 924 1083 l 1086 1231 l 1190 1231 l 1001 1010 q 1016 958 1013 985 q 1019 903 1019 931 q 1000 722 1019 813 q 958 544 981 632 q 921 397 942 479 q 867 238 900 315 q 783 98 833 160 q 661 11 733 36 q 537 -12 603 -8 q 408 -15 471 -15 q 347 -15 381 -15 q 277 -12 313 -15 q 208 -1 242 -8 q 150 19 175 6 l 14 -139 l -89 -139 l 96 76 q 79 130 83 101 q 75 186 75 158 q 94 367 75 276 q 136 544 114 457 q 174 692 153 610 q 228 853 194 775 q 312 993 263 931 q 435 1081 361 1056 q 559 1103 493 1100 q 688 1107 625 1107 m 657 981 q 569 978 615 981 q 483 957 524 976 q 407 885 439 936 q 352 772 375 833 q 314 649 329 711 q 289 544 299 586 q 252 392 269 469 q 235 238 235 315 l 838 940 q 801 965 824 957 q 753 977 778 974 q 702 981 728 981 q 657 981 676 981 m 439 110 q 526 112 481 110 q 611 133 572 114 q 688 205 656 154 q 742 317 719 256 q 781 441 765 379 q 807 544 796 503 q 844 695 826 618 q 861 847 861 772 l 260 147 q 297 124 274 132 q 344 113 319 115 q 394 110 369 110 q 439 110 419 110 z "},"Ù":{"ha":940,"x_min":85,"x_max":1072,"o":"m 85 0 m 454 1092 l 269 351 q 255 286 261 319 q 249 219 249 253 q 267 155 249 176 q 315 124 286 133 q 378 115 343 115 q 444 114 413 114 q 568 124 519 114 q 649 159 617 133 q 702 231 682 185 q 740 351 722 278 l 924 1092 l 1072 1092 l 890 358 q 827 168 861 242 q 740 54 793 94 q 609 -1 688 14 q 411 -15 531 -15 q 301 -14 358 -15 q 195 3 243 -12 q 116 55 147 18 q 85 161 85 92 q 95 260 85 211 q 117 358 106 310 l 299 1092 l 454 1092 m 672 1361 l 868 1151 l 732 1151 l 490 1361 l 672 1361 z "},"Ú":{"ha":940,"x_min":85,"x_max":1072,"o":"m 85 0 m 454 1092 l 269 351 q 255 286 261 319 q 249 219 249 253 q 267 155 249 176 q 315 124 286 133 q 378 115 343 115 q 444 114 413 114 q 568 124 519 114 q 649 159 617 133 q 702 231 682 185 q 740 351 722 278 l 924 1092 l 1072 1092 l 890 358 q 827 168 861 242 q 740 54 793 94 q 609 -1 688 14 q 411 -15 531 -15 q 301 -14 358 -15 q 195 3 243 -12 q 116 55 147 18 q 85 161 85 92 q 95 260 85 211 q 117 358 106 310 l 299 1092 l 454 1092 m 1018 1361 l 671 1151 l 535 1151 l 836 1361 l 1018 1361 z "},"Û":{"ha":940,"x_min":85,"x_max":1072,"o":"m 85 0 m 454 1092 l 269 351 q 255 286 261 319 q 249 219 249 253 q 267 155 249 176 q 315 124 286 133 q 378 115 343 115 q 444 114 413 114 q 568 124 519 114 q 649 159 617 133 q 702 231 682 185 q 740 351 722 278 l 924 1092 l 1072 1092 l 890 358 q 827 168 861 242 q 740 54 793 94 q 609 -1 688 14 q 411 -15 531 -15 q 301 -14 358 -15 q 195 3 243 -12 q 116 55 147 18 q 85 161 85 92 q 95 260 85 211 q 117 358 106 310 l 299 1092 l 454 1092 m 828 1361 l 1063 1151 l 908 1151 l 735 1289 l 493 1151 l 339 1151 l 679 1361 l 828 1361 z "},"Ü":{"ha":940,"x_min":85,"x_max":1076,"o":"m 85 0 m 454 1092 l 269 351 q 255 286 261 319 q 249 219 249 253 q 267 155 249 176 q 315 124 286 133 q 378 115 343 115 q 444 114 413 114 q 568 124 519 114 q 649 159 617 133 q 702 231 682 185 q 740 351 722 278 l 924 1092 l 1072 1092 l 890 358 q 827 168 861 242 q 740 54 793 94 q 609 -1 688 14 q 411 -15 531 -15 q 301 -14 358 -15 q 195 3 243 -12 q 116 55 147 18 q 85 161 85 92 q 95 260 85 211 q 117 358 106 310 l 299 1092 l 454 1092 m 851 1231 q 890 1327 851 1293 q 989 1361 929 1361 q 1049 1349 1021 1361 q 1076 1299 1076 1338 q 1039 1202 1076 1236 q 940 1168 1001 1168 q 908 1170 924 1168 q 879 1179 892 1172 q 859 1199 867 1186 q 851 1231 851 1211 m 382 1233 q 421 1328 382 1296 q 519 1361 460 1361 q 578 1349 551 1361 q 606 1299 606 1338 q 569 1202 606 1236 q 471 1168 532 1168 q 409 1181 436 1168 q 382 1233 382 1193 z "},"Ý":{"ha":940,"x_min":214,"x_max":1156,"o":"m 214 0 m 388 1092 l 589 699 l 988 1092 l 1156 1092 l 638 583 l 493 0 l 338 0 l 482 583 l 214 1092 l 388 1092 m 1018 1361 l 671 1151 l 535 1151 l 836 1361 l 1018 1361 z "},"Þ":{"ha":940,"x_min":28,"x_max":996,"o":"m 454 1092 l 407 899 l 636 899 q 756 895 692 899 q 872 873 819 892 q 960 814 925 854 q 996 699 996 774 q 988 618 996 658 q 971 538 981 578 q 905 365 944 432 q 813 257 865 297 q 698 199 761 217 q 560 177 635 182 q 402 175 486 172 q 226 178 318 178 l 183 0 l 28 0 l 299 1092 l 454 1092 m 257 301 l 499 301 q 624 310 572 301 q 713 344 676 319 q 774 415 750 369 q 817 535 799 461 q 828 591 824 563 q 833 647 833 619 q 813 719 833 693 q 760 756 792 744 q 689 769 728 767 q 615 771 650 771 l 375 771 l 257 301 z "},"ß":{"ha":940,"x_min":10,"x_max":956,"o":"m 594 999 q 519 996 556 999 q 453 981 483 993 q 399 943 422 968 q 367 875 376 918 l 150 0 l 10 0 l 225 864 q 282 993 244 944 q 372 1068 319 1042 q 489 1103 424 1094 q 629 1111 554 1111 q 725 1108 674 1111 q 819 1088 776 1104 q 891 1038 863 1071 q 919 944 919 1004 q 876 773 919 854 q 756 644 833 692 q 903 590 851 638 q 956 443 956 543 q 950 372 956 407 q 936 303 944 338 q 880 156 914 217 q 796 56 846 96 q 678 -1 746 17 q 524 -19 611 -19 q 460 -17 497 -19 q 383 -8 422 -14 q 307 7 343 -3 q 247 32 271 17 l 276 149 q 328 126 299 135 q 390 111 358 117 q 453 103 422 106 q 511 100 485 100 q 699 149 633 100 q 794 318 765 199 q 806 370 801 344 q 810 424 810 396 q 797 492 810 465 q 760 533 783 518 q 706 554 738 549 q 639 560 675 560 q 569 556 604 560 q 500 549 535 553 l 526 651 q 619 674 579 660 q 689 711 660 688 q 739 771 718 735 q 772 860 760 807 q 779 906 779 885 q 760 960 779 940 q 712 988 740 979 q 651 997 683 996 q 594 999 619 999 z "},"à":{"ha":940,"x_min":69,"x_max":893,"o":"m 69 0 m 69 133 q 101 257 69 207 q 184 340 133 307 q 297 391 235 372 q 418 419 358 410 l 736 471 q 744 501 740 486 q 747 532 747 517 q 728 587 747 567 q 680 617 708 607 q 619 630 651 628 q 561 632 588 632 q 451 624 507 632 q 347 586 396 615 l 326 499 l 194 499 l 228 635 q 310 690 264 668 q 406 726 356 713 q 506 744 456 739 q 606 749 557 749 q 701 744 650 749 q 794 721 751 739 q 865 669 836 703 q 893 578 893 636 q 877 466 893 528 q 842 342 861 404 q 808 223 824 279 q 792 128 792 167 q 799 114 792 118 q 818 109 807 110 q 840 109 829 108 q 858 110 851 110 l 832 0 q 778 -2 811 0 q 715 1 746 -4 q 663 21 685 6 q 640 69 640 36 q 640 78 640 74 q 642 88 640 83 q 556 47 596 65 q 474 15 515 28 q 390 -6 433 1 q 293 -14 346 -14 q 216 -8 256 -14 q 144 13 176 -3 q 90 58 111 29 q 69 133 69 88 m 215 175 q 231 130 215 146 q 272 106 247 114 q 322 97 296 99 q 369 94 349 94 q 446 103 407 94 q 523 127 485 113 q 597 159 561 142 q 667 193 633 176 l 711 374 l 422 325 q 354 310 390 319 q 287 285 318 301 q 235 242 256 268 q 215 175 215 215 m 590 1032 l 786 822 l 650 822 l 408 1032 l 590 1032 z "},"á":{"ha":940,"x_min":69,"x_max":935,"o":"m 69 0 m 69 133 q 101 257 69 207 q 184 340 133 307 q 297 391 235 372 q 418 419 358 410 l 736 471 q 744 501 740 486 q 747 532 747 517 q 728 587 747 567 q 680 617 708 607 q 619 630 651 628 q 561 632 588 632 q 451 624 507 632 q 347 586 396 615 l 326 499 l 194 499 l 228 635 q 310 690 264 668 q 406 726 356 713 q 506 744 456 739 q 606 749 557 749 q 701 744 650 749 q 794 721 751 739 q 865 669 836 703 q 893 578 893 636 q 877 466 893 528 q 842 342 861 404 q 808 223 824 279 q 792 128 792 167 q 799 114 792 118 q 818 109 807 110 q 840 109 829 108 q 858 110 851 110 l 832 0 q 778 -2 811 0 q 715 1 746 -4 q 663 21 685 6 q 640 69 640 36 q 640 78 640 74 q 642 88 640 83 q 556 47 596 65 q 474 15 515 28 q 390 -6 433 1 q 293 -14 346 -14 q 216 -8 256 -14 q 144 13 176 -3 q 90 58 111 29 q 69 133 69 88 m 215 175 q 231 130 215 146 q 272 106 247 114 q 322 97 296 99 q 369 94 349 94 q 446 103 407 94 q 523 127 485 113 q 597 159 561 142 q 667 193 633 176 l 711 374 l 422 325 q 354 310 390 319 q 287 285 318 301 q 235 242 256 268 q 215 175 215 215 m 935 1032 l 588 822 l 451 822 l 753 1032 l 935 1032 z "},"â":{"ha":940,"x_min":69,"x_max":981,"o":"m 69 0 m 69 133 q 101 257 69 207 q 184 340 133 307 q 297 391 235 372 q 418 419 358 410 l 736 471 q 744 501 740 486 q 747 532 747 517 q 728 587 747 567 q 680 617 708 607 q 619 630 651 628 q 561 632 588 632 q 451 624 507 632 q 347 586 396 615 l 326 499 l 194 499 l 228 635 q 310 690 264 668 q 406 726 356 713 q 506 744 456 739 q 606 749 557 749 q 701 744 650 749 q 794 721 751 739 q 865 669 836 703 q 893 578 893 636 q 877 466 893 528 q 842 342 861 404 q 808 223 824 279 q 792 128 792 167 q 799 114 792 118 q 818 109 807 110 q 840 109 829 108 q 858 110 851 110 l 832 0 q 778 -2 811 0 q 715 1 746 -4 q 663 21 685 6 q 640 69 640 36 q 640 78 640 74 q 642 88 640 83 q 556 47 596 65 q 474 15 515 28 q 390 -6 433 1 q 293 -14 346 -14 q 216 -8 256 -14 q 144 13 176 -3 q 90 58 111 29 q 69 133 69 88 m 215 175 q 231 130 215 146 q 272 106 247 114 q 322 97 296 99 q 369 94 349 94 q 446 103 407 94 q 523 127 485 113 q 597 159 561 142 q 667 193 633 176 l 711 374 l 422 325 q 354 310 390 319 q 287 285 318 301 q 235 242 256 268 q 215 175 215 215 m 746 1032 l 981 822 l 826 822 l 653 960 l 411 822 l 257 822 l 597 1032 l 746 1032 z "},"ã":{"ha":940,"x_min":69,"x_max":1076,"o":"m 69 0 m 69 133 q 101 257 69 207 q 184 340 133 307 q 297 391 235 372 q 418 419 358 410 l 736 471 q 744 501 740 486 q 747 532 747 517 q 728 587 747 567 q 680 617 708 607 q 619 630 651 628 q 561 632 588 632 q 451 624 507 632 q 347 586 396 615 l 326 499 l 194 499 l 228 635 q 310 690 264 668 q 406 726 356 713 q 506 744 456 739 q 606 749 557 749 q 701 744 650 749 q 794 721 751 739 q 865 669 836 703 q 893 578 893 636 q 877 466 893 528 q 842 342 861 404 q 808 223 824 279 q 792 128 792 167 q 799 114 792 118 q 818 109 807 110 q 840 109 829 108 q 858 110 851 110 l 832 0 q 778 -2 811 0 q 715 1 746 -4 q 663 21 685 6 q 640 69 640 36 q 640 78 640 74 q 642 88 640 83 q 556 47 596 65 q 474 15 515 28 q 390 -6 433 1 q 293 -14 346 -14 q 216 -8 256 -14 q 144 13 176 -3 q 90 58 111 29 q 69 133 69 88 m 215 175 q 231 130 215 146 q 272 106 247 114 q 322 97 296 99 q 369 94 349 94 q 446 103 407 94 q 523 127 485 113 q 597 159 561 142 q 667 193 633 176 l 711 374 l 422 325 q 354 310 390 319 q 287 285 318 301 q 235 242 256 268 q 215 175 215 215 m 240 944 q 365 995 299 979 q 499 1011 432 1011 q 585 999 544 1011 q 666 971 626 986 q 745 943 706 956 q 831 931 785 931 q 960 953 900 931 q 1076 1015 1019 975 l 1050 906 q 926 855 992 871 q 793 839 860 839 q 704 851 744 839 q 624 879 664 864 q 545 907 585 894 q 460 919 506 919 q 329 897 389 919 q 213 835 269 874 l 240 944 z "},"ä":{"ha":940,"x_min":69,"x_max":994,"o":"m 69 0 m 69 133 q 101 257 69 207 q 184 340 133 307 q 297 391 235 372 q 418 419 358 410 l 736 471 q 744 501 740 486 q 747 532 747 517 q 728 587 747 567 q 680 617 708 607 q 619 630 651 628 q 561 632 588 632 q 451 624 507 632 q 347 586 396 615 l 326 499 l 194 499 l 228 635 q 310 690 264 668 q 406 726 356 713 q 506 744 456 739 q 606 749 557 749 q 701 744 650 749 q 794 721 751 739 q 865 669 836 703 q 893 578 893 636 q 877 466 893 528 q 842 342 861 404 q 808 223 824 279 q 792 128 792 167 q 799 114 792 118 q 818 109 807 110 q 840 109 829 108 q 858 110 851 110 l 832 0 q 778 -2 811 0 q 715 1 746 -4 q 663 21 685 6 q 640 69 640 36 q 640 78 640 74 q 642 88 640 83 q 556 47 596 65 q 474 15 515 28 q 390 -6 433 1 q 293 -14 346 -14 q 216 -8 256 -14 q 144 13 176 -3 q 90 58 111 29 q 69 133 69 88 m 215 175 q 231 130 215 146 q 272 106 247 114 q 322 97 296 99 q 369 94 349 94 q 446 103 407 94 q 523 127 485 113 q 597 159 561 142 q 667 193 633 176 l 711 374 l 422 325 q 354 310 390 319 q 287 285 318 301 q 235 242 256 268 q 215 175 215 215 m 769 901 q 808 998 769 964 q 907 1032 847 1032 q 967 1020 939 1032 q 994 969 994 1008 q 957 873 994 907 q 858 839 919 839 q 826 841 842 839 q 797 850 810 843 q 777 869 785 857 q 769 901 769 882 m 300 904 q 339 999 300 967 q 438 1032 378 1032 q 497 1020 469 1032 q 524 969 524 1008 q 487 873 524 907 q 389 839 450 839 q 327 851 354 839 q 300 904 300 864 z "},"å":{"ha":940,"x_min":69,"x_max":893,"o":"m 69 0 m 69 133 q 101 257 69 207 q 184 340 133 307 q 297 391 235 372 q 418 419 358 410 l 736 471 q 744 501 740 486 q 747 532 747 517 q 728 587 747 567 q 680 617 708 607 q 619 630 651 628 q 561 632 588 632 q 451 624 507 632 q 347 586 396 615 l 326 499 l 194 499 l 228 635 q 310 690 264 668 q 406 726 356 713 q 506 744 456 739 q 606 749 557 749 q 701 744 650 749 q 794 721 751 739 q 865 669 836 703 q 893 578 893 636 q 877 466 893 528 q 842 342 861 404 q 808 223 824 279 q 792 128 792 167 q 799 114 792 118 q 818 109 807 110 q 840 109 829 108 q 858 110 851 110 l 832 0 q 778 -2 811 0 q 715 1 746 -4 q 663 21 685 6 q 640 69 640 36 q 640 78 640 74 q 642 88 640 83 q 556 47 596 65 q 474 15 515 28 q 390 -6 433 1 q 293 -14 346 -14 q 216 -8 256 -14 q 144 13 176 -3 q 90 58 111 29 q 69 133 69 88 m 215 175 q 231 130 215 146 q 272 106 247 114 q 322 97 296 99 q 369 94 349 94 q 446 103 407 94 q 523 127 485 113 q 597 159 561 142 q 667 193 633 176 l 711 374 l 422 325 q 354 310 390 319 q 287 285 318 301 q 235 242 256 268 q 215 175 215 215 m 442 885 q 463 967 442 935 q 517 1016 483 999 q 592 1040 550 1033 q 675 1046 633 1046 q 727 1044 697 1046 q 783 1033 757 1042 q 826 1008 808 1025 q 844 958 844 990 q 824 876 844 907 q 770 827 803 844 q 696 803 738 810 q 613 797 654 797 q 560 799 589 797 q 504 810 531 801 q 460 835 478 818 q 442 885 442 853 m 660 983 q 615 981 638 983 q 575 971 593 979 q 545 946 557 963 q 533 901 533 929 q 544 876 533 885 q 569 863 554 867 q 600 859 583 860 q 628 858 617 858 q 672 860 650 858 q 713 871 694 863 q 741 896 731 879 q 751 942 751 913 q 742 967 751 958 q 717 978 732 975 q 687 983 703 982 q 660 983 671 983 z "},"æ":{"ha":940,"x_min":-8,"x_max":1004,"o":"m -8 115 q 35 282 -8 221 q 146 378 78 343 q 297 430 214 413 q 461 465 381 447 q 483 521 472 493 q 508 576 494 549 q 472 622 499 613 q 413 632 446 632 q 326 622 369 632 q 246 586 282 613 l 225 499 l 108 499 l 143 635 q 281 723 200 697 q 444 749 363 749 q 531 736 488 749 q 597 685 574 724 q 694 734 642 719 q 801 749 746 749 q 884 740 847 749 q 948 712 921 732 q 990 659 975 692 q 1004 578 1004 626 q 999 520 1004 553 q 988 453 994 488 q 970 388 981 419 q 950 333 960 356 l 540 333 q 528 268 533 301 q 522 201 522 235 q 549 119 522 142 q 633 96 575 96 q 747 124 704 96 q 807 221 789 151 l 925 221 q 813 38 897 94 q 603 -19 729 -19 q 538 -14 569 -19 q 479 5 506 -8 q 434 42 453 18 q 407 103 415 65 q 344 58 374 79 q 285 20 315 36 q 222 -5 256 4 q 146 -14 188 -14 q 84 -8 113 -14 q 35 14 56 -1 q 3 54 15 29 q -8 115 -8 79 m 203 94 q 308 123 260 94 q 401 181 356 151 q 406 228 401 203 q 417 278 411 253 q 427 325 422 303 q 432 363 432 347 l 432 367 q 334 344 388 356 q 234 313 281 333 q 156 258 188 293 q 124 163 124 222 q 146 110 124 125 q 203 94 168 94 m 771 633 q 689 617 722 633 q 633 574 656 601 q 594 510 610 546 q 567 432 579 474 l 861 432 q 878 486 872 457 q 885 543 885 515 q 852 615 885 596 q 771 633 819 633 z "},"ç":{"ha":940,"x_min":107,"x_max":933,"o":"m 107 0 m 782 579 q 740 605 765 596 q 688 619 715 614 q 633 626 660 625 q 583 628 606 628 q 459 613 510 628 q 374 567 408 599 q 316 485 339 535 q 276 365 293 435 q 263 301 269 333 q 257 236 257 268 q 272 164 257 190 q 313 123 288 138 q 374 104 339 108 q 446 100 408 100 q 530 105 489 100 q 606 125 571 110 q 665 169 640 140 q 703 244 690 197 l 836 244 q 776 113 817 164 q 680 32 736 61 q 556 -8 624 3 q 411 -19 488 -19 q 297 -12 351 -19 q 199 20 242 -4 q 132 88 157 44 q 107 201 107 131 q 113 283 107 243 q 131 364 119 324 q 194 538 157 465 q 288 657 232 610 q 420 726 343 704 q 604 749 497 749 q 692 744 646 749 q 784 728 739 740 q 868 694 829 717 q 933 635 907 672 l 894 478 l 757 478 l 782 579 m 486 -58 l 331 -304 l 233 -304 l 339 -58 l 486 -58 z "},"è":{"ha":940,"x_min":107,"x_max":903,"o":"m 107 0 m 260 333 q 249 239 249 285 q 264 163 249 192 q 306 120 279 135 q 369 101 333 106 q 444 96 404 96 q 521 100 481 96 q 597 117 561 104 q 660 154 633 129 q 697 221 688 179 l 831 221 l 825 203 q 761 90 804 133 q 661 23 718 47 q 539 -10 604 -1 q 410 -19 474 -19 q 294 -11 349 -19 q 197 22 239 -3 q 131 90 156 46 q 107 204 107 133 q 113 283 107 244 q 129 361 119 322 q 192 534 154 461 q 288 655 231 607 q 423 726 344 703 q 606 749 501 749 q 713 742 660 749 q 808 713 765 735 q 876 651 850 690 q 903 546 903 611 q 899 494 903 522 q 890 438 896 467 q 875 383 883 410 q 858 333 867 356 l 260 333 m 576 633 q 473 622 518 633 q 393 588 428 611 q 333 525 358 564 q 288 432 307 486 l 756 432 q 766 471 763 449 q 769 511 769 493 q 751 576 769 551 q 705 613 733 600 q 642 629 676 625 q 576 633 608 633 m 590 1032 l 786 822 l 650 822 l 408 1032 l 590 1032 z "},"é":{"ha":940,"x_min":107,"x_max":935,"o":"m 107 0 m 260 333 q 249 239 249 285 q 264 163 249 192 q 306 120 279 135 q 369 101 333 106 q 444 96 404 96 q 521 100 481 96 q 597 117 561 104 q 660 154 633 129 q 697 221 688 179 l 831 221 l 825 203 q 761 90 804 133 q 661 23 718 47 q 539 -10 604 -1 q 410 -19 474 -19 q 294 -11 349 -19 q 197 22 239 -3 q 131 90 156 46 q 107 204 107 133 q 113 283 107 244 q 129 361 119 322 q 192 534 154 461 q 288 655 231 607 q 423 726 344 703 q 606 749 501 749 q 713 742 660 749 q 808 713 765 735 q 876 651 850 690 q 903 546 903 611 q 899 494 903 522 q 890 438 896 467 q 875 383 883 410 q 858 333 867 356 l 260 333 m 576 633 q 473 622 518 633 q 393 588 428 611 q 333 525 358 564 q 288 432 307 486 l 756 432 q 766 471 763 449 q 769 511 769 493 q 751 576 769 551 q 705 613 733 600 q 642 629 676 625 q 576 633 608 633 m 935 1032 l 588 822 l 451 822 l 753 1032 l 935 1032 z "},"ê":{"ha":940,"x_min":107,"x_max":981,"o":"m 107 0 m 260 333 q 249 239 249 285 q 264 163 249 192 q 306 120 279 135 q 369 101 333 106 q 444 96 404 96 q 521 100 481 96 q 597 117 561 104 q 660 154 633 129 q 697 221 688 179 l 831 221 l 825 203 q 761 90 804 133 q 661 23 718 47 q 539 -10 604 -1 q 410 -19 474 -19 q 294 -11 349 -19 q 197 22 239 -3 q 131 90 156 46 q 107 204 107 133 q 113 283 107 244 q 129 361 119 322 q 192 534 154 461 q 288 655 231 607 q 423 726 344 703 q 606 749 501 749 q 713 742 660 749 q 808 713 765 735 q 876 651 850 690 q 903 546 903 611 q 899 494 903 522 q 890 438 896 467 q 875 383 883 410 q 858 333 867 356 l 260 333 m 576 633 q 473 622 518 633 q 393 588 428 611 q 333 525 358 564 q 288 432 307 486 l 756 432 q 766 471 763 449 q 769 511 769 493 q 751 576 769 551 q 705 613 733 600 q 642 629 676 625 q 576 633 608 633 m 746 1032 l 981 822 l 826 822 l 653 960 l 411 822 l 257 822 l 597 1032 l 746 1032 z "},"ë":{"ha":940,"x_min":107,"x_max":994,"o":"m 107 0 m 260 333 q 249 239 249 285 q 264 163 249 192 q 306 120 279 135 q 369 101 333 106 q 444 96 404 96 q 521 100 481 96 q 597 117 561 104 q 660 154 633 129 q 697 221 688 179 l 831 221 l 825 203 q 761 90 804 133 q 661 23 718 47 q 539 -10 604 -1 q 410 -19 474 -19 q 294 -11 349 -19 q 197 22 239 -3 q 131 90 156 46 q 107 204 107 133 q 113 283 107 244 q 129 361 119 322 q 192 534 154 461 q 288 655 231 607 q 423 726 344 703 q 606 749 501 749 q 713 742 660 749 q 808 713 765 735 q 876 651 850 690 q 903 546 903 611 q 899 494 903 522 q 890 438 896 467 q 875 383 883 410 q 858 333 867 356 l 260 333 m 576 633 q 473 622 518 633 q 393 588 428 611 q 333 525 358 564 q 288 432 307 486 l 756 432 q 766 471 763 449 q 769 511 769 493 q 751 576 769 551 q 705 613 733 600 q 642 629 676 625 q 576 633 608 633 m 769 901 q 808 998 769 964 q 907 1032 847 1032 q 967 1020 939 1032 q 994 969 994 1008 q 957 873 994 907 q 858 839 919 839 q 826 841 842 839 q 797 850 810 843 q 777 869 785 857 q 769 901 769 882 m 300 904 q 339 999 300 967 q 438 1032 378 1032 q 497 1020 469 1032 q 524 969 524 1008 q 487 873 524 907 q 389 839 450 839 q 327 851 354 839 q 300 904 300 864 z "},"ì":{"ha":940,"x_min":111,"x_max":801,"o":"m 111 0 m 590 1032 l 786 822 l 650 822 l 408 1032 l 590 1032 m 694 729 l 540 108 l 801 108 l 775 0 l 111 0 l 138 108 l 392 108 l 519 619 l 292 619 l 318 729 l 694 729 z "},"í":{"ha":940,"x_min":111,"x_max":935,"o":"m 111 0 m 935 1032 l 588 822 l 451 822 l 753 1032 l 935 1032 m 694 729 l 540 108 l 801 108 l 775 0 l 111 0 l 138 108 l 392 108 l 519 619 l 292 619 l 318 729 l 694 729 z "},"î":{"ha":940,"x_min":111,"x_max":981,"o":"m 111 0 m 694 729 l 540 108 l 801 108 l 775 0 l 111 0 l 138 108 l 392 108 l 519 619 l 292 619 l 318 729 l 694 729 m 746 1032 l 981 822 l 826 822 l 653 960 l 411 822 l 257 822 l 597 1032 l 746 1032 z "},"ï":{"ha":940,"x_min":111,"x_max":994,"o":"m 111 0 m 769 901 q 808 998 769 964 q 907 1032 847 1032 q 967 1020 939 1032 q 994 969 994 1008 q 957 873 994 907 q 858 839 919 839 q 826 841 842 839 q 797 850 810 843 q 777 869 785 857 q 769 901 769 882 m 300 904 q 339 999 300 967 q 438 1032 378 1032 q 497 1020 469 1032 q 524 969 524 1008 q 487 873 524 907 q 389 839 450 839 q 327 851 354 839 q 300 904 300 864 m 694 729 l 540 108 l 801 108 l 775 0 l 111 0 l 138 108 l 392 108 l 519 619 l 292 619 l 318 729 l 694 729 z "},"ð":{"ha":940,"x_min":103,"x_max":1085,"o":"m 661 954 q 618 1026 642 992 q 567 1092 594 1060 l 722 1092 q 794 994 763 1047 l 1071 1079 l 1085 1013 l 829 933 q 890 760 869 850 q 910 578 910 669 q 902 463 910 519 q 881 351 894 407 q 818 181 856 251 q 724 65 781 110 q 592 1 668 21 q 411 -19 515 -19 q 298 -12 353 -19 q 199 16 243 -6 q 129 79 156 38 q 103 192 103 121 q 109 268 103 231 q 125 343 115 306 q 176 492 146 426 q 253 603 207 558 q 364 673 299 649 q 519 697 429 697 q 642 685 582 697 q 757 644 703 674 q 692 892 743 771 l 361 792 l 350 860 l 661 954 m 451 100 q 606 135 546 100 q 699 227 665 169 q 747 360 733 285 q 763 518 760 436 q 642 569 706 554 q 513 585 579 585 q 411 567 451 585 q 344 519 371 550 q 301 443 318 488 q 271 344 285 399 q 258 285 264 315 q 253 224 253 254 q 271 154 253 179 q 317 117 289 129 q 380 103 344 106 q 451 100 415 100 z "},"ñ":{"ha":940,"x_min":58,"x_max":1076,"o":"m 58 0 m 381 729 l 350 610 q 515 711 421 681 q 707 742 610 742 q 788 735 750 742 q 853 711 825 729 q 897 662 881 693 q 913 581 913 631 q 908 521 913 550 q 896 463 903 492 l 781 0 l 633 0 l 746 456 q 753 491 750 474 q 756 526 756 508 q 744 575 756 557 q 715 603 733 593 q 674 615 697 613 q 625 618 650 618 q 464 590 539 618 q 331 499 389 563 l 207 0 l 58 0 l 240 729 l 381 729 m 240 944 q 365 995 299 979 q 499 1011 432 1011 q 585 999 544 1011 q 666 971 626 986 q 745 943 706 956 q 831 931 785 931 q 960 953 900 931 q 1076 1015 1019 975 l 1050 906 q 926 855 992 871 q 793 839 860 839 q 704 851 744 839 q 624 879 664 864 q 545 907 585 894 q 460 919 506 919 q 329 897 389 919 q 213 835 269 874 l 240 944 z "},"ò":{"ha":940,"x_min":107,"x_max":907,"o":"m 107 0 m 603 749 q 718 740 663 749 q 815 708 774 732 q 882 641 857 685 q 907 526 907 597 q 901 445 907 486 q 883 364 894 404 q 821 191 858 264 q 727 72 783 118 q 593 3 671 25 q 411 -19 515 -19 q 297 -12 351 -19 q 199 20 242 -4 q 132 88 157 44 q 107 201 107 131 q 114 283 107 242 q 131 364 121 324 q 193 537 156 464 q 287 657 231 610 q 420 726 343 704 q 603 749 497 749 m 572 628 q 452 611 501 628 q 369 561 403 594 q 313 478 335 528 q 275 364 292 429 q 262 301 268 332 q 256 238 256 269 q 270 166 256 193 q 310 124 285 139 q 369 105 335 110 q 440 100 403 100 q 562 116 513 100 q 644 165 611 132 q 699 248 678 199 q 738 364 721 297 q 751 427 744 396 q 757 490 757 458 q 742 562 757 535 q 703 603 728 589 q 644 623 678 618 q 572 628 611 628 m 590 1032 l 786 822 l 650 822 l 408 1032 l 590 1032 z "},"ó":{"ha":940,"x_min":107,"x_max":935,"o":"m 107 0 m 603 749 q 718 740 663 749 q 815 708 774 732 q 882 641 857 685 q 907 526 907 597 q 901 445 907 486 q 883 364 894 404 q 821 191 858 264 q 727 72 783 118 q 593 3 671 25 q 411 -19 515 -19 q 297 -12 351 -19 q 199 20 242 -4 q 132 88 157 44 q 107 201 107 131 q 114 283 107 242 q 131 364 121 324 q 193 537 156 464 q 287 657 231 610 q 420 726 343 704 q 603 749 497 749 m 572 628 q 452 611 501 628 q 369 561 403 594 q 313 478 335 528 q 275 364 292 429 q 262 301 268 332 q 256 238 256 269 q 270 166 256 193 q 310 124 285 139 q 369 105 335 110 q 440 100 403 100 q 562 116 513 100 q 644 165 611 132 q 699 248 678 199 q 738 364 721 297 q 751 427 744 396 q 757 490 757 458 q 742 562 757 535 q 703 603 728 589 q 644 623 678 618 q 572 628 611 628 m 935 1032 l 588 822 l 451 822 l 753 1032 l 935 1032 z "},"ô":{"ha":940,"x_min":107,"x_max":981,"o":"m 107 0 m 603 749 q 718 740 663 749 q 815 708 774 732 q 882 641 857 685 q 907 526 907 597 q 901 445 907 486 q 883 364 894 404 q 821 191 858 264 q 727 72 783 118 q 593 3 671 25 q 411 -19 515 -19 q 297 -12 351 -19 q 199 20 242 -4 q 132 88 157 44 q 107 201 107 131 q 114 283 107 242 q 131 364 121 324 q 193 537 156 464 q 287 657 231 610 q 420 726 343 704 q 603 749 497 749 m 572 628 q 452 611 501 628 q 369 561 403 594 q 313 478 335 528 q 275 364 292 429 q 262 301 268 332 q 256 238 256 269 q 270 166 256 193 q 310 124 285 139 q 369 105 335 110 q 440 100 403 100 q 562 116 513 100 q 644 165 611 132 q 699 248 678 199 q 738 364 721 297 q 751 427 744 396 q 757 490 757 458 q 742 562 757 535 q 703 603 728 589 q 644 623 678 618 q 572 628 611 628 m 746 1032 l 981 822 l 826 822 l 653 960 l 411 822 l 257 822 l 597 1032 l 746 1032 z "},"õ":{"ha":940,"x_min":107,"x_max":1076,"o":"m 107 0 m 603 749 q 718 740 663 749 q 815 708 774 732 q 882 641 857 685 q 907 526 907 597 q 901 445 907 486 q 883 364 894 404 q 821 191 858 264 q 727 72 783 118 q 593 3 671 25 q 411 -19 515 -19 q 297 -12 351 -19 q 199 20 242 -4 q 132 88 157 44 q 107 201 107 131 q 114 283 107 242 q 131 364 121 324 q 193 537 156 464 q 287 657 231 610 q 420 726 343 704 q 603 749 497 749 m 572 628 q 452 611 501 628 q 369 561 403 594 q 313 478 335 528 q 275 364 292 429 q 262 301 268 332 q 256 238 256 269 q 270 166 256 193 q 310 124 285 139 q 369 105 335 110 q 440 100 403 100 q 562 116 513 100 q 644 165 611 132 q 699 248 678 199 q 738 364 721 297 q 751 427 744 396 q 757 490 757 458 q 742 562 757 535 q 703 603 728 589 q 644 623 678 618 q 572 628 611 628 m 240 944 q 365 995 299 979 q 499 1011 432 1011 q 585 999 544 1011 q 666 971 626 986 q 745 943 706 956 q 831 931 785 931 q 960 953 900 931 q 1076 1015 1019 975 l 1050 906 q 926 855 992 871 q 793 839 860 839 q 704 851 744 839 q 624 879 664 864 q 545 907 585 894 q 460 919 506 919 q 329 897 389 919 q 213 835 269 874 l 240 944 z "},"ö":{"ha":940,"x_min":107,"x_max":994,"o":"m 107 0 m 603 749 q 718 740 663 749 q 815 708 774 732 q 882 641 857 685 q 907 526 907 597 q 901 445 907 486 q 883 364 894 404 q 821 191 858 264 q 727 72 783 118 q 593 3 671 25 q 411 -19 515 -19 q 297 -12 351 -19 q 199 20 242 -4 q 132 88 157 44 q 107 201 107 131 q 114 283 107 242 q 131 364 121 324 q 193 537 156 464 q 287 657 231 610 q 420 726 343 704 q 603 749 497 749 m 572 628 q 452 611 501 628 q 369 561 403 594 q 313 478 335 528 q 275 364 292 429 q 262 301 268 332 q 256 238 256 269 q 270 166 256 193 q 310 124 285 139 q 369 105 335 110 q 440 100 403 100 q 562 116 513 100 q 644 165 611 132 q 699 248 678 199 q 738 364 721 297 q 751 427 744 396 q 757 490 757 458 q 742 562 757 535 q 703 603 728 589 q 644 623 678 618 q 572 628 611 628 m 769 901 q 808 998 769 964 q 907 1032 847 1032 q 967 1020 939 1032 q 994 969 994 1008 q 957 873 994 907 q 858 839 919 839 q 826 841 842 839 q 797 850 810 843 q 777 869 785 857 q 769 901 769 882 m 300 904 q 339 999 300 967 q 438 1032 378 1032 q 497 1020 469 1032 q 524 969 524 1008 q 487 873 524 907 q 389 839 450 839 q 327 851 354 839 q 300 904 300 864 z "},"÷":{"ha":940,"x_min":111,"x_max":985,"o":"m 111 171 m 985 606 l 956 486 l 111 486 l 142 606 l 985 606 m 371 236 q 410 331 371 299 q 507 364 449 364 q 567 351 540 364 q 594 300 594 339 q 557 205 594 239 q 460 171 519 171 q 398 183 425 171 q 371 236 371 196 m 513 808 q 551 903 513 871 q 649 936 590 936 q 709 924 682 936 q 736 872 736 911 q 699 777 736 811 q 601 743 661 743 q 540 756 567 743 q 513 808 513 768 z "},"ø":{"ha":940,"x_min":-86,"x_max":1099,"o":"m 603 749 q 715 741 657 749 q 821 704 772 733 l 989 858 l 1099 858 l 875 653 q 899 592 893 625 q 906 525 906 558 q 899 444 906 485 q 883 364 893 404 q 821 192 858 264 q 727 72 783 119 q 593 3 671 25 q 411 -19 515 -19 q 299 -12 357 -19 q 192 24 240 -4 l 24 -131 l -86 -131 l 138 75 q 113 135 119 103 q 106 199 106 167 q 113 282 106 240 q 131 364 119 324 q 193 537 156 464 q 286 657 231 610 q 419 726 342 704 q 603 749 497 749 m 440 100 q 562 116 513 100 q 644 165 611 132 q 699 248 678 199 q 738 364 721 297 q 751 428 744 396 q 757 492 757 460 q 756 515 757 503 q 751 539 754 528 l 304 126 q 370 103 333 107 q 440 100 407 100 m 572 628 q 452 611 501 628 q 369 561 403 594 q 313 478 335 528 q 275 364 292 429 q 261 300 267 332 q 256 236 256 268 q 261 189 256 210 l 708 600 q 642 624 679 619 q 572 628 606 628 z "},"ù":{"ha":940,"x_min":97,"x_max":953,"o":"m 97 0 m 379 729 l 265 274 q 258 238 261 256 q 254 200 254 219 q 265 151 254 169 q 294 124 276 133 q 336 113 313 115 q 385 110 360 110 q 545 138 471 110 q 681 229 619 167 l 804 729 l 953 729 l 771 0 l 631 0 l 660 118 q 495 17 589 47 q 304 -12 401 -12 q 224 -6 261 -12 q 158 17 186 0 q 113 65 129 35 q 97 146 97 96 q 103 207 97 178 q 115 267 108 236 l 231 729 l 379 729 m 590 1032 l 786 822 l 650 822 l 408 1032 l 590 1032 z "},"ú":{"ha":940,"x_min":97,"x_max":953,"o":"m 97 0 m 379 729 l 265 274 q 258 238 261 256 q 254 200 254 219 q 265 151 254 169 q 294 124 276 133 q 336 113 313 115 q 385 110 360 110 q 545 138 471 110 q 681 229 619 167 l 804 729 l 953 729 l 771 0 l 631 0 l 660 118 q 495 17 589 47 q 304 -12 401 -12 q 224 -6 261 -12 q 158 17 186 0 q 113 65 129 35 q 97 146 97 96 q 103 207 97 178 q 115 267 108 236 l 231 729 l 379 729 m 935 1032 l 588 822 l 451 822 l 753 1032 l 935 1032 z "},"û":{"ha":940,"x_min":97,"x_max":981,"o":"m 97 0 m 379 729 l 265 274 q 258 238 261 256 q 254 200 254 219 q 265 151 254 169 q 294 124 276 133 q 336 113 313 115 q 385 110 360 110 q 545 138 471 110 q 681 229 619 167 l 804 729 l 953 729 l 771 0 l 631 0 l 660 118 q 495 17 589 47 q 304 -12 401 -12 q 224 -6 261 -12 q 158 17 186 0 q 113 65 129 35 q 97 146 97 96 q 103 207 97 178 q 115 267 108 236 l 231 729 l 379 729 m 746 1032 l 981 822 l 826 822 l 653 960 l 411 822 l 257 822 l 597 1032 l 746 1032 z "},"ü":{"ha":940,"x_min":97,"x_max":994,"o":"m 97 0 m 379 729 l 265 274 q 258 238 261 256 q 254 200 254 219 q 265 151 254 169 q 294 124 276 133 q 336 113 313 115 q 385 110 360 110 q 545 138 471 110 q 681 229 619 167 l 804 729 l 953 729 l 771 0 l 631 0 l 660 118 q 495 17 589 47 q 304 -12 401 -12 q 224 -6 261 -12 q 158 17 186 0 q 113 65 129 35 q 97 146 97 96 q 103 207 97 178 q 115 267 108 236 l 231 729 l 379 729 m 769 901 q 808 998 769 964 q 907 1032 847 1032 q 967 1020 939 1032 q 994 969 994 1008 q 957 873 994 907 q 858 839 919 839 q 826 841 842 839 q 797 850 810 843 q 777 869 785 857 q 769 901 769 882 m 300 904 q 339 999 300 967 q 438 1032 378 1032 q 497 1020 469 1032 q 524 969 524 1008 q 487 873 524 907 q 389 839 450 839 q 327 851 354 839 q 300 904 300 864 z "},"ý":{"ha":940,"x_min":-29,"x_max":1033,"o":"m 0 0 m 317 729 l 465 269 l 876 729 l 1033 729 l 129 -283 l -29 -283 l 360 151 l 158 729 l 317 729 m 918 1032 l 571 822 l 435 822 l 736 1032 l 918 1032 z "},"þ":{"ha":940,"x_min":-12,"x_max":915,"o":"m 478 1092 l 361 624 q 512 714 424 686 q 686 742 600 742 q 783 733 740 742 q 854 701 825 724 q 899 639 883 678 q 915 542 915 600 q 908 452 915 497 q 890 363 901 407 q 839 208 868 278 q 765 90 810 139 q 654 13 719 40 q 494 -14 589 -14 q 424 -9 463 -14 q 348 8 385 -4 q 280 42 311 21 q 231 93 249 63 l 136 -283 l -12 -283 l 329 1092 l 478 1092 m 261 222 q 349 129 292 156 q 476 103 406 103 q 585 122 540 103 q 660 176 629 142 q 710 259 690 211 q 744 364 729 307 q 757 425 751 394 q 763 488 763 456 q 752 554 763 528 q 722 596 742 581 q 672 617 701 611 q 607 624 643 624 q 332 504 444 624 l 261 222 z "},"ÿ":{"ha":940,"x_min":-29,"x_max":1033,"o":"m 0 0 m 317 729 l 465 269 l 876 729 l 1033 729 l 129 -283 l -29 -283 l 360 151 l 158 729 l 317 729 m 753 901 q 792 998 753 964 q 890 1032 831 1032 q 950 1020 922 1032 q 978 969 978 1008 q 940 873 978 907 q 842 839 903 839 q 809 841 825 839 q 781 850 793 843 q 760 869 768 857 q 753 901 753 882 m 283 904 q 322 999 283 967 q 421 1032 361 1032 q 480 1020 453 1032 q 507 969 507 1008 q 470 873 507 907 q 372 839 433 839 q 310 851 338 839 q 283 904 283 864 z "},"Ā":{"ha":940,"x_min":-22,"x_max":1157,"o":"m 0 0 m 765 1092 l 853 0 l 699 0 l 686 214 l 246 214 l 124 0 l -22 0 l 614 1092 l 765 1092 m 313 331 l 679 331 l 644 910 l 313 331 m 1157 1339 l 1133 1243 l 314 1243 l 338 1339 l 1157 1339 z "},"ā":{"ha":940,"x_min":69,"x_max":1075,"o":"m 69 0 m 69 133 q 101 257 69 207 q 184 340 133 307 q 297 391 235 372 q 418 419 358 410 l 736 471 q 744 501 740 486 q 747 532 747 517 q 728 587 747 567 q 680 617 708 607 q 619 630 651 628 q 561 632 588 632 q 451 624 507 632 q 347 586 396 615 l 326 499 l 194 499 l 228 635 q 310 690 264 668 q 406 726 356 713 q 506 744 456 739 q 606 749 557 749 q 701 744 650 749 q 794 721 751 739 q 865 669 836 703 q 893 578 893 636 q 877 466 893 528 q 842 342 861 404 q 808 223 824 279 q 792 128 792 167 q 799 114 792 118 q 818 109 807 110 q 840 109 829 108 q 858 110 851 110 l 832 0 q 778 -2 811 0 q 715 1 746 -4 q 663 21 685 6 q 640 69 640 36 q 640 78 640 74 q 642 88 640 83 q 556 47 596 65 q 474 15 515 28 q 390 -6 433 1 q 293 -14 346 -14 q 216 -8 256 -14 q 144 13 176 -3 q 90 58 111 29 q 69 133 69 88 m 215 175 q 231 130 215 146 q 272 106 247 114 q 322 97 296 99 q 369 94 349 94 q 446 103 407 94 q 523 127 485 113 q 597 159 561 142 q 667 193 633 176 l 711 374 l 422 325 q 354 310 390 319 q 287 285 318 301 q 235 242 256 268 q 215 175 215 215 m 1075 1010 l 1051 914 l 232 914 l 256 1010 l 1075 1010 z "},"Ă":{"ha":940,"x_min":-22,"x_max":1132,"o":"m 0 0 m 765 1092 l 853 0 l 699 0 l 686 214 l 246 214 l 124 0 l -22 0 l 614 1092 l 765 1092 m 313 331 l 679 331 l 644 910 l 313 331 m 500 1361 q 494 1324 494 1344 q 520 1264 494 1285 q 581 1234 546 1243 q 655 1224 617 1225 q 719 1222 693 1222 q 807 1226 761 1222 q 892 1243 853 1229 q 963 1285 932 1257 q 1007 1361 994 1313 l 1132 1361 q 1067 1249 1114 1290 q 960 1185 1021 1207 q 831 1158 899 1164 q 701 1151 763 1151 q 604 1154 661 1151 q 494 1172 547 1157 q 405 1219 442 1188 q 368 1308 368 1250 q 375 1361 368 1333 l 500 1361 z "},"ă":{"ha":940,"x_min":69,"x_max":1050,"o":"m 69 0 m 69 133 q 101 257 69 207 q 184 340 133 307 q 297 391 235 372 q 418 419 358 410 l 736 471 q 744 501 740 486 q 747 532 747 517 q 728 587 747 567 q 680 617 708 607 q 619 630 651 628 q 561 632 588 632 q 451 624 507 632 q 347 586 396 615 l 326 499 l 194 499 l 228 635 q 310 690 264 668 q 406 726 356 713 q 506 744 456 739 q 606 749 557 749 q 701 744 650 749 q 794 721 751 739 q 865 669 836 703 q 893 578 893 636 q 877 466 893 528 q 842 342 861 404 q 808 223 824 279 q 792 128 792 167 q 799 114 792 118 q 818 109 807 110 q 840 109 829 108 q 858 110 851 110 l 832 0 q 778 -2 811 0 q 715 1 746 -4 q 663 21 685 6 q 640 69 640 36 q 640 78 640 74 q 642 88 640 83 q 556 47 596 65 q 474 15 515 28 q 390 -6 433 1 q 293 -14 346 -14 q 216 -8 256 -14 q 144 13 176 -3 q 90 58 111 29 q 69 133 69 88 m 215 175 q 231 130 215 146 q 272 106 247 114 q 322 97 296 99 q 369 94 349 94 q 446 103 407 94 q 523 127 485 113 q 597 159 561 142 q 667 193 633 176 l 711 374 l 422 325 q 354 310 390 319 q 287 285 318 301 q 235 242 256 268 q 215 175 215 215 m 418 1032 q 413 994 413 1015 q 438 935 413 956 q 499 905 464 914 q 573 894 535 896 q 638 893 611 893 q 725 897 679 893 q 810 914 771 900 q 881 956 850 928 q 925 1032 913 983 l 1050 1032 q 985 919 1032 961 q 878 856 939 878 q 749 828 817 835 q 619 822 681 822 q 522 825 579 822 q 413 843 465 828 q 323 890 360 858 q 286 979 286 921 q 293 1032 286 1004 l 418 1032 z "},"Ą":{"ha":940,"x_min":-22,"x_max":853,"o":"m 699 0 l 686 214 l 246 214 l 124 0 l -22 0 l 614 1092 l 765 1092 l 853 0 q 813 -4 846 1 q 733 -20 779 -10 q 635 -46 686 -31 q 540 -78 583 -61 q 467 -116 496 -96 q 439 -157 439 -136 q 454 -178 439 -171 q 490 -189 469 -186 q 529 -192 510 -192 q 557 -193 549 -193 q 691 -178 629 -193 q 818 -132 753 -164 l 789 -249 q 725 -274 760 -264 q 653 -292 690 -285 q 578 -301 615 -299 q 510 -304 542 -304 q 453 -302 486 -304 q 388 -290 419 -300 q 335 -262 357 -281 q 313 -210 313 -243 q 338 -145 313 -174 q 404 -94 364 -117 q 494 -56 444 -72 q 592 -29 544 -40 q 682 -11 640 -18 q 749 0 724 -4 l 699 0 m 313 331 l 679 331 l 644 910 l 313 331 z "},"ą":{"ha":940,"x_min":69,"x_max":893,"o":"m 69 133 q 101 256 69 206 q 184 340 133 307 q 297 391 235 372 q 418 419 358 410 l 736 471 q 744 501 740 486 q 747 532 747 517 q 728 587 747 567 q 680 617 708 607 q 619 630 651 628 q 561 632 588 632 q 451 624 507 632 q 347 586 396 615 l 326 499 l 194 499 l 228 635 q 310 690 264 668 q 406 726 356 713 q 506 744 456 739 q 606 749 557 749 q 701 744 650 749 q 794 721 751 739 q 865 669 836 703 q 893 578 893 636 q 877 467 893 529 q 842 342 861 404 q 808 222 824 279 q 792 128 792 165 q 799 114 792 118 q 818 109 807 110 q 840 109 829 108 q 858 110 851 110 l 832 0 q 792 -4 825 1 q 713 -20 758 -10 q 615 -45 667 -31 q 519 -78 563 -60 q 447 -116 475 -96 q 418 -157 418 -136 q 433 -178 418 -171 q 469 -189 449 -186 q 508 -192 489 -192 q 536 -193 528 -193 q 670 -178 608 -193 q 797 -132 732 -164 l 768 -249 q 704 -274 739 -264 q 632 -292 669 -285 q 558 -301 594 -299 q 489 -304 521 -304 q 432 -302 465 -304 q 367 -290 399 -300 q 314 -262 336 -281 q 292 -210 292 -243 q 317 -145 292 -174 q 383 -95 343 -117 q 474 -57 424 -74 q 572 -29 524 -40 q 661 -11 619 -18 q 728 0 703 -4 l 731 0 q 668 15 696 1 q 640 69 640 29 q 640 78 640 74 q 642 88 640 83 q 556 47 596 65 q 474 15 515 28 q 390 -6 433 1 q 293 -14 346 -14 q 216 -8 256 -14 q 144 13 176 -3 q 90 58 111 29 q 69 133 69 88 m 360 94 q 519 126 442 94 q 667 193 596 157 l 711 374 l 422 325 q 354 310 390 319 q 287 285 318 301 q 235 242 256 268 q 215 175 215 215 q 231 131 215 147 q 267 107 246 115 q 314 97 289 99 q 360 94 339 94 z "},"Ć":{"ha":940,"x_min":94,"x_max":1056,"o":"m 94 0 m 997 790 l 853 790 l 892 942 q 844 964 871 956 q 787 977 817 972 q 728 983 757 982 q 675 985 699 985 q 508 949 571 985 q 406 853 444 914 q 346 714 368 793 q 301 547 324 635 q 269 410 285 481 q 254 269 254 340 q 267 188 254 219 q 303 138 279 156 q 363 113 328 119 q 444 107 399 107 q 555 117 507 107 q 640 152 603 128 q 701 218 676 176 q 739 322 725 260 l 878 322 q 815 158 854 224 q 717 52 775 92 q 581 -4 658 13 q 406 -21 503 -21 q 278 -12 336 -21 q 180 24 221 -3 q 117 101 139 51 q 94 229 94 150 q 110 390 94 310 q 146 549 126 471 q 214 782 178 678 q 310 960 250 886 q 463 1073 369 1033 q 703 1113 557 1113 q 791 1110 742 1113 q 889 1097 840 1107 q 982 1067 938 1086 q 1056 1018 1026 1049 l 997 790 m 1018 1361 l 671 1151 l 535 1151 l 836 1361 l 1018 1361 z "},"ć":{"ha":940,"x_min":107,"x_max":935,"o":"m 107 0 m 782 579 q 740 605 765 596 q 688 619 715 614 q 633 626 660 625 q 583 628 606 628 q 459 613 510 628 q 374 567 408 599 q 316 485 339 535 q 276 365 293 435 q 263 301 269 333 q 257 236 257 268 q 272 164 257 190 q 313 123 288 138 q 374 104 339 108 q 446 100 408 100 q 530 105 489 100 q 606 125 571 110 q 665 169 640 140 q 703 244 690 197 l 836 244 q 776 113 817 164 q 680 32 736 61 q 556 -8 624 3 q 411 -19 488 -19 q 297 -12 351 -19 q 199 20 242 -4 q 132 88 157 44 q 107 201 107 131 q 113 283 107 243 q 131 364 119 324 q 194 538 157 465 q 288 657 232 610 q 420 726 343 704 q 604 749 497 749 q 692 744 646 749 q 784 728 739 740 q 868 694 829 717 q 933 635 907 672 l 894 478 l 757 478 l 782 579 m 935 1032 l 588 822 l 451 822 l 753 1032 l 935 1032 z "},"Ċ":{"ha":940,"x_min":94,"x_max":1056,"o":"m 94 0 m 997 790 l 853 790 l 892 942 q 844 964 871 956 q 787 977 817 972 q 728 983 757 982 q 675 985 699 985 q 508 949 571 985 q 406 853 444 914 q 346 714 368 793 q 301 547 324 635 q 269 410 285 481 q 254 269 254 340 q 267 188 254 219 q 303 138 279 156 q 363 113 328 119 q 444 107 399 107 q 555 117 507 107 q 640 152 603 128 q 701 218 676 176 q 739 322 725 260 l 878 322 q 815 158 854 224 q 717 52 775 92 q 581 -4 658 13 q 406 -21 503 -21 q 278 -12 336 -21 q 180 24 221 -3 q 117 101 139 51 q 94 229 94 150 q 110 390 94 310 q 146 549 126 471 q 214 782 178 678 q 310 960 250 886 q 463 1073 369 1033 q 703 1113 557 1113 q 791 1110 742 1113 q 889 1097 840 1107 q 982 1067 938 1086 q 1056 1018 1026 1049 l 997 790 m 618 1233 q 657 1328 618 1296 q 754 1361 696 1361 q 815 1349 788 1361 q 842 1297 842 1336 q 804 1202 842 1236 q 707 1168 767 1168 q 645 1181 672 1168 q 618 1233 618 1193 z "},"ċ":{"ha":940,"x_min":107,"x_max":933,"o":"m 107 0 m 782 579 q 740 605 765 596 q 688 619 715 614 q 633 626 660 625 q 583 628 606 628 q 459 613 510 628 q 374 567 408 599 q 316 485 339 535 q 276 365 293 435 q 263 301 269 333 q 257 236 257 268 q 272 164 257 190 q 313 123 288 138 q 374 104 339 108 q 446 100 408 100 q 530 105 489 100 q 606 125 571 110 q 665 169 640 140 q 703 244 690 197 l 836 244 q 776 113 817 164 q 680 32 736 61 q 556 -8 624 3 q 411 -19 488 -19 q 297 -12 351 -19 q 199 20 242 -4 q 132 88 157 44 q 107 201 107 131 q 113 283 107 243 q 131 364 119 324 q 194 538 157 465 q 288 657 232 610 q 420 726 343 704 q 604 749 497 749 q 692 744 646 749 q 784 728 739 740 q 868 694 829 717 q 933 635 907 672 l 894 478 l 757 478 l 782 579 m 536 904 q 575 999 536 967 q 672 1032 614 1032 q 733 1019 706 1032 q 760 968 760 1007 q 722 873 760 907 q 625 839 685 839 q 563 851 590 839 q 536 904 536 864 z "},"Č":{"ha":940,"x_min":94,"x_max":1115,"o":"m 94 0 m 997 790 l 853 790 l 892 942 q 844 964 871 956 q 787 977 817 972 q 728 983 757 982 q 675 985 699 985 q 508 949 571 985 q 406 853 444 914 q 346 714 368 793 q 301 547 324 635 q 269 410 285 481 q 254 269 254 340 q 267 188 254 219 q 303 138 279 156 q 363 113 328 119 q 444 107 399 107 q 555 117 507 107 q 640 152 603 128 q 701 218 676 176 q 739 322 725 260 l 878 322 q 815 158 854 224 q 717 52 775 92 q 581 -4 658 13 q 406 -21 503 -21 q 278 -12 336 -21 q 180 24 221 -3 q 117 101 139 51 q 94 229 94 150 q 110 390 94 310 q 146 549 126 471 q 214 782 178 678 q 310 960 250 886 q 463 1073 369 1033 q 703 1113 557 1113 q 791 1110 742 1113 q 889 1097 840 1107 q 982 1067 938 1086 q 1056 1018 1026 1049 l 997 790 m 546 1361 l 719 1224 l 961 1361 l 1115 1361 l 774 1151 l 626 1151 l 392 1361 l 546 1361 z "},"č":{"ha":940,"x_min":107,"x_max":1033,"o":"m 107 0 m 782 579 q 740 605 765 596 q 688 619 715 614 q 633 626 660 625 q 583 628 606 628 q 459 613 510 628 q 374 567 408 599 q 316 485 339 535 q 276 365 293 435 q 263 301 269 333 q 257 236 257 268 q 272 164 257 190 q 313 123 288 138 q 374 104 339 108 q 446 100 408 100 q 530 105 489 100 q 606 125 571 110 q 665 169 640 140 q 703 244 690 197 l 836 244 q 776 113 817 164 q 680 32 736 61 q 556 -8 624 3 q 411 -19 488 -19 q 297 -12 351 -19 q 199 20 242 -4 q 132 88 157 44 q 107 201 107 131 q 113 283 107 243 q 131 364 119 324 q 194 538 157 465 q 288 657 232 610 q 420 726 343 704 q 604 749 497 749 q 692 744 646 749 q 784 728 739 740 q 868 694 829 717 q 933 635 907 672 l 894 478 l 757 478 l 782 579 m 464 1032 l 638 894 l 879 1032 l 1033 1032 l 692 822 l 544 822 l 310 1032 l 464 1032 z "},"Ď":{"ha":940,"x_min":28,"x_max":1115,"o":"m 28 0 m 675 1092 q 806 1079 747 1092 q 906 1036 864 1067 q 970 954 947 1006 q 993 824 993 903 q 980 683 993 753 q 950 544 967 614 q 883 326 921 426 q 784 154 844 226 q 632 41 724 82 q 404 0 540 0 l 28 0 l 299 1092 l 675 1092 m 210 128 l 435 128 q 589 164 528 128 q 690 259 650 200 q 753 392 729 318 q 797 544 778 467 q 824 663 813 603 q 835 783 835 724 q 787 924 835 883 q 643 964 739 964 l 418 964 l 210 128 m 546 1361 l 719 1224 l 961 1361 l 1115 1361 l 774 1151 l 626 1151 l 392 1361 l 546 1361 z "},"ď":{"ha":940,"x_min":7,"x_max":1215,"o":"m 7 0 m 956 1092 l 685 0 l 544 0 l 572 111 q 415 15 506 43 q 232 -14 324 -14 q 138 -4 179 -14 q 67 28 96 6 q 22 90 38 51 q 7 185 7 128 q 15 274 7 229 q 33 364 22 319 q 83 514 54 444 q 156 634 111 583 q 264 713 200 685 q 419 742 328 742 q 495 737 454 742 q 574 719 536 732 q 642 683 611 706 q 692 624 674 660 l 808 1092 l 956 1092 m 663 504 q 573 599 631 574 q 444 624 515 624 q 338 604 382 624 q 263 551 293 585 q 214 469 233 517 q 181 365 194 421 q 168 305 174 335 q 163 243 163 275 q 201 137 163 165 q 313 108 240 108 q 593 228 478 108 l 663 504 m 1215 1161 l 1060 915 l 963 915 l 1068 1161 l 1215 1161 z "},"Đ":{"ha":940,"x_min":28,"x_max":993,"o":"m 28 0 m 675 1092 q 806 1079 747 1092 q 906 1036 864 1067 q 970 954 947 1006 q 993 824 993 903 q 980 683 993 753 q 950 544 967 614 q 883 326 921 426 q 784 154 844 226 q 632 41 724 82 q 404 0 540 0 l 28 0 l 154 508 l 72 508 l 103 632 l 185 632 l 299 1092 l 675 1092 m 335 632 l 597 632 l 568 508 l 304 508 l 210 128 l 435 128 q 589 164 528 128 q 690 259 650 200 q 753 392 729 318 q 797 544 778 467 q 824 663 813 603 q 835 783 835 724 q 787 924 835 883 q 643 964 739 964 l 418 964 l 335 632 z "},"đ":{"ha":940,"x_min":93,"x_max":1139,"o":"m 878 1026 l 894 1092 l 1042 1092 l 1025 1026 l 1139 1026 l 1115 931 l 1001 931 l 771 0 l 631 0 l 658 111 q 501 15 592 43 q 318 -14 410 -14 q 224 -4 265 -14 q 153 28 182 6 q 108 90 124 51 q 93 185 93 128 q 101 274 93 229 q 119 364 108 319 q 169 514 140 444 q 242 634 197 583 q 350 713 286 685 q 506 742 414 742 q 581 737 540 742 q 660 719 622 732 q 728 683 697 706 q 778 624 760 660 l 854 931 l 296 931 l 319 1026 l 878 1026 m 749 504 q 659 599 717 574 q 531 624 601 624 q 424 604 468 624 q 349 551 379 585 q 300 469 319 517 q 267 365 281 421 q 254 305 260 335 q 249 243 249 275 q 288 137 249 165 q 399 108 326 108 q 679 228 564 108 l 749 504 z "},"Ē":{"ha":940,"x_min":28,"x_max":1157,"o":"m 28 0 m 1092 1092 l 1061 964 l 422 964 l 340 632 l 957 632 l 926 508 l 310 508 l 214 128 l 856 128 l 824 0 l 28 0 l 299 1092 l 1092 1092 m 1157 1339 l 1133 1243 l 314 1243 l 338 1339 l 1157 1339 z "},"ē":{"ha":940,"x_min":107,"x_max":1075,"o":"m 107 0 m 260 333 q 249 239 249 285 q 264 163 249 192 q 306 120 279 135 q 369 101 333 106 q 444 96 404 96 q 521 100 481 96 q 597 117 561 104 q 660 154 633 129 q 697 221 688 179 l 831 221 l 825 203 q 761 90 804 133 q 661 23 718 47 q 539 -10 604 -1 q 410 -19 474 -19 q 294 -11 349 -19 q 197 22 239 -3 q 131 90 156 46 q 107 204 107 133 q 113 283 107 244 q 129 361 119 322 q 192 534 154 461 q 288 655 231 607 q 423 726 344 703 q 606 749 501 749 q 713 742 660 749 q 808 713 765 735 q 876 651 850 690 q 903 546 903 611 q 899 494 903 522 q 890 438 896 467 q 875 383 883 410 q 858 333 867 356 l 260 333 m 576 633 q 473 622 518 633 q 393 588 428 611 q 333 525 358 564 q 288 432 307 486 l 756 432 q 766 471 763 449 q 769 511 769 493 q 751 576 769 551 q 705 613 733 600 q 642 629 676 625 q 576 633 608 633 m 1075 1010 l 1051 914 l 232 914 l 256 1010 l 1075 1010 z "},"Ĕ":{"ha":940,"x_min":28,"x_max":1132,"o":"m 28 0 m 1092 1092 l 1061 964 l 422 964 l 340 632 l 957 632 l 926 508 l 310 508 l 214 128 l 856 128 l 824 0 l 28 0 l 299 1092 l 1092 1092 m 500 1361 q 494 1324 494 1344 q 520 1264 494 1285 q 581 1234 546 1243 q 655 1224 617 1225 q 719 1222 693 1222 q 807 1226 761 1222 q 892 1243 853 1229 q 963 1285 932 1257 q 1007 1361 994 1313 l 1132 1361 q 1067 1249 1114 1290 q 960 1185 1021 1207 q 831 1158 899 1164 q 701 1151 763 1151 q 604 1154 661 1151 q 494 1172 547 1157 q 405 1219 442 1188 q 368 1308 368 1250 q 375 1361 368 1333 l 500 1361 z "},"ĕ":{"ha":940,"x_min":107,"x_max":1050,"o":"m 107 0 m 260 333 q 249 239 249 285 q 264 163 249 192 q 306 120 279 135 q 369 101 333 106 q 444 96 404 96 q 521 100 481 96 q 597 117 561 104 q 660 154 633 129 q 697 221 688 179 l 831 221 l 825 203 q 761 90 804 133 q 661 23 718 47 q 539 -10 604 -1 q 410 -19 474 -19 q 294 -11 349 -19 q 197 22 239 -3 q 131 90 156 46 q 107 204 107 133 q 113 283 107 244 q 129 361 119 322 q 192 534 154 461 q 288 655 231 607 q 423 726 344 703 q 606 749 501 749 q 713 742 660 749 q 808 713 765 735 q 876 651 850 690 q 903 546 903 611 q 899 494 903 522 q 890 438 896 467 q 875 383 883 410 q 858 333 867 356 l 260 333 m 576 633 q 473 622 518 633 q 393 588 428 611 q 333 525 358 564 q 288 432 307 486 l 756 432 q 766 471 763 449 q 769 511 769 493 q 751 576 769 551 q 705 613 733 600 q 642 629 676 625 q 576 633 608 633 m 418 1032 q 413 994 413 1015 q 438 935 413 956 q 499 905 464 914 q 573 894 535 896 q 638 893 611 893 q 725 897 679 893 q 810 914 771 900 q 881 956 850 928 q 925 1032 913 983 l 1050 1032 q 985 919 1032 961 q 878 856 939 878 q 749 828 817 835 q 619 822 681 822 q 522 825 579 822 q 413 843 465 828 q 323 890 360 858 q 286 979 286 921 q 293 1032 286 1004 l 418 1032 z "},"Ė":{"ha":940,"x_min":28,"x_max":1092,"o":"m 28 0 m 1092 1092 l 1061 964 l 422 964 l 340 632 l 957 632 l 926 508 l 310 508 l 214 128 l 856 128 l 824 0 l 28 0 l 299 1092 l 1092 1092 m 618 1233 q 657 1328 618 1296 q 754 1361 696 1361 q 815 1349 788 1361 q 842 1297 842 1336 q 804 1202 842 1236 q 707 1168 767 1168 q 645 1181 672 1168 q 618 1233 618 1193 z "},"ė":{"ha":940,"x_min":107,"x_max":903,"o":"m 107 0 m 260 333 q 249 239 249 285 q 264 163 249 192 q 306 120 279 135 q 369 101 333 106 q 444 96 404 96 q 521 100 481 96 q 597 117 561 104 q 660 154 633 129 q 697 221 688 179 l 831 221 l 825 203 q 761 90 804 133 q 661 23 718 47 q 539 -10 604 -1 q 410 -19 474 -19 q 294 -11 349 -19 q 197 22 239 -3 q 131 90 156 46 q 107 204 107 133 q 113 283 107 244 q 129 361 119 322 q 192 534 154 461 q 288 655 231 607 q 423 726 344 703 q 606 749 501 749 q 713 742 660 749 q 808 713 765 735 q 876 651 850 690 q 903 546 903 611 q 899 494 903 522 q 890 438 896 467 q 875 383 883 410 q 858 333 867 356 l 260 333 m 576 633 q 473 622 518 633 q 393 588 428 611 q 333 525 358 564 q 288 432 307 486 l 756 432 q 766 471 763 449 q 769 511 769 493 q 751 576 769 551 q 705 613 733 600 q 642 629 676 625 q 576 633 608 633 m 536 904 q 575 999 536 967 q 672 1032 614 1032 q 733 1019 706 1032 q 760 968 760 1007 q 722 873 760 907 q 625 839 685 839 q 563 851 590 839 q 536 904 536 864 z "},"Ę":{"ha":940,"x_min":28,"x_max":1092,"o":"m 28 0 l 299 1092 l 1092 1092 l 1061 964 l 422 964 l 340 632 l 957 632 l 926 508 l 310 508 l 214 128 l 856 128 l 824 0 q 774 -10 810 -3 q 692 -26 738 -17 q 597 -50 646 -36 q 506 -80 547 -64 q 438 -115 464 -96 q 411 -157 411 -135 q 426 -178 411 -171 q 462 -189 442 -186 q 501 -192 482 -192 q 529 -193 521 -193 q 663 -178 601 -193 q 790 -132 725 -164 l 761 -249 q 697 -274 732 -264 q 625 -292 663 -285 q 551 -301 588 -299 q 482 -304 514 -304 q 425 -302 458 -304 q 360 -290 392 -300 q 307 -262 329 -281 q 285 -210 285 -243 q 310 -145 285 -174 q 376 -94 336 -117 q 467 -56 417 -72 q 565 -29 517 -40 q 654 -11 613 -18 q 721 0 696 -4 l 28 0 z "},"ę":{"ha":940,"x_min":42,"x_max":903,"o":"m 260 333 q 249 239 249 285 q 264 163 249 192 q 306 120 279 135 q 369 101 333 106 q 444 96 404 96 q 521 100 481 96 q 597 117 561 104 q 660 154 633 129 q 697 221 688 179 l 831 221 q 781 115 810 156 q 713 49 751 74 q 624 11 674 25 q 510 -14 574 -3 q 467 -22 497 -17 q 398 -37 436 -28 q 319 -60 360 -47 q 245 -87 279 -72 q 190 -119 211 -101 q 168 -157 168 -137 q 183 -178 168 -171 q 219 -189 199 -186 q 258 -192 239 -192 q 286 -193 278 -193 q 420 -178 358 -193 q 547 -132 482 -164 l 518 -249 q 454 -274 489 -264 q 382 -292 419 -285 q 308 -301 344 -299 q 239 -304 271 -304 q 182 -302 215 -304 q 117 -290 149 -300 q 64 -262 86 -281 q 42 -210 42 -243 q 60 -154 42 -179 q 108 -109 79 -129 q 174 -74 138 -89 q 248 -49 211 -60 q 317 -30 285 -37 q 372 -18 350 -22 q 267 -6 315 -17 q 183 31 218 6 q 127 97 147 56 q 107 203 107 139 q 113 283 107 243 q 129 361 119 322 q 192 534 154 461 q 288 655 231 607 q 423 726 344 703 q 606 749 501 749 q 713 742 660 749 q 808 713 765 735 q 876 651 850 690 q 903 546 903 611 q 899 494 903 522 q 890 438 896 467 q 875 381 883 408 q 858 333 867 354 l 260 333 m 576 633 q 473 622 518 633 q 393 588 428 611 q 333 525 358 564 q 288 432 307 486 l 756 432 q 766 471 763 449 q 769 511 769 493 q 751 576 769 551 q 705 613 733 600 q 642 629 676 625 q 576 633 608 633 z "},"Ě":{"ha":940,"x_min":28,"x_max":1115,"o":"m 28 0 m 1092 1092 l 1061 964 l 422 964 l 340 632 l 957 632 l 926 508 l 310 508 l 214 128 l 856 128 l 824 0 l 28 0 l 299 1092 l 1092 1092 m 546 1361 l 719 1224 l 961 1361 l 1115 1361 l 774 1151 l 626 1151 l 392 1361 l 546 1361 z "},"ě":{"ha":940,"x_min":107,"x_max":1033,"o":"m 107 0 m 260 333 q 249 239 249 285 q 264 163 249 192 q 306 120 279 135 q 369 101 333 106 q 444 96 404 96 q 521 100 481 96 q 597 117 561 104 q 660 154 633 129 q 697 221 688 179 l 831 221 l 825 203 q 761 90 804 133 q 661 23 718 47 q 539 -10 604 -1 q 410 -19 474 -19 q 294 -11 349 -19 q 197 22 239 -3 q 131 90 156 46 q 107 204 107 133 q 113 283 107 244 q 129 361 119 322 q 192 534 154 461 q 288 655 231 607 q 423 726 344 703 q 606 749 501 749 q 713 742 660 749 q 808 713 765 735 q 876 651 850 690 q 903 546 903 611 q 899 494 903 522 q 890 438 896 467 q 875 383 883 410 q 858 333 867 356 l 260 333 m 576 633 q 473 622 518 633 q 393 588 428 611 q 333 525 358 564 q 288 432 307 486 l 756 432 q 766 471 763 449 q 769 511 769 493 q 751 576 769 551 q 705 613 733 600 q 642 629 676 625 q 576 633 608 633 m 464 1032 l 638 894 l 879 1032 l 1033 1032 l 692 822 l 544 822 l 310 1032 l 464 1032 z "},"Ğ":{"ha":940,"x_min":93,"x_max":1132,"o":"m 93 0 m 964 617 l 810 0 l 704 0 l 710 126 q 529 21 626 57 q 324 -15 432 -15 q 147 38 200 -15 q 93 217 93 92 q 109 384 93 300 q 146 550 125 468 q 215 783 179 679 q 310 960 250 886 q 463 1073 369 1033 q 701 1113 556 1113 q 791 1110 742 1113 q 889 1097 840 1107 q 982 1067 938 1086 q 1056 1018 1026 1049 l 997 790 l 853 790 l 892 942 q 787 977 847 969 q 675 985 726 985 q 508 949 571 985 q 406 853 444 914 q 344 714 367 793 q 300 547 322 635 q 267 403 282 476 q 253 258 253 331 q 283 144 253 179 q 393 110 314 110 q 572 150 489 110 q 726 250 656 190 l 789 500 l 565 500 l 594 617 l 964 617 m 500 1361 q 494 1324 494 1344 q 520 1264 494 1285 q 581 1234 546 1243 q 655 1224 617 1225 q 719 1222 693 1222 q 807 1226 761 1222 q 892 1243 853 1229 q 963 1285 932 1257 q 1007 1361 994 1313 l 1132 1361 q 1067 1249 1114 1290 q 960 1185 1021 1207 q 831 1158 899 1164 q 701 1151 763 1151 q 604 1154 661 1151 q 494 1172 547 1157 q 405 1219 442 1188 q 368 1308 368 1250 q 375 1361 368 1333 l 500 1361 z "},"ğ":{"ha":940,"x_min":-75,"x_max":1104,"o":"m 0 0 m 35 61 q 63 131 35 103 q 132 180 92 160 q 215 213 172 200 q 286 238 257 226 q 185 290 222 254 q 147 397 147 326 q 151 441 147 419 q 160 485 154 463 q 224 622 182 569 q 324 702 267 674 q 453 740 382 731 q 603 749 524 749 q 660 747 631 749 q 717 743 689 746 q 769 822 746 789 q 819 875 792 854 q 884 906 847 896 q 978 915 921 915 l 1104 915 l 1078 810 q 985 813 1022 810 q 921 810 949 815 q 867 785 893 804 q 808 724 842 767 q 894 669 864 704 q 925 572 925 633 q 922 528 925 550 q 913 485 918 507 q 849 347 890 399 q 751 267 808 294 q 623 230 693 239 q 472 221 553 221 q 438 221 454 221 q 403 222 421 221 q 356 206 392 218 q 283 178 321 193 q 217 149 246 164 q 188 124 188 133 q 195 112 188 114 q 210 110 203 110 l 658 110 q 729 105 694 110 q 791 85 764 100 q 835 44 818 71 q 851 -25 851 18 q 830 -148 851 -96 q 769 -235 808 -200 q 675 -287 729 -269 q 554 -304 621 -304 l 119 -304 q 55 -301 89 -304 q -8 -285 21 -297 q -56 -249 -37 -272 q -75 -187 -75 -226 q -35 -69 -75 -115 q 68 10 6 -22 q 43 31 51 17 q 35 61 35 44 m 579 650 q 468 640 521 650 q 376 606 415 631 q 315 537 338 581 q 292 425 292 493 q 313 363 292 385 q 365 331 333 342 q 431 319 396 321 q 496 318 467 318 q 606 328 554 318 q 697 363 658 338 q 759 431 736 388 q 782 544 782 475 q 761 605 782 583 q 709 637 740 626 q 643 649 678 647 q 579 650 608 650 m 194 0 q 147 -22 171 -10 q 101 -50 122 -33 q 67 -88 81 -67 q 54 -139 54 -110 q 66 -174 54 -161 q 96 -192 78 -186 q 133 -201 114 -199 q 169 -203 153 -203 l 554 -203 q 617 -196 588 -203 q 668 -173 646 -189 q 703 -132 690 -157 q 715 -69 715 -107 q 705 -33 715 -47 q 678 -12 694 -19 q 643 -2 663 -4 q 606 0 624 0 l 194 0 m 444 1143 q 439 1106 439 1126 q 465 1046 439 1067 q 526 1016 490 1025 q 599 1006 561 1007 q 664 1004 638 1004 q 751 1008 706 1004 q 837 1025 797 1011 q 908 1067 876 1039 q 951 1143 939 1094 l 1076 1143 q 1012 1031 1058 1072 q 904 967 965 989 q 775 940 843 946 q 646 933 707 933 q 549 936 606 933 q 439 954 492 939 q 349 1001 386 969 q 313 1090 313 1032 q 319 1143 313 1115 l 444 1143 z "},"Ġ":{"ha":940,"x_min":93,"x_max":1056,"o":"m 93 0 m 964 617 l 810 0 l 704 0 l 710 126 q 529 21 626 57 q 324 -15 432 -15 q 147 38 200 -15 q 93 217 93 92 q 109 384 93 300 q 146 550 125 468 q 215 783 179 679 q 310 960 250 886 q 463 1073 369 1033 q 701 1113 556 1113 q 791 1110 742 1113 q 889 1097 840 1107 q 982 1067 938 1086 q 1056 1018 1026 1049 l 997 790 l 853 790 l 892 942 q 787 977 847 969 q 675 985 726 985 q 508 949 571 985 q 406 853 444 914 q 344 714 367 793 q 300 547 322 635 q 267 403 282 476 q 253 258 253 331 q 283 144 253 179 q 393 110 314 110 q 572 150 489 110 q 726 250 656 190 l 789 500 l 565 500 l 594 617 l 964 617 m 618 1233 q 657 1328 618 1296 q 754 1361 696 1361 q 815 1349 788 1361 q 842 1297 842 1336 q 804 1202 842 1236 q 707 1168 767 1168 q 645 1181 672 1168 q 618 1233 618 1193 z "},"ġ":{"ha":940,"x_min":-75,"x_max":1104,"o":"m 0 0 m 35 61 q 63 131 35 103 q 132 180 92 160 q 215 213 172 200 q 286 238 257 226 q 185 290 222 254 q 147 397 147 326 q 151 441 147 419 q 160 485 154 463 q 224 622 182 569 q 324 702 267 674 q 453 740 382 731 q 603 749 524 749 q 660 747 631 749 q 717 743 689 746 q 769 822 746 789 q 819 875 792 854 q 884 906 847 896 q 978 915 921 915 l 1104 915 l 1078 810 q 985 813 1022 810 q 921 810 949 815 q 867 785 893 804 q 808 724 842 767 q 894 669 864 704 q 925 572 925 633 q 922 528 925 550 q 913 485 918 507 q 849 347 890 399 q 751 267 808 294 q 623 230 693 239 q 472 221 553 221 q 438 221 454 221 q 403 222 421 221 q 356 206 392 218 q 283 178 321 193 q 217 149 246 164 q 188 124 188 133 q 195 112 188 114 q 210 110 203 110 l 658 110 q 729 105 694 110 q 791 85 764 100 q 835 44 818 71 q 851 -25 851 18 q 830 -148 851 -96 q 769 -235 808 -200 q 675 -287 729 -269 q 554 -304 621 -304 l 119 -304 q 55 -301 89 -304 q -8 -285 21 -297 q -56 -249 -37 -272 q -75 -187 -75 -226 q -35 -69 -75 -115 q 68 10 6 -22 q 43 31 51 17 q 35 61 35 44 m 579 650 q 468 640 521 650 q 376 606 415 631 q 315 537 338 581 q 292 425 292 493 q 313 363 292 385 q 365 331 333 342 q 431 319 396 321 q 496 318 467 318 q 606 328 554 318 q 697 363 658 338 q 759 431 736 388 q 782 544 782 475 q 761 605 782 583 q 709 637 740 626 q 643 649 678 647 q 579 650 608 650 m 194 0 q 147 -22 171 -10 q 101 -50 122 -33 q 67 -88 81 -67 q 54 -139 54 -110 q 66 -174 54 -161 q 96 -192 78 -186 q 133 -201 114 -199 q 169 -203 153 -203 l 554 -203 q 617 -196 588 -203 q 668 -173 646 -189 q 703 -132 690 -157 q 715 -69 715 -107 q 705 -33 715 -47 q 678 -12 694 -19 q 643 -2 663 -4 q 606 0 624 0 l 194 0 m 551 964 q 590 1059 551 1026 q 688 1092 629 1092 q 748 1079 721 1092 q 775 1028 775 1067 q 738 933 775 967 q 640 899 700 899 q 578 911 606 899 q 551 964 551 924 z "},"Ģ":{"ha":940,"x_min":93,"x_max":1056,"o":"m 93 0 m 964 617 l 810 0 l 704 0 l 710 126 q 529 21 626 57 q 324 -15 432 -15 q 147 38 200 -15 q 93 217 93 92 q 109 384 93 300 q 146 550 125 468 q 215 783 179 679 q 310 960 250 886 q 463 1073 369 1033 q 701 1113 556 1113 q 791 1110 742 1113 q 889 1097 840 1107 q 982 1067 938 1086 q 1056 1018 1026 1049 l 997 790 l 853 790 l 892 942 q 787 977 847 969 q 675 985 726 985 q 508 949 571 985 q 406 853 444 914 q 344 714 367 793 q 300 547 322 635 q 267 403 282 476 q 253 258 253 331 q 283 144 253 179 q 393 110 314 110 q 572 150 489 110 q 726 250 656 190 l 789 500 l 565 500 l 594 617 l 964 617 m 486 -58 l 331 -304 l 233 -304 l 339 -58 l 486 -58 z "},"ģ":{"ha":940,"x_min":-75,"x_max":1104,"o":"m 0 0 m 35 61 q 63 131 35 103 q 132 180 92 160 q 215 213 172 200 q 286 238 257 226 q 185 290 222 254 q 147 397 147 326 q 151 441 147 419 q 160 485 154 463 q 224 622 182 569 q 324 702 267 674 q 453 740 382 731 q 603 749 524 749 q 660 747 631 749 q 717 743 689 746 q 769 822 746 789 q 819 875 792 854 q 884 906 847 896 q 978 915 921 915 l 1104 915 l 1078 810 q 985 813 1022 810 q 921 810 949 815 q 867 785 893 804 q 808 724 842 767 q 894 669 864 704 q 925 572 925 633 q 922 528 925 550 q 913 485 918 507 q 849 347 890 399 q 751 267 808 294 q 623 230 693 239 q 472 221 553 221 q 438 221 454 221 q 403 222 421 221 q 356 206 392 218 q 283 178 321 193 q 217 149 246 164 q 188 124 188 133 q 195 112 188 114 q 210 110 203 110 l 658 110 q 729 105 694 110 q 791 85 764 100 q 835 44 818 71 q 851 -25 851 18 q 830 -148 851 -96 q 769 -235 808 -200 q 675 -287 729 -269 q 554 -304 621 -304 l 119 -304 q 55 -301 89 -304 q -8 -285 21 -297 q -56 -249 -37 -272 q -75 -187 -75 -226 q -35 -69 -75 -115 q 68 10 6 -22 q 43 31 51 17 q 35 61 35 44 m 579 650 q 468 640 521 650 q 376 606 415 631 q 315 537 338 581 q 292 425 292 493 q 313 363 292 385 q 365 331 333 342 q 431 319 396 321 q 496 318 467 318 q 606 328 554 318 q 697 363 658 338 q 759 431 736 388 q 782 544 782 475 q 761 605 782 583 q 709 637 740 626 q 643 649 678 647 q 579 650 608 650 m 194 0 q 147 -22 171 -10 q 101 -50 122 -33 q 67 -88 81 -67 q 54 -139 54 -110 q 66 -174 54 -161 q 96 -192 78 -186 q 133 -201 114 -199 q 169 -203 153 -203 l 554 -203 q 617 -196 588 -203 q 668 -173 646 -189 q 703 -132 690 -157 q 715 -69 715 -107 q 705 -33 715 -47 q 678 -12 694 -19 q 643 -2 663 -4 q 606 0 624 0 l 194 0 m 835 1154 l 679 908 l 582 908 l 688 1154 l 835 1154 z "},"Ħ":{"ha":940,"x_min":28,"x_max":1072,"o":"m 254 914 l 299 1092 l 454 1092 l 410 914 l 872 914 l 917 1092 l 1072 1092 l 1028 914 l 1051 914 l 1028 818 l 1004 818 l 801 0 l 646 0 l 772 508 l 310 508 l 183 0 l 28 0 l 231 818 l 208 818 l 232 914 l 254 914 m 803 632 l 849 818 l 386 818 l 340 632 l 803 632 z "},"ħ":{"ha":940,"x_min":58,"x_max":1018,"o":"m 313 1026 l 329 1092 l 478 1092 l 461 1026 l 1018 1026 l 994 931 l 438 931 l 360 618 q 521 713 426 685 q 707 742 615 742 q 788 735 750 742 q 853 711 825 729 q 897 662 881 693 q 913 581 913 631 q 908 521 913 550 q 896 463 903 492 l 781 0 l 633 0 l 746 456 q 753 491 750 474 q 756 526 756 508 q 744 575 756 557 q 715 603 733 593 q 674 615 697 613 q 625 618 650 618 q 464 590 539 618 q 331 499 389 563 l 207 0 l 58 0 l 289 931 l 175 931 l 199 1026 l 313 1026 z "},"Ī":{"ha":940,"x_min":57,"x_max":1157,"o":"m 57 0 m 1042 1092 l 1014 978 l 736 978 l 521 114 l 799 114 l 771 0 l 57 0 l 85 114 l 364 114 l 581 978 l 300 978 l 328 1092 l 1042 1092 m 1157 1339 l 1133 1243 l 314 1243 l 338 1339 l 1157 1339 z "},"ī":{"ha":940,"x_min":111,"x_max":1075,"o":"m 111 0 m 1075 1010 l 1051 914 l 232 914 l 256 1010 l 1075 1010 m 694 729 l 540 108 l 801 108 l 775 0 l 111 0 l 138 108 l 392 108 l 519 619 l 292 619 l 318 729 l 694 729 z "},"Ĭ":{"ha":940,"x_min":57,"x_max":1132,"o":"m 57 0 m 1042 1092 l 1014 978 l 736 978 l 521 114 l 799 114 l 771 0 l 57 0 l 85 114 l 364 114 l 581 978 l 300 978 l 328 1092 l 1042 1092 m 500 1361 q 494 1324 494 1344 q 520 1264 494 1285 q 581 1234 546 1243 q 655 1224 617 1225 q 719 1222 693 1222 q 807 1226 761 1222 q 892 1243 853 1229 q 963 1285 932 1257 q 1007 1361 994 1313 l 1132 1361 q 1067 1249 1114 1290 q 960 1185 1021 1207 q 831 1158 899 1164 q 701 1151 763 1151 q 604 1154 661 1151 q 494 1172 547 1157 q 405 1219 442 1188 q 368 1308 368 1250 q 375 1361 368 1333 l 500 1361 z "},"ĭ":{"ha":940,"x_min":111,"x_max":1050,"o":"m 111 0 m 418 1032 q 413 994 413 1015 q 438 935 413 956 q 499 905 464 914 q 573 894 535 896 q 638 893 611 893 q 725 897 679 893 q 810 914 771 900 q 881 956 850 928 q 925 1032 913 983 l 1050 1032 q 985 919 1032 961 q 878 856 939 878 q 749 828 817 835 q 619 822 681 822 q 522 825 579 822 q 413 843 465 828 q 323 890 360 858 q 286 979 286 921 q 293 1032 286 1004 l 418 1032 m 694 729 l 540 108 l 801 108 l 775 0 l 111 0 l 138 108 l 392 108 l 519 619 l 292 619 l 318 729 l 694 729 z "},"Į":{"ha":940,"x_min":57,"x_max":1042,"o":"m 57 0 l 85 114 l 364 114 l 581 978 l 300 978 l 328 1092 l 1042 1092 l 1014 978 l 736 978 l 521 114 l 799 114 l 771 0 q 715 1 743 0 q 658 0 686 1 q 610 -6 646 0 q 529 -23 575 -12 q 433 -48 483 -33 q 342 -80 383 -62 q 273 -117 300 -97 q 246 -157 246 -136 q 261 -178 246 -171 q 297 -189 276 -186 q 336 -192 317 -192 q 364 -193 356 -193 q 498 -178 436 -193 q 625 -132 560 -164 l 596 -249 q 532 -274 567 -264 q 460 -292 497 -285 q 385 -301 422 -299 q 317 -304 349 -304 q 260 -302 293 -304 q 195 -290 226 -300 q 142 -262 164 -281 q 119 -210 119 -243 q 145 -145 119 -174 q 211 -94 171 -117 q 301 -56 251 -72 q 399 -29 351 -40 q 489 -11 447 -18 q 556 0 531 -4 l 57 0 z "},"į":{"ha":940,"x_min":111,"x_max":801,"o":"m 111 0 l 138 108 l 392 108 l 519 619 l 292 619 l 318 729 l 694 729 l 540 108 l 801 108 l 775 0 q 717 1 746 0 q 658 0 688 1 q 610 -6 646 0 q 529 -23 575 -12 q 433 -48 483 -33 q 342 -80 383 -62 q 273 -117 300 -97 q 246 -157 246 -136 q 261 -178 246 -171 q 297 -189 276 -186 q 336 -192 317 -192 q 364 -193 356 -193 q 498 -178 436 -193 q 625 -132 560 -164 l 596 -249 q 532 -274 567 -264 q 460 -292 497 -285 q 385 -301 422 -299 q 317 -304 349 -304 q 260 -302 293 -304 q 195 -290 226 -300 q 142 -262 164 -281 q 119 -210 119 -243 q 145 -145 119 -174 q 211 -94 171 -117 q 301 -56 251 -72 q 399 -29 351 -40 q 489 -11 447 -18 q 556 0 531 -4 l 111 0 m 551 911 q 590 1022 551 981 q 699 1064 629 1064 q 765 1050 736 1064 q 793 992 793 1036 q 753 881 793 922 q 643 839 713 839 q 578 853 606 839 q 551 911 551 868 z "},"İ":{"ha":940,"x_min":57,"x_max":1042,"o":"m 57 0 m 1042 1092 l 1014 978 l 736 978 l 521 114 l 799 114 l 771 0 l 57 0 l 85 114 l 364 114 l 581 978 l 300 978 l 328 1092 l 1042 1092 m 618 1233 q 657 1328 618 1296 q 754 1361 696 1361 q 815 1349 788 1361 q 842 1297 842 1336 q 804 1202 842 1236 q 707 1168 767 1168 q 645 1181 672 1168 q 618 1233 618 1193 z "},"ı":{"ha":940,"x_min":111,"x_max":801,"o":"m 694 729 l 540 108 l 801 108 l 775 0 l 111 0 l 138 108 l 392 108 l 519 619 l 292 619 l 318 729 l 694 729 z "},"Ĳ":{"ha":940,"x_min":-7,"x_max":1069,"o":"m 1069 1092 l 825 111 q 758 -77 797 1 q 659 -206 718 -156 q 516 -281 600 -257 q 317 -304 432 -304 q 203 -298 261 -304 q 99 -270 146 -292 q 23 -207 53 -249 q -7 -96 -7 -165 q 0 -28 -7 -62 q 14 39 7 6 l 154 39 q 145 -6 150 17 q 140 -51 140 -28 q 160 -118 140 -93 q 208 -156 179 -143 q 273 -173 238 -169 q 342 -176 308 -176 q 475 -158 421 -176 q 566 -105 529 -140 q 627 -15 603 -69 q 669 111 651 39 l 914 1092 l 1069 1092 m 433 1092 l 203 167 l 46 167 l 276 1092 l 433 1092 z "},"ĳ":{"ha":940,"x_min":33,"x_max":1038,"o":"m 946 729 l 750 -57 q 691 -184 731 -136 q 597 -259 651 -232 q 476 -295 543 -286 q 338 -304 410 -304 q 249 -301 299 -304 q 154 -285 199 -299 q 79 -241 110 -271 q 49 -157 49 -211 q 54 -104 49 -129 q 68 -53 60 -79 l 196 -53 q 189 -81 192 -67 q 186 -110 186 -94 q 206 -156 186 -140 q 252 -179 225 -172 q 309 -187 279 -186 q 360 -187 339 -187 q 437 -184 399 -187 q 508 -167 475 -181 q 567 -128 542 -153 q 603 -58 592 -103 l 799 729 l 946 729 m 796 913 q 836 1022 796 981 q 944 1064 876 1064 q 1009 1049 981 1064 q 1038 993 1038 1035 q 999 881 1038 924 q 889 839 960 839 q 823 854 850 839 q 796 913 796 869 m 361 729 l 181 0 l 33 0 l 214 729 l 361 729 m 221 913 q 262 1023 221 982 q 371 1064 303 1064 q 438 1049 410 1064 q 467 990 467 1035 q 425 879 467 919 q 314 839 383 839 q 249 854 276 839 q 221 913 221 869 z "},"Ķ":{"ha":940,"x_min":28,"x_max":1143,"o":"m 28 0 m 1143 1092 l 763 754 l 869 0 l 703 0 l 618 625 l 260 308 l 183 0 l 28 0 l 299 1092 l 454 1092 l 303 479 l 969 1092 l 1143 1092 m 486 -58 l 331 -304 l 233 -304 l 339 -58 l 486 -58 z "},"ķ":{"ha":940,"x_min":58,"x_max":1053,"o":"m 58 0 m 1053 729 l 721 531 l 871 0 l 715 0 l 586 450 l 272 261 l 207 0 l 58 0 l 329 1092 l 478 1092 l 301 382 l 868 729 l 1053 729 m 486 -58 l 331 -304 l 233 -304 l 339 -58 l 486 -58 z "},"Ĺ":{"ha":940,"x_min":44,"x_max":931,"o":"m 44 0 m 472 1092 l 232 128 l 844 128 l 814 0 l 44 0 l 315 1092 l 472 1092 m 931 1361 l 583 1151 l 447 1151 l 749 1361 l 931 1361 z "},"ĺ":{"ha":940,"x_min":111,"x_max":1018,"o":"m 111 0 m 796 1092 l 551 108 l 801 108 l 775 0 l 111 0 l 138 108 l 403 108 l 621 983 l 382 983 l 408 1092 l 796 1092 m 1018 1361 l 671 1151 l 535 1151 l 836 1361 l 1018 1361 z "},"Ļ":{"ha":940,"x_min":44,"x_max":844,"o":"m 44 0 m 472 1092 l 232 128 l 844 128 l 814 0 l 44 0 l 315 1092 l 472 1092 m 486 -58 l 331 -304 l 233 -304 l 339 -58 l 486 -58 z "},"ļ":{"ha":940,"x_min":111,"x_max":801,"o":"m 111 0 m 796 1092 l 551 108 l 801 108 l 775 0 l 111 0 l 138 108 l 403 108 l 621 983 l 382 983 l 408 1092 l 796 1092 m 525 -58 l 369 -304 l 272 -304 l 378 -58 l 525 -58 z "},"Ľ":{"ha":940,"x_min":44,"x_max":1044,"o":"m 44 0 m 472 1092 l 232 128 l 844 128 l 814 0 l 44 0 l 315 1092 l 472 1092 m 1044 1161 l 889 915 l 792 915 l 897 1161 l 1044 1161 z "},"ľ":{"ha":940,"x_min":6,"x_max":1114,"o":"m 6 0 m 690 1092 l 446 108 l 696 108 l 669 0 l 6 0 l 32 108 l 297 108 l 515 983 l 276 983 l 303 1092 l 690 1092 m 1114 1161 l 958 915 l 861 915 l 967 1161 l 1114 1161 z "},"Ŀ":{"ha":940,"x_min":44,"x_max":889,"o":"m 44 0 m 472 1092 l 232 128 l 844 128 l 814 0 l 44 0 l 315 1092 l 472 1092 m 665 574 q 704 669 665 636 q 801 701 743 701 q 862 689 835 701 q 889 638 889 676 q 851 542 889 576 q 754 508 814 508 q 692 521 719 508 q 665 574 665 533 z "},"ŀ":{"ha":940,"x_min":26,"x_max":993,"o":"m 26 0 m 711 1092 l 467 108 l 717 108 l 690 0 l 26 0 l 53 108 l 318 108 l 536 983 l 297 983 l 324 1092 l 711 1092 m 769 574 q 808 669 769 636 q 906 701 847 701 q 966 689 939 701 q 993 638 993 676 q 956 542 993 576 q 858 508 918 508 q 797 521 824 508 q 769 574 769 533 z "},"Ł":{"ha":940,"x_min":44,"x_max":867,"o":"m 472 1092 l 356 625 l 867 771 l 835 643 l 324 496 l 232 128 l 844 128 l 814 0 l 44 0 l 156 447 l 49 417 l 79 546 l 188 576 l 315 1092 l 472 1092 z "},"ł":{"ha":940,"x_min":111,"x_max":1035,"o":"m 796 1092 l 690 667 l 1035 768 l 1004 642 l 658 540 l 551 108 l 801 108 l 775 0 l 111 0 l 138 108 l 403 108 l 499 493 l 157 393 l 188 519 l 531 619 l 621 983 l 382 983 l 408 1092 l 796 1092 z "},"Ń":{"ha":940,"x_min":15,"x_max":1085,"o":"m 15 0 m 444 1092 l 740 275 l 943 1092 l 1085 1092 l 814 0 l 697 0 l 372 867 l 157 0 l 15 0 l 288 1092 l 444 1092 m 1018 1361 l 671 1151 l 535 1151 l 836 1361 l 1018 1361 z "},"ń":{"ha":940,"x_min":58,"x_max":935,"o":"m 58 0 m 381 729 l 350 610 q 515 711 421 681 q 707 742 610 742 q 788 735 750 742 q 853 711 825 729 q 897 662 881 693 q 913 581 913 631 q 908 521 913 550 q 896 463 903 492 l 781 0 l 633 0 l 746 456 q 753 491 750 474 q 756 526 756 508 q 744 575 756 557 q 715 603 733 593 q 674 615 697 613 q 625 618 650 618 q 464 590 539 618 q 331 499 389 563 l 207 0 l 58 0 l 240 729 l 381 729 m 935 1032 l 588 822 l 451 822 l 753 1032 l 935 1032 z "},"Ņ":{"ha":940,"x_min":15,"x_max":1085,"o":"m 15 0 m 444 1092 l 740 275 l 943 1092 l 1085 1092 l 814 0 l 697 0 l 372 867 l 157 0 l 15 0 l 288 1092 l 444 1092 m 486 -58 l 331 -304 l 233 -304 l 339 -58 l 486 -58 z "},"ņ":{"ha":940,"x_min":58,"x_max":913,"o":"m 58 0 m 381 729 l 350 610 q 515 711 421 681 q 707 742 610 742 q 788 735 750 742 q 853 711 825 729 q 897 662 881 693 q 913 581 913 631 q 908 521 913 550 q 896 463 903 492 l 781 0 l 633 0 l 746 456 q 753 491 750 474 q 756 526 756 508 q 744 575 756 557 q 715 603 733 593 q 674 615 697 613 q 625 618 650 618 q 464 590 539 618 q 331 499 389 563 l 207 0 l 58 0 l 240 729 l 381 729 m 486 -58 l 331 -304 l 233 -304 l 339 -58 l 486 -58 z "},"Ň":{"ha":940,"x_min":15,"x_max":1115,"o":"m 15 0 m 444 1092 l 740 275 l 943 1092 l 1085 1092 l 814 0 l 697 0 l 372 867 l 157 0 l 15 0 l 288 1092 l 444 1092 m 546 1361 l 719 1224 l 961 1361 l 1115 1361 l 774 1151 l 626 1151 l 392 1361 l 546 1361 z "},"ň":{"ha":940,"x_min":58,"x_max":1033,"o":"m 58 0 m 381 729 l 350 610 q 515 711 421 681 q 707 742 610 742 q 788 735 750 742 q 853 711 825 729 q 897 662 881 693 q 913 581 913 631 q 908 521 913 550 q 896 463 903 492 l 781 0 l 633 0 l 746 456 q 753 491 750 474 q 756 526 756 508 q 744 575 756 557 q 715 603 733 593 q 674 615 697 613 q 625 618 650 618 q 464 590 539 618 q 331 499 389 563 l 207 0 l 58 0 l 240 729 l 381 729 m 464 1032 l 638 894 l 879 1032 l 1033 1032 l 692 822 l 544 822 l 310 1032 l 464 1032 z "},"Ŋ":{"ha":940,"x_min":15,"x_max":1085,"o":"m 440 1092 l 738 265 l 943 1092 l 1085 1092 l 808 -18 q 751 -156 788 -104 q 662 -236 714 -208 q 542 -274 610 -264 q 394 -283 475 -283 l 213 -283 l 242 -167 q 388 -169 317 -167 q 518 -157 458 -172 q 622 -99 578 -142 q 689 35 667 -56 l 374 871 l 157 0 l 15 0 l 288 1092 l 440 1092 z "},"ŋ":{"ha":940,"x_min":58,"x_max":913,"o":"m 381 729 l 350 610 q 515 711 421 681 q 707 742 610 742 q 788 735 750 742 q 853 711 825 729 q 897 662 881 693 q 913 581 913 631 q 908 521 913 550 q 896 463 903 492 l 779 -8 q 724 -143 758 -90 q 639 -227 689 -196 q 524 -271 589 -258 q 381 -283 460 -283 l 171 -283 l 200 -167 q 333 -171 265 -167 q 461 -164 401 -175 q 567 -117 521 -153 q 632 -1 613 -81 l 746 456 q 753 491 750 474 q 756 526 756 508 q 744 575 756 557 q 715 603 733 593 q 674 615 697 613 q 625 618 650 618 q 464 590 539 618 q 331 499 389 563 l 207 0 l 58 0 l 240 729 l 381 729 z "},"Ō":{"ha":940,"x_min":75,"x_max":1157,"o":"m 75 0 m 688 1107 q 810 1105 750 1107 q 916 1085 869 1103 q 991 1025 963 1067 q 1019 904 1019 983 q 1000 723 1019 814 q 958 544 981 632 q 922 399 943 481 q 868 241 901 318 q 787 101 835 164 q 668 13 739 39 q 540 -12 608 -10 q 408 -15 471 -15 q 286 -14 346 -15 q 180 6 226 -12 q 104 65 133 24 q 75 186 75 107 q 94 367 75 276 q 136 544 114 457 q 174 690 153 608 q 228 849 194 772 q 309 989 261 926 q 428 1078 357 1051 q 556 1103 488 1100 q 688 1107 625 1107 m 657 981 q 572 978 617 981 q 490 960 528 976 q 411 888 444 939 q 354 774 378 836 q 315 650 331 713 q 289 544 300 588 q 252 394 269 471 q 235 240 235 317 q 251 163 235 189 q 296 124 268 136 q 361 111 324 113 q 439 110 399 110 q 524 112 479 110 q 607 131 568 114 q 685 201 653 150 q 742 315 718 253 q 781 439 765 376 q 807 544 796 501 q 844 696 826 618 q 863 850 863 774 q 845 928 863 901 q 799 966 828 954 q 734 979 771 978 q 657 981 697 981 m 1157 1339 l 1133 1243 l 314 1243 l 338 1339 l 1157 1339 z "},"ō":{"ha":940,"x_min":107,"x_max":1075,"o":"m 107 0 m 603 749 q 718 740 663 749 q 815 708 774 732 q 882 641 857 685 q 907 526 907 597 q 901 445 907 486 q 883 364 894 404 q 821 191 858 264 q 727 72 783 118 q 593 3 671 25 q 411 -19 515 -19 q 297 -12 351 -19 q 199 20 242 -4 q 132 88 157 44 q 107 201 107 131 q 114 283 107 242 q 131 364 121 324 q 193 537 156 464 q 287 657 231 610 q 420 726 343 704 q 603 749 497 749 m 572 628 q 452 611 501 628 q 369 561 403 594 q 313 478 335 528 q 275 364 292 429 q 262 301 268 332 q 256 238 256 269 q 270 166 256 193 q 310 124 285 139 q 369 105 335 110 q 440 100 403 100 q 562 116 513 100 q 644 165 611 132 q 699 248 678 199 q 738 364 721 297 q 751 427 744 396 q 757 490 757 458 q 742 562 757 535 q 703 603 728 589 q 644 623 678 618 q 572 628 611 628 m 1075 1010 l 1051 914 l 232 914 l 256 1010 l 1075 1010 z "},"Ŏ":{"ha":940,"x_min":75,"x_max":1132,"o":"m 75 0 m 688 1107 q 810 1105 750 1107 q 916 1085 869 1103 q 991 1025 963 1067 q 1019 904 1019 983 q 1000 723 1019 814 q 958 544 981 632 q 922 399 943 481 q 868 241 901 318 q 787 101 835 164 q 668 13 739 39 q 540 -12 608 -10 q 408 -15 471 -15 q 286 -14 346 -15 q 180 6 226 -12 q 104 65 133 24 q 75 186 75 107 q 94 367 75 276 q 136 544 114 457 q 174 690 153 608 q 228 849 194 772 q 309 989 261 926 q 428 1078 357 1051 q 556 1103 488 1100 q 688 1107 625 1107 m 657 981 q 572 978 617 981 q 490 960 528 976 q 411 888 444 939 q 354 774 378 836 q 315 650 331 713 q 289 544 300 588 q 252 394 269 471 q 235 240 235 317 q 251 163 235 189 q 296 124 268 136 q 361 111 324 113 q 439 110 399 110 q 524 112 479 110 q 607 131 568 114 q 685 201 653 150 q 742 315 718 253 q 781 439 765 376 q 807 544 796 501 q 844 696 826 618 q 863 850 863 774 q 845 928 863 901 q 799 966 828 954 q 734 979 771 978 q 657 981 697 981 m 500 1361 q 494 1324 494 1344 q 520 1264 494 1285 q 581 1234 546 1243 q 655 1224 617 1225 q 719 1222 693 1222 q 807 1226 761 1222 q 892 1243 853 1229 q 963 1285 932 1257 q 1007 1361 994 1313 l 1132 1361 q 1067 1249 1114 1290 q 960 1185 1021 1207 q 831 1158 899 1164 q 701 1151 763 1151 q 604 1154 661 1151 q 494 1172 547 1157 q 405 1219 442 1188 q 368 1308 368 1250 q 375 1361 368 1333 l 500 1361 z "},"ŏ":{"ha":940,"x_min":107,"x_max":1050,"o":"m 107 0 m 603 749 q 718 740 663 749 q 815 708 774 732 q 882 641 857 685 q 907 526 907 597 q 901 445 907 486 q 883 364 894 404 q 821 191 858 264 q 727 72 783 118 q 593 3 671 25 q 411 -19 515 -19 q 297 -12 351 -19 q 199 20 242 -4 q 132 88 157 44 q 107 201 107 131 q 114 283 107 242 q 131 364 121 324 q 193 537 156 464 q 287 657 231 610 q 420 726 343 704 q 603 749 497 749 m 572 628 q 452 611 501 628 q 369 561 403 594 q 313 478 335 528 q 275 364 292 429 q 262 301 268 332 q 256 238 256 269 q 270 166 256 193 q 310 124 285 139 q 369 105 335 110 q 440 100 403 100 q 562 116 513 100 q 644 165 611 132 q 699 248 678 199 q 738 364 721 297 q 751 427 744 396 q 757 490 757 458 q 742 562 757 535 q 703 603 728 589 q 644 623 678 618 q 572 628 611 628 m 418 1032 q 413 994 413 1015 q 438 935 413 956 q 499 905 464 914 q 573 894 535 896 q 638 893 611 893 q 725 897 679 893 q 810 914 771 900 q 881 956 850 928 q 925 1032 913 983 l 1050 1032 q 985 919 1032 961 q 878 856 939 878 q 749 828 817 835 q 619 822 681 822 q 522 825 579 822 q 413 843 465 828 q 323 890 360 858 q 286 979 286 921 q 293 1032 286 1004 l 418 1032 z "},"Ő":{"ha":940,"x_min":75,"x_max":1207,"o":"m 75 0 m 688 1107 q 810 1105 750 1107 q 916 1085 869 1103 q 991 1025 963 1067 q 1019 904 1019 983 q 1000 723 1019 814 q 958 544 981 632 q 922 399 943 481 q 868 241 901 318 q 787 101 835 164 q 668 13 739 39 q 540 -12 608 -10 q 408 -15 471 -15 q 286 -14 346 -15 q 180 6 226 -12 q 104 65 133 24 q 75 186 75 107 q 94 367 75 276 q 136 544 114 457 q 174 690 153 608 q 228 849 194 772 q 309 989 261 926 q 428 1078 357 1051 q 556 1103 488 1100 q 688 1107 625 1107 m 657 981 q 572 978 617 981 q 490 960 528 976 q 411 888 444 939 q 354 774 378 836 q 315 650 331 713 q 289 544 300 588 q 252 394 269 471 q 235 240 235 317 q 251 163 235 189 q 296 124 268 136 q 361 111 324 113 q 439 110 399 110 q 524 112 479 110 q 607 131 568 114 q 685 201 653 150 q 742 315 718 253 q 781 439 765 376 q 807 544 796 501 q 844 696 826 618 q 863 850 863 774 q 845 928 863 901 q 799 966 828 954 q 734 979 771 978 q 657 981 697 981 m 1207 1361 l 867 1151 l 728 1151 l 1035 1361 l 1207 1361 m 807 1361 l 488 1151 l 350 1151 l 639 1361 l 807 1361 z "},"ő":{"ha":940,"x_min":107,"x_max":1125,"o":"m 107 0 m 603 749 q 718 740 663 749 q 815 708 774 732 q 882 641 857 685 q 907 526 907 597 q 901 445 907 486 q 883 364 894 404 q 821 191 858 264 q 727 72 783 118 q 593 3 671 25 q 411 -19 515 -19 q 297 -12 351 -19 q 199 20 242 -4 q 132 88 157 44 q 107 201 107 131 q 114 283 107 242 q 131 364 121 324 q 193 537 156 464 q 287 657 231 610 q 420 726 343 704 q 603 749 497 749 m 572 628 q 452 611 501 628 q 369 561 403 594 q 313 478 335 528 q 275 364 292 429 q 262 301 268 332 q 256 238 256 269 q 270 166 256 193 q 310 124 285 139 q 369 105 335 110 q 440 100 403 100 q 562 116 513 100 q 644 165 611 132 q 699 248 678 199 q 738 364 721 297 q 751 427 744 396 q 757 490 757 458 q 742 562 757 535 q 703 603 728 589 q 644 623 678 618 q 572 628 611 628 m 1125 1032 l 785 822 l 646 822 l 953 1032 l 1125 1032 m 725 1032 l 406 822 l 268 822 l 557 1032 l 725 1032 z "},"Œ":{"ha":940,"x_min":43,"x_max":1143,"o":"m 1143 1092 l 1113 964 l 811 964 l 729 632 l 1013 632 l 982 508 l 699 508 l 604 128 l 908 128 l 876 0 l 301 0 q 108 55 174 0 q 43 242 43 110 q 58 394 43 318 q 92 544 72 469 q 149 743 117 644 q 235 919 182 842 q 369 1044 288 996 q 572 1092 450 1092 l 1143 1092 m 544 964 q 409 922 463 964 q 320 818 356 881 q 264 682 285 756 q 226 544 243 608 q 198 418 211 482 q 185 289 185 354 q 219 168 185 208 q 336 128 253 128 l 457 128 l 665 964 l 544 964 z "},"œ":{"ha":940,"x_min":14,"x_max":1004,"o":"m 393 749 q 498 730 449 749 q 568 654 547 711 q 674 728 614 707 q 801 749 733 749 q 883 740 846 749 q 948 713 921 732 q 990 660 975 693 q 1004 579 1004 628 q 999 521 1004 554 q 988 453 994 488 q 970 388 981 419 q 950 333 960 356 l 546 333 q 531 264 538 299 q 525 193 525 229 q 551 115 525 135 q 632 96 578 96 q 746 124 703 96 q 807 221 789 151 l 925 221 q 813 38 897 94 q 603 -19 728 -19 q 547 -16 575 -19 q 495 -3 519 -12 q 451 24 471 7 q 421 71 432 42 q 322 1 376 22 q 201 -19 267 -19 q 60 22 107 -19 q 14 160 14 63 q 24 263 14 213 q 46 364 33 314 q 88 506 64 436 q 151 629 113 575 q 249 716 190 683 q 393 749 307 749 m 363 628 q 276 602 310 628 q 220 537 242 576 q 185 451 199 497 q 161 364 171 404 q 142 283 150 324 q 135 200 135 242 q 156 124 135 147 q 231 100 178 100 q 318 126 283 100 q 376 190 353 151 q 412 276 399 229 q 436 364 425 322 q 454 444 446 403 q 463 525 463 485 q 440 603 463 579 q 363 628 417 628 m 769 633 q 689 617 721 633 q 635 572 657 600 q 599 508 614 544 q 572 432 585 472 l 861 432 q 878 485 874 456 q 883 542 883 514 q 851 615 883 596 q 769 633 818 633 z "},"Ŕ":{"ha":940,"x_min":28,"x_max":1050,"o":"m 28 0 m 710 1092 q 821 1089 761 1092 q 931 1069 881 1086 q 1016 1015 982 1053 q 1050 908 1050 978 q 1044 838 1050 872 q 1029 769 1038 804 q 980 630 1008 686 q 908 538 951 574 q 804 486 865 503 q 657 464 743 469 l 869 0 l 693 0 l 486 461 l 297 461 l 183 0 l 28 0 l 299 1092 l 710 1092 m 325 571 l 590 571 q 702 576 656 571 q 781 603 749 582 q 836 663 814 624 q 875 768 858 701 q 886 816 882 792 q 890 864 890 840 q 871 927 890 906 q 822 958 851 949 q 756 968 792 967 q 690 969 721 969 l 424 969 l 325 571 m 1018 1361 l 671 1151 l 535 1151 l 836 1361 l 1018 1361 z "},"ŕ":{"ha":940,"x_min":58,"x_max":975,"o":"m 58 0 m 381 729 l 340 572 q 435 637 386 606 q 538 691 485 668 q 647 728 592 714 q 761 742 703 742 q 821 737 786 742 q 888 719 856 732 q 946 686 921 707 q 975 635 971 665 l 933 468 l 796 468 l 825 585 q 800 603 817 596 q 763 615 783 611 q 724 622 743 619 q 692 624 704 624 q 592 610 642 624 q 497 576 543 597 q 406 528 450 556 q 324 472 363 501 l 207 0 l 58 0 l 240 729 l 381 729 m 935 1032 l 588 822 l 451 822 l 753 1032 l 935 1032 z "},"Ŗ":{"ha":940,"x_min":28,"x_max":1050,"o":"m 28 0 m 710 1092 q 821 1089 761 1092 q 931 1069 881 1086 q 1016 1015 982 1053 q 1050 908 1050 978 q 1044 838 1050 872 q 1029 769 1038 804 q 980 630 1008 686 q 908 538 951 574 q 804 486 865 503 q 657 464 743 469 l 869 0 l 693 0 l 486 461 l 297 461 l 183 0 l 28 0 l 299 1092 l 710 1092 m 325 571 l 590 571 q 702 576 656 571 q 781 603 749 582 q 836 663 814 624 q 875 768 858 701 q 886 816 882 792 q 890 864 890 840 q 871 927 890 906 q 822 958 851 949 q 756 968 792 967 q 690 969 721 969 l 424 969 l 325 571 m 500 -58 l 344 -304 l 247 -304 l 353 -58 l 500 -58 z "},"ŗ":{"ha":940,"x_min":-62,"x_max":975,"o":"m 0 0 m 381 729 l 340 572 q 435 637 386 606 q 538 691 485 668 q 647 728 592 714 q 761 742 703 742 q 821 737 786 742 q 888 719 856 732 q 946 686 921 707 q 975 635 971 665 l 933 468 l 796 468 l 825 585 q 800 603 817 596 q 763 615 783 611 q 724 622 743 619 q 692 624 704 624 q 592 610 642 624 q 497 576 543 597 q 406 528 450 556 q 324 472 363 501 l 207 0 l 58 0 l 240 729 l 381 729 m 190 -58 l 35 -304 l -62 -304 l 43 -58 l 190 -58 z "},"Ř":{"ha":940,"x_min":28,"x_max":1115,"o":"m 28 0 m 710 1092 q 821 1089 761 1092 q 931 1069 881 1086 q 1016 1015 982 1053 q 1050 908 1050 978 q 1044 838 1050 872 q 1029 769 1038 804 q 980 630 1008 686 q 908 538 951 574 q 804 486 865 503 q 657 464 743 469 l 869 0 l 693 0 l 486 461 l 297 461 l 183 0 l 28 0 l 299 1092 l 710 1092 m 325 571 l 590 571 q 702 576 656 571 q 781 603 749 582 q 836 663 814 624 q 875 768 858 701 q 886 816 882 792 q 890 864 890 840 q 871 927 890 906 q 822 958 851 949 q 756 968 792 967 q 690 969 721 969 l 424 969 l 325 571 m 546 1361 l 719 1224 l 961 1361 l 1115 1361 l 774 1151 l 626 1151 l 392 1361 l 546 1361 z "},"ř":{"ha":940,"x_min":58,"x_max":1033,"o":"m 58 0 m 381 729 l 340 572 q 435 637 386 606 q 538 691 485 668 q 647 728 592 714 q 761 742 703 742 q 821 737 786 742 q 888 719 856 732 q 946 686 921 707 q 975 635 971 665 l 933 468 l 796 468 l 825 585 q 800 603 817 596 q 763 615 783 611 q 724 622 743 619 q 692 624 704 624 q 592 610 642 624 q 497 576 543 597 q 406 528 450 556 q 324 472 363 501 l 207 0 l 58 0 l 240 729 l 381 729 m 464 1032 l 638 894 l 879 1032 l 1033 1032 l 692 822 l 544 822 l 310 1032 l 464 1032 z "},"Ś":{"ha":940,"x_min":51,"x_max":1046,"o":"m 51 0 m 881 939 q 775 976 832 967 q 663 985 718 985 q 560 976 615 985 q 457 944 504 967 q 378 883 410 922 q 347 785 347 844 q 390 706 347 733 q 497 661 432 678 q 635 631 561 644 q 774 594 710 618 q 881 530 839 571 q 924 418 924 489 q 920 374 924 396 q 911 332 917 353 q 836 166 886 233 q 717 57 786 99 q 563 -3 649 15 q 382 -21 478 -21 q 267 -14 325 -21 q 160 16 208 -7 q 82 81 113 39 q 51 193 51 124 q 58 258 51 225 q 72 322 64 290 l 219 322 q 210 282 214 303 q 206 240 206 261 q 226 170 206 196 q 279 131 247 144 q 349 113 311 117 q 421 108 386 108 q 544 124 483 108 q 655 172 606 139 q 734 256 704 204 q 764 379 764 307 q 722 452 764 426 q 615 495 679 478 q 477 528 551 513 q 339 567 403 543 q 233 633 275 592 q 190 743 190 674 q 238 918 190 847 q 360 1032 286 989 q 526 1094 435 1075 q 703 1113 617 1113 q 792 1108 746 1113 q 883 1094 839 1104 q 969 1065 928 1083 q 1046 1018 1011 1047 l 994 808 l 850 808 l 881 939 m 1018 1361 l 671 1151 l 535 1151 l 836 1361 l 1018 1361 z "},"ś":{"ha":940,"x_min":79,"x_max":935,"o":"m 79 0 m 225 232 q 215 183 215 206 q 238 131 215 150 q 291 103 260 113 q 356 92 322 94 q 413 90 389 90 q 500 96 450 90 q 595 118 550 101 q 672 166 640 135 q 703 249 703 197 q 663 303 703 286 q 564 329 624 321 q 435 342 504 338 q 306 361 365 347 q 206 403 246 375 q 167 488 167 432 q 210 619 167 568 q 317 699 253 669 q 456 738 382 728 q 592 749 531 749 q 759 733 675 749 q 914 668 843 717 l 878 521 l 749 521 l 769 608 q 669 638 721 632 q 565 644 618 644 q 490 641 535 644 q 405 625 446 638 q 335 588 364 613 q 306 519 306 563 q 328 478 306 493 q 390 455 351 463 q 476 443 428 447 q 576 434 525 439 q 675 422 626 429 q 762 397 724 414 q 823 353 800 381 q 846 281 846 325 q 824 176 846 221 q 767 97 803 131 q 685 41 732 64 q 585 5 638 18 q 481 -14 533 -8 q 382 -19 429 -19 q 288 -15 340 -19 q 188 6 235 -11 q 110 56 142 22 q 79 146 79 89 q 83 190 79 168 q 94 232 88 211 l 225 232 m 935 1032 l 588 822 l 451 822 l 753 1032 l 935 1032 z "},"Ş":{"ha":940,"x_min":51,"x_max":1046,"o":"m 51 0 m 881 939 q 775 976 832 967 q 663 985 718 985 q 560 976 615 985 q 457 944 504 967 q 378 883 410 922 q 347 785 347 844 q 390 706 347 733 q 497 661 432 678 q 635 631 561 644 q 774 594 710 618 q 881 530 839 571 q 924 418 924 489 q 920 374 924 396 q 911 332 917 353 q 836 166 886 233 q 717 57 786 99 q 563 -3 649 15 q 382 -21 478 -21 q 267 -14 325 -21 q 160 16 208 -7 q 82 81 113 39 q 51 193 51 124 q 58 258 51 225 q 72 322 64 290 l 219 322 q 210 282 214 303 q 206 240 206 261 q 226 170 206 196 q 279 131 247 144 q 349 113 311 117 q 421 108 386 108 q 544 124 483 108 q 655 172 606 139 q 734 256 704 204 q 764 379 764 307 q 722 452 764 426 q 615 495 679 478 q 477 528 551 513 q 339 567 403 543 q 233 633 275 592 q 190 743 190 674 q 238 918 190 847 q 360 1032 286 989 q 526 1094 435 1075 q 703 1113 617 1113 q 792 1108 746 1113 q 883 1094 839 1104 q 969 1065 928 1083 q 1046 1018 1011 1047 l 994 808 l 850 808 l 881 939 m 475 -58 l 319 -304 l 222 -304 l 328 -58 l 475 -58 z "},"ş":{"ha":940,"x_min":79,"x_max":914,"o":"m 79 0 m 225 232 q 215 183 215 206 q 238 131 215 150 q 291 103 260 113 q 356 92 322 94 q 413 90 389 90 q 500 96 450 90 q 595 118 550 101 q 672 166 640 135 q 703 249 703 197 q 663 303 703 286 q 564 329 624 321 q 435 342 504 338 q 306 361 365 347 q 206 403 246 375 q 167 488 167 432 q 210 619 167 568 q 317 699 253 669 q 456 738 382 728 q 592 749 531 749 q 759 733 675 749 q 914 668 843 717 l 878 521 l 749 521 l 769 608 q 669 638 721 632 q 565 644 618 644 q 490 641 535 644 q 405 625 446 638 q 335 588 364 613 q 306 519 306 563 q 328 478 306 493 q 390 455 351 463 q 476 443 428 447 q 576 434 525 439 q 675 422 626 429 q 762 397 724 414 q 823 353 800 381 q 846 281 846 325 q 824 176 846 221 q 767 97 803 131 q 685 41 732 64 q 585 5 638 18 q 481 -14 533 -8 q 382 -19 429 -19 q 288 -15 340 -19 q 188 6 235 -11 q 110 56 142 22 q 79 146 79 89 q 83 190 79 168 q 94 232 88 211 l 225 232 m 468 -58 l 313 -304 l 215 -304 l 321 -58 l 468 -58 z "},"Š":{"ha":940,"x_min":51,"x_max":1115,"o":"m 51 0 m 881 939 q 775 976 832 967 q 663 985 718 985 q 560 976 615 985 q 457 944 504 967 q 378 883 410 922 q 347 785 347 844 q 390 706 347 733 q 497 661 432 678 q 635 631 561 644 q 774 594 710 618 q 881 530 839 571 q 924 418 924 489 q 920 374 924 396 q 911 332 917 353 q 836 166 886 233 q 717 57 786 99 q 563 -3 649 15 q 382 -21 478 -21 q 267 -14 325 -21 q 160 16 208 -7 q 82 81 113 39 q 51 193 51 124 q 58 258 51 225 q 72 322 64 290 l 219 322 q 210 282 214 303 q 206 240 206 261 q 226 170 206 196 q 279 131 247 144 q 349 113 311 117 q 421 108 386 108 q 544 124 483 108 q 655 172 606 139 q 734 256 704 204 q 764 379 764 307 q 722 452 764 426 q 615 495 679 478 q 477 528 551 513 q 339 567 403 543 q 233 633 275 592 q 190 743 190 674 q 238 918 190 847 q 360 1032 286 989 q 526 1094 435 1075 q 703 1113 617 1113 q 792 1108 746 1113 q 883 1094 839 1104 q 969 1065 928 1083 q 1046 1018 1011 1047 l 994 808 l 850 808 l 881 939 m 546 1361 l 719 1224 l 961 1361 l 1115 1361 l 774 1151 l 626 1151 l 392 1361 l 546 1361 z "},"š":{"ha":940,"x_min":79,"x_max":1033,"o":"m 79 0 m 225 232 q 215 183 215 206 q 238 131 215 150 q 291 103 260 113 q 356 92 322 94 q 413 90 389 90 q 500 96 450 90 q 595 118 550 101 q 672 166 640 135 q 703 249 703 197 q 663 303 703 286 q 564 329 624 321 q 435 342 504 338 q 306 361 365 347 q 206 403 246 375 q 167 488 167 432 q 210 619 167 568 q 317 699 253 669 q 456 738 382 728 q 592 749 531 749 q 759 733 675 749 q 914 668 843 717 l 878 521 l 749 521 l 769 608 q 669 638 721 632 q 565 644 618 644 q 490 641 535 644 q 405 625 446 638 q 335 588 364 613 q 306 519 306 563 q 328 478 306 493 q 390 455 351 463 q 476 443 428 447 q 576 434 525 439 q 675 422 626 429 q 762 397 724 414 q 823 353 800 381 q 846 281 846 325 q 824 176 846 221 q 767 97 803 131 q 685 41 732 64 q 585 5 638 18 q 481 -14 533 -8 q 382 -19 429 -19 q 288 -15 340 -19 q 188 6 235 -11 q 110 56 142 22 q 79 146 79 89 q 83 190 79 168 q 94 232 88 211 l 225 232 m 464 1032 l 638 894 l 879 1032 l 1033 1032 l 692 822 l 544 822 l 310 1032 l 464 1032 z "},"Ţ":{"ha":940,"x_min":219,"x_max":1104,"o":"m 219 0 m 1104 1092 l 1072 964 l 732 964 l 493 0 l 338 0 l 576 964 l 236 964 l 267 1092 l 1104 1092 m 472 -58 l 317 -304 l 219 -304 l 325 -58 l 472 -58 z "},"ţ":{"ha":940,"x_min":128,"x_max":929,"o":"m 128 0 m 290 700 l 342 904 l 489 904 l 438 700 l 929 700 l 901 592 l 411 592 q 387 503 403 561 q 355 383 371 446 q 326 265 339 321 q 314 185 314 210 q 333 133 314 151 q 381 106 353 114 q 442 95 410 97 q 497 93 474 93 q 587 97 549 93 q 653 116 625 101 q 701 160 681 131 q 735 240 721 190 l 863 240 q 805 103 838 154 q 726 24 772 51 q 615 -11 679 -3 q 461 -19 550 -19 q 365 -15 417 -19 q 267 6 313 -11 q 192 56 222 22 q 161 149 161 89 q 174 244 161 185 q 203 367 186 303 q 236 493 219 432 q 263 592 253 554 l 128 592 l 154 700 l 290 700 m 486 -58 l 331 -304 l 233 -304 l 339 -58 l 486 -58 z "},"Ť":{"ha":940,"x_min":236,"x_max":1115,"o":"m 236 0 m 1104 1092 l 1072 964 l 732 964 l 493 0 l 338 0 l 576 964 l 236 964 l 267 1092 l 1104 1092 m 546 1361 l 719 1224 l 961 1361 l 1115 1361 l 774 1151 l 626 1151 l 392 1361 l 546 1361 z "},"ť":{"ha":940,"x_min":128,"x_max":1044,"o":"m 128 0 m 290 700 l 342 904 l 489 904 l 438 700 l 929 700 l 901 592 l 411 592 q 387 503 403 561 q 355 383 371 446 q 326 265 339 321 q 314 185 314 210 q 333 133 314 151 q 381 106 353 114 q 442 95 410 97 q 497 93 474 93 q 587 97 549 93 q 653 116 625 101 q 701 160 681 131 q 735 240 721 190 l 863 240 q 805 103 838 154 q 726 24 772 51 q 615 -11 679 -3 q 461 -19 550 -19 q 365 -15 417 -19 q 267 6 313 -11 q 192 56 222 22 q 161 149 161 89 q 174 244 161 185 q 203 367 186 303 q 236 493 219 432 q 263 592 253 554 l 128 592 l 154 700 l 290 700 m 1044 1161 l 889 915 l 792 915 l 897 1161 l 1044 1161 z "},"Ŧ":{"ha":940,"x_min":122,"x_max":1104,"o":"m 478 568 l 576 964 l 236 964 l 267 1092 l 1104 1092 l 1072 964 l 732 964 l 633 568 l 965 568 l 942 472 l 610 472 l 493 0 l 338 0 l 454 472 l 122 472 l 146 568 l 478 568 z "},"ŧ":{"ha":940,"x_min":68,"x_max":929,"o":"m 290 700 l 342 904 l 489 904 l 438 700 l 929 700 l 901 592 l 410 592 l 375 451 l 911 451 l 888 356 l 351 356 q 328 270 342 315 q 314 185 314 225 q 333 133 314 151 q 381 106 353 114 q 442 95 410 97 q 497 93 474 93 q 587 97 549 93 q 653 116 625 101 q 701 160 681 131 q 735 240 721 190 l 863 240 q 805 103 838 154 q 726 24 772 51 q 615 -11 679 -3 q 461 -19 550 -19 q 365 -15 417 -19 q 267 6 313 -11 q 192 56 222 22 q 161 149 161 89 q 176 253 161 200 q 204 356 192 307 l 68 356 l 92 451 l 228 451 l 263 592 l 128 592 l 154 700 l 290 700 z "},"Ũ":{"ha":940,"x_min":85,"x_max":1158,"o":"m 85 0 m 454 1092 l 269 351 q 255 286 261 319 q 249 219 249 253 q 267 155 249 176 q 315 124 286 133 q 378 115 343 115 q 444 114 413 114 q 568 124 519 114 q 649 159 617 133 q 702 231 682 185 q 740 351 722 278 l 924 1092 l 1072 1092 l 890 358 q 827 168 861 242 q 740 54 793 94 q 609 -1 688 14 q 411 -15 531 -15 q 301 -14 358 -15 q 195 3 243 -12 q 116 55 147 18 q 85 161 85 92 q 95 260 85 211 q 117 358 106 310 l 299 1092 l 454 1092 m 322 1274 q 447 1324 381 1308 q 581 1340 514 1340 q 667 1328 626 1340 q 748 1300 708 1315 q 827 1272 788 1285 q 913 1260 867 1260 q 1042 1282 982 1260 q 1158 1344 1101 1304 l 1132 1235 q 1008 1184 1074 1200 q 875 1168 942 1168 q 786 1181 826 1168 q 706 1208 746 1193 q 627 1236 667 1224 q 542 1249 588 1249 q 411 1226 471 1249 q 294 1164 351 1203 l 322 1274 z "},"ũ":{"ha":940,"x_min":97,"x_max":1076,"o":"m 97 0 m 379 729 l 265 274 q 258 238 261 256 q 254 200 254 219 q 265 151 254 169 q 294 124 276 133 q 336 113 313 115 q 385 110 360 110 q 545 138 471 110 q 681 229 619 167 l 804 729 l 953 729 l 771 0 l 631 0 l 660 118 q 495 17 589 47 q 304 -12 401 -12 q 224 -6 261 -12 q 158 17 186 0 q 113 65 129 35 q 97 146 97 96 q 103 207 97 178 q 115 267 108 236 l 231 729 l 379 729 m 240 944 q 365 995 299 979 q 499 1011 432 1011 q 585 999 544 1011 q 666 971 626 986 q 745 943 706 956 q 831 931 785 931 q 960 953 900 931 q 1076 1015 1019 975 l 1050 906 q 926 855 992 871 q 793 839 860 839 q 704 851 744 839 q 624 879 664 864 q 545 907 585 894 q 460 919 506 919 q 329 897 389 919 q 213 835 269 874 l 240 944 z "},"Ū":{"ha":940,"x_min":85,"x_max":1157,"o":"m 85 0 m 454 1092 l 269 351 q 255 286 261 319 q 249 219 249 253 q 267 155 249 176 q 315 124 286 133 q 378 115 343 115 q 444 114 413 114 q 568 124 519 114 q 649 159 617 133 q 702 231 682 185 q 740 351 722 278 l 924 1092 l 1072 1092 l 890 358 q 827 168 861 242 q 740 54 793 94 q 609 -1 688 14 q 411 -15 531 -15 q 301 -14 358 -15 q 195 3 243 -12 q 116 55 147 18 q 85 161 85 92 q 95 260 85 211 q 117 358 106 310 l 299 1092 l 454 1092 m 1157 1339 l 1133 1243 l 314 1243 l 338 1339 l 1157 1339 z "},"ū":{"ha":940,"x_min":97,"x_max":1075,"o":"m 97 0 m 379 729 l 265 274 q 258 238 261 256 q 254 200 254 219 q 265 151 254 169 q 294 124 276 133 q 336 113 313 115 q 385 110 360 110 q 545 138 471 110 q 681 229 619 167 l 804 729 l 953 729 l 771 0 l 631 0 l 660 118 q 495 17 589 47 q 304 -12 401 -12 q 224 -6 261 -12 q 158 17 186 0 q 113 65 129 35 q 97 146 97 96 q 103 207 97 178 q 115 267 108 236 l 231 729 l 379 729 m 1075 1010 l 1051 914 l 232 914 l 256 1010 l 1075 1010 z "},"Ŭ":{"ha":940,"x_min":85,"x_max":1132,"o":"m 85 0 m 454 1092 l 269 351 q 255 286 261 319 q 249 219 249 253 q 267 155 249 176 q 315 124 286 133 q 378 115 343 115 q 444 114 413 114 q 568 124 519 114 q 649 159 617 133 q 702 231 682 185 q 740 351 722 278 l 924 1092 l 1072 1092 l 890 358 q 827 168 861 242 q 740 54 793 94 q 609 -1 688 14 q 411 -15 531 -15 q 301 -14 358 -15 q 195 3 243 -12 q 116 55 147 18 q 85 161 85 92 q 95 260 85 211 q 117 358 106 310 l 299 1092 l 454 1092 m 500 1361 q 494 1324 494 1344 q 520 1264 494 1285 q 581 1234 546 1243 q 655 1224 617 1225 q 719 1222 693 1222 q 807 1226 761 1222 q 892 1243 853 1229 q 963 1285 932 1257 q 1007 1361 994 1313 l 1132 1361 q 1067 1249 1114 1290 q 960 1185 1021 1207 q 831 1158 899 1164 q 701 1151 763 1151 q 604 1154 661 1151 q 494 1172 547 1157 q 405 1219 442 1188 q 368 1308 368 1250 q 375 1361 368 1333 l 500 1361 z "},"ŭ":{"ha":940,"x_min":97,"x_max":1050,"o":"m 97 0 m 379 729 l 265 274 q 258 238 261 256 q 254 200 254 219 q 265 151 254 169 q 294 124 276 133 q 336 113 313 115 q 385 110 360 110 q 545 138 471 110 q 681 229 619 167 l 804 729 l 953 729 l 771 0 l 631 0 l 660 118 q 495 17 589 47 q 304 -12 401 -12 q 224 -6 261 -12 q 158 17 186 0 q 113 65 129 35 q 97 146 97 96 q 103 207 97 178 q 115 267 108 236 l 231 729 l 379 729 m 418 1032 q 413 994 413 1015 q 438 935 413 956 q 499 905 464 914 q 573 894 535 896 q 638 893 611 893 q 725 897 679 893 q 810 914 771 900 q 881 956 850 928 q 925 1032 913 983 l 1050 1032 q 985 919 1032 961 q 878 856 939 878 q 749 828 817 835 q 619 822 681 822 q 522 825 579 822 q 413 843 465 828 q 323 890 360 858 q 286 979 286 921 q 293 1032 286 1004 l 418 1032 z "},"Ů":{"ha":940,"x_min":85,"x_max":1072,"o":"m 85 0 m 454 1092 l 269 351 q 255 286 261 319 q 249 219 249 253 q 267 155 249 176 q 315 124 286 133 q 378 115 343 115 q 444 114 413 114 q 568 124 519 114 q 649 159 617 133 q 702 231 682 185 q 740 351 722 278 l 924 1092 l 1072 1092 l 890 358 q 827 168 861 242 q 740 54 793 94 q 609 -1 688 14 q 411 -15 531 -15 q 301 -14 358 -15 q 195 3 243 -12 q 116 55 147 18 q 85 161 85 92 q 95 260 85 211 q 117 358 106 310 l 299 1092 l 454 1092 m 521 1200 q 542 1282 521 1250 q 596 1331 563 1314 q 671 1355 629 1349 q 754 1361 713 1361 q 806 1359 776 1361 q 862 1349 836 1357 q 906 1323 888 1340 q 924 1274 924 1306 q 903 1191 924 1222 q 849 1142 882 1160 q 775 1119 817 1125 q 692 1113 733 1113 q 639 1115 668 1113 q 583 1125 610 1117 q 539 1151 557 1133 q 521 1200 521 1168 m 739 1299 q 694 1297 717 1299 q 654 1286 672 1294 q 624 1261 636 1278 q 613 1217 613 1244 q 623 1191 613 1200 q 648 1178 633 1182 q 679 1174 663 1175 q 707 1174 696 1174 q 751 1176 729 1174 q 792 1186 774 1178 q 820 1211 810 1194 q 831 1257 831 1228 q 821 1282 831 1274 q 797 1294 811 1290 q 766 1298 782 1297 q 739 1299 750 1299 z "},"ů":{"ha":940,"x_min":97,"x_max":953,"o":"m 97 0 m 379 729 l 265 274 q 258 238 261 256 q 254 200 254 219 q 265 151 254 169 q 294 124 276 133 q 336 113 313 115 q 385 110 360 110 q 545 138 471 110 q 681 229 619 167 l 804 729 l 953 729 l 771 0 l 631 0 l 660 118 q 495 17 589 47 q 304 -12 401 -12 q 224 -6 261 -12 q 158 17 186 0 q 113 65 129 35 q 97 146 97 96 q 103 207 97 178 q 115 267 108 236 l 231 729 l 379 729 m 442 885 q 463 967 442 935 q 517 1016 483 999 q 592 1040 550 1033 q 675 1046 633 1046 q 727 1044 697 1046 q 783 1033 757 1042 q 826 1008 808 1025 q 844 958 844 990 q 824 876 844 907 q 770 827 803 844 q 696 803 738 810 q 613 797 654 797 q 560 799 589 797 q 504 810 531 801 q 460 835 478 818 q 442 885 442 853 m 660 983 q 615 981 638 983 q 575 971 593 979 q 545 946 557 963 q 533 901 533 929 q 544 876 533 885 q 569 863 554 867 q 600 859 583 860 q 628 858 617 858 q 672 860 650 858 q 713 871 694 863 q 741 896 731 879 q 751 942 751 913 q 742 967 751 958 q 717 978 732 975 q 687 983 703 982 q 660 983 671 983 z "},"Ű":{"ha":940,"x_min":85,"x_max":1207,"o":"m 85 0 m 454 1092 l 269 351 q 255 286 261 319 q 249 219 249 253 q 267 155 249 176 q 315 124 286 133 q 378 115 343 115 q 444 114 413 114 q 568 124 519 114 q 649 159 617 133 q 702 231 682 185 q 740 351 722 278 l 924 1092 l 1072 1092 l 890 358 q 827 168 861 242 q 740 54 793 94 q 609 -1 688 14 q 411 -15 531 -15 q 301 -14 358 -15 q 195 3 243 -12 q 116 55 147 18 q 85 161 85 92 q 95 260 85 211 q 117 358 106 310 l 299 1092 l 454 1092 m 1207 1361 l 867 1151 l 728 1151 l 1035 1361 l 1207 1361 m 807 1361 l 488 1151 l 350 1151 l 639 1361 l 807 1361 z "},"ű":{"ha":940,"x_min":97,"x_max":1125,"o":"m 97 0 m 379 729 l 265 274 q 258 238 261 256 q 254 200 254 219 q 265 151 254 169 q 294 124 276 133 q 336 113 313 115 q 385 110 360 110 q 545 138 471 110 q 681 229 619 167 l 804 729 l 953 729 l 771 0 l 631 0 l 660 118 q 495 17 589 47 q 304 -12 401 -12 q 224 -6 261 -12 q 158 17 186 0 q 113 65 129 35 q 97 146 97 96 q 103 207 97 178 q 115 267 108 236 l 231 729 l 379 729 m 1125 1032 l 785 822 l 646 822 l 953 1032 l 1125 1032 m 725 1032 l 406 822 l 268 822 l 557 1032 l 725 1032 z "},"Ų":{"ha":940,"x_min":68,"x_max":1072,"o":"m 454 1092 l 269 351 q 255 286 261 319 q 249 219 249 253 q 267 155 249 176 q 315 124 286 133 q 378 115 343 115 q 444 114 413 114 q 568 124 519 114 q 649 159 617 133 q 702 231 682 185 q 740 351 722 278 l 924 1092 l 1072 1092 l 890 358 q 847 217 869 278 q 790 113 825 157 q 700 39 754 68 q 561 -8 646 10 q 515 -17 547 -11 q 442 -33 483 -24 q 358 -56 401 -43 q 278 -85 314 -69 q 218 -118 242 -100 q 194 -157 194 -136 q 210 -178 194 -171 q 245 -189 225 -186 q 285 -192 265 -192 q 313 -193 304 -193 q 447 -178 385 -193 q 574 -132 508 -164 l 544 -249 q 481 -274 515 -264 q 408 -292 446 -285 q 334 -301 371 -299 q 265 -304 297 -304 q 208 -302 242 -304 q 144 -290 175 -300 q 90 -262 113 -281 q 68 -210 68 -243 q 88 -152 68 -178 q 138 -106 107 -126 q 208 -71 169 -86 q 285 -44 247 -56 q 358 -26 324 -33 q 415 -15 393 -19 q 304 -15 363 -15 q 197 2 246 -14 q 117 54 149 18 q 85 161 85 90 q 95 260 85 211 q 117 358 106 310 l 299 1092 l 454 1092 z "},"ų":{"ha":940,"x_min":97,"x_max":953,"o":"m 631 0 l 660 118 q 495 17 589 47 q 304 -12 401 -12 q 224 -6 261 -12 q 158 17 186 0 q 113 65 129 35 q 97 146 97 96 q 103 207 97 178 q 115 267 108 236 l 231 729 l 379 729 l 265 274 q 258 238 261 256 q 254 200 254 219 q 265 151 254 169 q 294 124 276 133 q 336 113 313 115 q 385 110 360 110 q 545 138 471 110 q 681 229 619 167 l 804 729 l 953 729 l 771 0 q 731 -4 764 1 q 651 -20 697 -10 q 553 -45 606 -31 q 458 -78 501 -60 q 385 -116 414 -96 q 357 -157 357 -136 q 372 -178 357 -171 q 408 -189 388 -186 q 447 -192 428 -192 q 475 -193 467 -193 q 609 -178 547 -193 q 736 -132 671 -164 l 707 -249 q 643 -274 678 -264 q 571 -292 608 -285 q 497 -301 533 -299 q 428 -304 460 -304 q 371 -302 404 -304 q 306 -290 338 -300 q 253 -262 275 -281 q 231 -210 231 -243 q 256 -145 231 -174 q 322 -94 282 -117 q 413 -56 363 -72 q 510 -29 463 -40 q 600 -11 558 -18 q 667 0 642 -4 l 631 0 z "},"Ŵ":{"ha":940,"x_min":86,"x_max":1156,"o":"m 86 0 m 360 1092 l 246 267 l 606 958 l 697 958 l 717 279 l 1013 1092 l 1156 1092 l 747 0 l 593 0 l 593 724 l 221 0 l 86 0 l 215 1092 l 360 1092 m 828 1361 l 1063 1151 l 908 1151 l 735 1289 l 493 1151 l 339 1151 l 679 1361 l 828 1361 z "},"ŵ":{"ha":940,"x_min":110,"x_max":1067,"o":"m 110 0 m 265 729 l 239 175 l 521 622 l 614 622 l 674 179 l 928 729 l 1067 729 l 719 0 l 590 0 l 524 446 l 235 0 l 110 0 l 125 729 l 265 729 m 746 1032 l 981 822 l 826 822 l 653 960 l 411 822 l 257 822 l 597 1032 l 746 1032 z "},"Ŷ":{"ha":940,"x_min":214,"x_max":1156,"o":"m 214 0 m 388 1092 l 589 699 l 988 1092 l 1156 1092 l 638 583 l 493 0 l 338 0 l 482 583 l 214 1092 l 388 1092 m 828 1361 l 1063 1151 l 908 1151 l 735 1289 l 493 1151 l 339 1151 l 679 1361 l 828 1361 z "},"ŷ":{"ha":940,"x_min":-29,"x_max":1033,"o":"m 0 0 m 317 729 l 465 269 l 876 729 l 1033 729 l 129 -283 l -29 -283 l 360 151 l 158 729 l 317 729 m 746 1032 l 981 822 l 826 822 l 653 960 l 411 822 l 257 822 l 597 1032 l 746 1032 z "},"Ÿ":{"ha":940,"x_min":214,"x_max":1156,"o":"m 214 0 m 388 1092 l 589 699 l 988 1092 l 1156 1092 l 638 583 l 493 0 l 338 0 l 482 583 l 214 1092 l 388 1092 m 851 1231 q 890 1327 851 1293 q 989 1361 929 1361 q 1049 1349 1021 1361 q 1076 1299 1076 1338 q 1039 1202 1076 1236 q 940 1168 1001 1168 q 908 1170 924 1168 q 879 1179 892 1172 q 859 1199 867 1186 q 851 1231 851 1211 m 382 1233 q 421 1328 382 1296 q 519 1361 460 1361 q 578 1349 551 1361 q 606 1299 606 1338 q 569 1202 606 1236 q 471 1168 532 1168 q 409 1181 436 1168 q 382 1233 382 1193 z "},"Ź":{"ha":940,"x_min":42,"x_max":1057,"o":"m 42 0 m 1057 1092 l 1028 975 l 257 128 l 817 128 l 786 0 l 42 0 l 71 122 l 847 964 l 281 964 l 313 1092 l 1057 1092 m 1018 1361 l 671 1151 l 535 1151 l 836 1361 l 1018 1361 z "},"ź":{"ha":940,"x_min":42,"x_max":967,"o":"m 42 0 m 967 729 l 942 628 l 263 119 l 814 119 l 786 0 l 42 0 l 69 111 l 733 608 l 193 608 l 222 729 l 967 729 m 935 1032 l 588 822 l 451 822 l 753 1032 l 935 1032 z "},"Ż":{"ha":940,"x_min":42,"x_max":1057,"o":"m 42 0 m 1057 1092 l 1028 975 l 257 128 l 817 128 l 786 0 l 42 0 l 71 122 l 847 964 l 281 964 l 313 1092 l 1057 1092 m 618 1233 q 657 1328 618 1296 q 754 1361 696 1361 q 815 1349 788 1361 q 842 1297 842 1336 q 804 1202 842 1236 q 707 1168 767 1168 q 645 1181 672 1168 q 618 1233 618 1193 z "},"ż":{"ha":940,"x_min":42,"x_max":967,"o":"m 42 0 m 967 729 l 942 628 l 263 119 l 814 119 l 786 0 l 42 0 l 69 111 l 733 608 l 193 608 l 222 729 l 967 729 m 536 904 q 575 999 536 967 q 672 1032 614 1032 q 733 1019 706 1032 q 760 968 760 1007 q 722 873 760 907 q 625 839 685 839 q 563 851 590 839 q 536 904 536 864 z "},"Ž":{"ha":940,"x_min":42,"x_max":1115,"o":"m 42 0 m 1057 1092 l 1028 975 l 257 128 l 817 128 l 786 0 l 42 0 l 71 122 l 847 964 l 281 964 l 313 1092 l 1057 1092 m 546 1361 l 719 1224 l 961 1361 l 1115 1361 l 774 1151 l 626 1151 l 392 1361 l 546 1361 z "},"ž":{"ha":940,"x_min":42,"x_max":1033,"o":"m 42 0 m 967 729 l 942 628 l 263 119 l 814 119 l 786 0 l 42 0 l 69 111 l 733 608 l 193 608 l 222 729 l 967 729 m 464 1032 l 638 894 l 879 1032 l 1033 1032 l 692 822 l 544 822 l 310 1032 l 464 1032 z "},"ƒ":{"ha":940,"x_min":-114,"x_max":1110,"o":"m 317 581 q 366 726 344 657 q 411 855 388 796 q 466 962 435 914 q 543 1043 497 1010 q 654 1094 589 1076 q 813 1113 719 1113 q 892 1109 850 1113 q 976 1095 935 1106 q 1052 1064 1017 1085 q 1110 1008 1088 1043 l 1067 836 l 932 836 l 963 956 q 926 978 947 969 q 881 992 906 988 q 833 999 857 997 q 790 1000 810 1000 q 707 993 743 1000 q 644 969 671 986 q 597 922 617 951 q 560 847 576 892 l 464 581 l 976 581 l 953 485 l 431 485 l 233 -68 q 117 -242 193 -181 q -81 -304 42 -304 l -114 -304 l -83 -187 q -21 -182 -47 -187 q 25 -163 6 -176 q 59 -126 44 -150 q 86 -67 74 -103 l 282 485 l 110 485 l 133 581 l 317 581 z "},"Ș":{"ha":940,"x_min":51,"x_max":1046,"o":"m 51 0 m 881 939 q 775 976 832 967 q 663 985 718 985 q 560 976 615 985 q 457 944 504 967 q 378 883 410 922 q 347 785 347 844 q 390 706 347 733 q 497 661 432 678 q 635 631 561 644 q 774 594 710 618 q 881 530 839 571 q 924 418 924 489 q 920 374 924 396 q 911 332 917 353 q 836 166 886 233 q 717 57 786 99 q 563 -3 649 15 q 382 -21 478 -21 q 267 -14 325 -21 q 160 16 208 -7 q 82 81 113 39 q 51 193 51 124 q 58 258 51 225 q 72 322 64 290 l 219 322 q 210 282 214 303 q 206 240 206 261 q 226 170 206 196 q 279 131 247 144 q 349 113 311 117 q 421 108 386 108 q 544 124 483 108 q 655 172 606 139 q 734 256 704 204 q 764 379 764 307 q 722 452 764 426 q 615 495 679 478 q 477 528 551 513 q 339 567 403 543 q 233 633 275 592 q 190 743 190 674 q 238 918 190 847 q 360 1032 286 989 q 526 1094 435 1075 q 703 1113 617 1113 q 792 1108 746 1113 q 883 1094 839 1104 q 969 1065 928 1083 q 1046 1018 1011 1047 l 994 808 l 850 808 l 881 939 m 475 -58 l 319 -304 l 222 -304 l 328 -58 l 475 -58 z "},"ș":{"ha":940,"x_min":79,"x_max":914,"o":"m 79 0 m 225 232 q 215 183 215 206 q 238 131 215 150 q 291 103 260 113 q 356 92 322 94 q 413 90 389 90 q 500 96 450 90 q 595 118 550 101 q 672 166 640 135 q 703 249 703 197 q 663 303 703 286 q 564 329 624 321 q 435 342 504 338 q 306 361 365 347 q 206 403 246 375 q 167 488 167 432 q 210 619 167 568 q 317 699 253 669 q 456 738 382 728 q 592 749 531 749 q 759 733 675 749 q 914 668 843 717 l 878 521 l 749 521 l 769 608 q 669 638 721 632 q 565 644 618 644 q 490 641 535 644 q 405 625 446 638 q 335 588 364 613 q 306 519 306 563 q 328 478 306 493 q 390 455 351 463 q 476 443 428 447 q 576 434 525 439 q 675 422 626 429 q 762 397 724 414 q 823 353 800 381 q 846 281 846 325 q 824 176 846 221 q 767 97 803 131 q 685 41 732 64 q 585 5 638 18 q 481 -14 533 -8 q 382 -19 429 -19 q 288 -15 340 -19 q 188 6 235 -11 q 110 56 142 22 q 79 146 79 89 q 83 190 79 168 q 94 232 88 211 l 225 232 m 468 -58 l 313 -304 l 215 -304 l 321 -58 l 468 -58 z "},"Ț":{"ha":940,"x_min":219,"x_max":1104,"o":"m 219 0 m 1104 1092 l 1072 964 l 732 964 l 493 0 l 338 0 l 576 964 l 236 964 l 267 1092 l 1104 1092 m 472 -58 l 317 -304 l 219 -304 l 325 -58 l 472 -58 z "},"ț":{"ha":940,"x_min":128,"x_max":929,"o":"m 128 0 m 290 700 l 342 904 l 489 904 l 438 700 l 929 700 l 901 592 l 411 592 q 387 503 403 561 q 355 383 371 446 q 326 265 339 321 q 314 185 314 210 q 333 133 314 151 q 381 106 353 114 q 442 95 410 97 q 497 93 474 93 q 587 97 549 93 q 653 116 625 101 q 701 160 681 131 q 735 240 721 190 l 863 240 q 805 103 838 154 q 726 24 772 51 q 615 -11 679 -3 q 461 -19 550 -19 q 365 -15 417 -19 q 267 6 313 -11 q 192 56 222 22 q 161 149 161 89 q 174 244 161 185 q 203 367 186 303 q 236 493 219 432 q 263 592 253 554 l 128 592 l 154 700 l 290 700 m 486 -58 l 331 -304 l 233 -304 l 339 -58 l 486 -58 z "},"ʹ":{"ha":940,"x_min":344,"x_max":857,"o":"m 728 1101 l 857 1047 l 415 503 l 344 532 l 728 1101 z "},"ˆ":{"ha":940,"x_min":261,"x_max":985,"o":"m 750 1049 l 985 839 l 831 839 l 657 976 l 415 839 l 261 839 l 601 1049 l 750 1049 z "},"ˇ":{"ha":940,"x_min":314,"x_max":1038,"o":"m 468 1049 l 642 911 l 883 1049 l 1038 1049 l 696 839 l 549 839 l 314 1049 l 468 1049 z "},"˘":{"ha":940,"x_min":290,"x_max":1054,"o":"m 422 1049 q 417 1011 417 1032 q 442 951 417 972 q 503 922 468 931 q 577 911 539 913 q 642 910 615 910 q 729 913 683 910 q 815 931 775 917 q 885 972 854 944 q 929 1049 917 1000 l 1054 1049 q 990 936 1036 978 q 882 873 943 894 q 753 845 821 851 q 624 839 685 839 q 526 842 583 839 q 417 860 469 844 q 327 906 364 875 q 290 996 290 938 q 297 1049 290 1021 l 422 1049 z "},"˙":{"ha":940,"x_min":540,"x_max":764,"o":"m 540 921 q 579 1016 540 983 q 676 1049 618 1049 q 737 1036 710 1049 q 764 985 764 1024 q 726 890 764 924 q 629 856 689 856 q 567 868 594 856 q 540 921 540 881 z "},"˚":{"ha":940,"x_min":443,"x_max":846,"o":"m 443 888 q 464 969 443 938 q 518 1019 485 1001 q 593 1042 551 1036 q 676 1049 635 1049 q 728 1047 699 1049 q 784 1036 758 1044 q 828 1010 810 1028 q 846 961 846 993 q 825 878 846 910 q 772 830 804 847 q 697 806 739 813 q 614 800 656 800 q 561 802 590 800 q 506 813 532 804 q 461 838 479 821 q 443 888 443 856 m 661 986 q 617 984 639 986 q 576 974 594 982 q 547 949 558 965 q 535 904 535 932 q 545 878 535 888 q 570 866 556 869 q 601 862 585 863 q 629 861 618 861 q 674 863 651 861 q 714 874 696 865 q 742 899 732 882 q 753 944 753 915 q 743 969 753 961 q 719 981 733 978 q 688 985 704 985 q 661 986 672 986 z "},"˛":{"ha":940,"x_min":119,"x_max":658,"o":"m 658 0 q 608 -10 644 -3 q 526 -26 572 -17 q 431 -50 481 -36 q 340 -80 382 -64 q 272 -115 299 -96 q 246 -157 246 -135 q 261 -178 246 -171 q 297 -189 276 -186 q 336 -192 317 -192 q 364 -193 356 -193 q 498 -178 436 -193 q 625 -132 560 -164 l 596 -249 q 532 -274 567 -264 q 460 -292 497 -285 q 385 -301 422 -299 q 317 -304 349 -304 q 260 -302 293 -304 q 195 -290 226 -300 q 142 -262 164 -281 q 119 -210 119 -243 q 160 -131 119 -164 q 255 -74 200 -97 q 366 -38 310 -51 q 456 -18 422 -25 q 506 -7 478 -14 q 556 0 533 0 l 658 0 z "},"˜":{"ha":940,"x_min":217,"x_max":1081,"o":"m 244 961 q 369 1012 303 996 q 503 1028 436 1028 q 590 1015 549 1028 q 670 988 631 1003 q 749 960 710 972 q 835 947 789 947 q 964 969 904 947 q 1081 1032 1024 992 l 1054 922 q 930 872 996 888 q 797 856 864 856 q 708 868 749 856 q 628 896 668 881 q 549 924 589 911 q 464 936 510 936 q 333 913 393 936 q 217 851 274 890 l 244 961 z "},"˝":{"ha":940,"x_min":221,"x_max":1078,"o":"m 1078 1049 l 738 839 l 599 839 l 906 1049 l 1078 1049 m 678 1049 l 358 839 l 221 839 l 510 1049 l 678 1049 z "},"ʹ":{"ha":940,"x_min":469,"x_max":856,"o":"m 856 1267 l 546 978 l 469 978 l 651 1267 l 856 1267 z "},"͵":{"ha":940,"x_min":150,"x_max":536,"o":"m 150 -15 m 536 -15 l 226 -304 l 150 -304 l 332 -15 l 536 -15 z "},"ͺ":{"ha":940,"x_min":247,"x_max":450,"o":"m 450 -58 l 431 -304 l 247 -304 l 350 -58 l 450 -58 z "},"΄":{"ha":940,"x_min":478,"x_max":822,"o":"m 822 1128 l 599 839 l 478 839 l 661 1128 l 822 1128 z "},"΅":{"ha":940,"x_min":229,"x_max":1086,"o":"m 229 939 q 267 1035 229 1001 q 365 1068 306 1068 q 424 1056 397 1068 q 451 1006 451 1044 q 416 908 451 943 q 318 874 381 874 q 256 886 283 874 q 229 939 229 899 m 864 939 q 901 1035 864 1001 q 1000 1068 939 1068 q 1059 1056 1032 1068 q 1086 1006 1086 1044 q 1050 908 1086 943 q 951 874 1014 874 q 891 886 918 874 q 864 939 864 899 m 828 1128 l 624 839 l 510 839 l 675 1128 l 828 1128 z "},"Ά":{"ha":940,"x_min":-22,"x_max":853,"o":"m 389 1128 l 217 839 l 153 839 l 285 1128 l 389 1128 m 765 1092 l 853 0 l 699 0 l 686 214 l 246 214 l 124 0 l -22 0 l 614 1092 l 765 1092 m 313 331 l 679 331 l 644 910 l 313 331 z "},"·":{"ha":940,"x_min":414,"x_max":669,"o":"m 414 394 m 414 471 q 456 590 414 546 q 572 635 497 635 q 641 619 613 635 q 669 558 669 603 q 628 440 669 486 q 513 394 586 394 q 443 410 472 394 q 414 471 414 425 z "},"Έ":{"ha":940,"x_min":92,"x_max":1156,"o":"m 389 1128 l 367 1092 l 1156 1092 l 1125 964 l 486 964 l 404 632 l 1021 632 l 990 508 l 374 508 l 278 128 l 919 128 l 888 0 l 92 0 l 358 1078 l 217 839 l 153 839 l 285 1128 l 389 1128 z "},"Ή":{"ha":940,"x_min":111,"x_max":1156,"o":"m 389 1128 l 217 839 l 153 839 l 285 1128 l 389 1128 m 538 1092 l 424 632 l 886 632 l 1000 1092 l 1156 1092 l 885 0 l 729 0 l 856 508 l 393 508 l 267 0 l 111 0 l 382 1092 l 538 1092 z "},"Ί":{"ha":940,"x_min":146,"x_max":1131,"o":"m 389 1128 l 217 839 l 153 839 l 285 1128 l 389 1128 m 1131 1092 l 1103 978 l 825 978 l 610 114 l 888 114 l 860 0 l 146 0 l 174 114 l 453 114 l 669 978 l 389 978 l 417 1092 l 1131 1092 z "},"Ό":{"ha":940,"x_min":129,"x_max":1074,"o":"m 389 1128 l 217 839 l 153 839 l 285 1128 l 389 1128 m 742 1107 q 864 1105 804 1107 q 970 1085 924 1103 q 1045 1025 1017 1067 q 1074 904 1074 983 q 1054 723 1074 814 q 1013 544 1035 632 q 976 399 997 481 q 922 241 956 318 q 841 101 889 164 q 722 13 793 39 q 594 -12 663 -10 q 463 -15 525 -15 q 340 -14 400 -15 q 234 6 281 -12 q 158 65 188 24 q 129 186 129 107 q 149 367 129 276 q 190 544 168 457 q 228 690 207 608 q 282 849 249 772 q 363 989 315 926 q 482 1078 411 1051 q 610 1103 542 1100 q 742 1107 679 1107 m 711 981 q 626 978 671 981 q 544 960 582 976 q 465 888 499 939 q 408 774 432 836 q 369 650 385 713 q 343 544 354 588 q 306 394 324 471 q 289 240 289 317 q 306 163 289 189 q 350 124 322 136 q 415 111 378 113 q 493 110 453 110 q 578 112 533 110 q 661 131 622 114 q 740 201 707 150 q 796 315 772 253 q 835 439 819 376 q 861 544 850 501 q 899 696 881 618 q 917 850 917 774 q 899 928 917 901 q 853 966 882 954 q 788 979 825 978 q 711 981 751 981 z "},"Ύ":{"ha":940,"x_min":153,"x_max":1156,"o":"m 542 1092 l 675 715 l 1007 1092 l 1156 1092 l 714 581 l 571 0 l 425 0 l 569 583 l 388 1092 l 542 1092 m 389 1128 l 217 839 l 153 839 l 285 1128 l 389 1128 z "},"Ώ":{"ha":940,"x_min":51,"x_max":1089,"o":"m 389 1128 l 217 839 l 153 839 l 285 1128 l 389 1128 m 318 128 l 350 256 q 224 294 267 261 q 182 417 182 328 q 196 547 182 482 q 225 675 210 613 q 269 833 247 765 q 317 949 290 901 q 379 1028 344 997 q 465 1076 414 1058 q 583 1100 515 1093 q 744 1107 651 1107 q 860 1107 799 1107 q 972 1092 921 1107 q 1056 1040 1022 1078 q 1089 929 1089 1003 q 1076 801 1089 865 q 1047 675 1063 738 q 1008 526 1028 599 q 953 396 988 454 q 862 299 918 338 q 715 256 806 261 l 682 128 l 917 128 l 885 0 l 539 0 l 624 342 q 751 363 704 342 q 824 426 797 385 q 865 524 850 467 q 897 654 879 582 q 923 761 910 706 q 936 869 936 817 q 915 940 936 917 q 860 973 893 964 q 788 981 826 982 q 714 981 749 981 q 551 966 610 981 q 459 914 493 951 q 406 813 425 876 q 364 653 388 750 q 339 548 351 601 q 326 442 326 494 q 340 381 326 401 q 375 352 353 361 q 426 342 397 343 q 485 342 454 342 l 400 0 l 51 0 l 83 128 l 318 128 z "},"ΐ":{"ha":940,"x_min":235,"x_max":1092,"o":"m 235 0 m 706 729 l 579 221 q 574 196 576 208 q 571 169 571 183 q 601 127 571 139 q 669 113 631 115 q 747 114 708 111 q 803 117 786 117 l 775 0 l 632 0 q 557 4 594 0 q 489 23 519 8 q 439 65 458 38 q 419 139 419 93 q 423 181 419 160 q 432 222 426 201 l 531 619 l 292 619 l 318 729 l 706 729 m 235 967 q 273 1063 235 1029 q 371 1096 311 1096 q 430 1084 403 1096 q 457 1033 457 1072 q 422 936 457 971 q 324 901 386 901 q 262 914 289 901 q 235 967 235 926 m 869 967 q 907 1063 869 1029 q 1006 1096 944 1096 q 1065 1084 1038 1096 q 1092 1033 1092 1072 q 1056 936 1092 971 q 957 901 1019 901 q 897 914 924 901 q 869 967 869 926 m 833 1156 l 629 867 l 515 867 l 681 1156 l 833 1156 z "},"Α":{"ha":940,"x_min":-22,"x_max":853,"o":"m 0 0 m 765 1092 l 853 0 l 699 0 l 686 214 l 246 214 l 124 0 l -22 0 l 614 1092 l 765 1092 m 313 331 l 679 331 l 644 910 l 313 331 z "},"Β":{"ha":940,"x_min":28,"x_max":1021,"o":"m 28 0 m 713 1092 q 814 1088 760 1092 q 914 1067 868 1083 q 990 1015 960 1050 q 1021 918 1021 981 q 1008 818 1021 869 q 969 719 994 767 q 908 635 944 672 q 826 575 872 597 q 902 505 879 549 q 925 403 925 461 q 921 347 925 375 q 910 292 917 319 q 847 144 888 201 q 749 56 806 88 q 619 12 692 24 q 461 0 546 0 l 28 0 l 299 1092 l 713 1092 m 213 122 l 475 122 q 581 130 535 122 q 663 159 628 138 q 723 219 699 181 q 763 318 747 257 q 770 357 767 338 q 774 396 774 376 q 754 463 774 439 q 706 498 735 488 q 641 510 676 508 q 572 513 606 513 l 310 513 l 213 122 m 338 619 l 601 619 q 697 626 656 619 q 769 651 739 632 q 822 704 800 669 q 857 794 843 739 q 864 828 861 811 q 867 864 867 846 q 848 924 867 903 q 801 956 829 946 q 739 967 772 965 q 676 969 706 969 l 424 969 l 338 619 z "},"Γ":{"ha":940,"x_min":44,"x_max":1085,"o":"m 44 0 m 1085 1092 l 1053 964 l 440 964 l 201 0 l 44 0 l 315 1092 l 1085 1092 z "},"Δ":{"ha":940,"x_min":-22,"x_max":853,"o":"m 765 1092 l 853 0 l -22 0 l 614 1092 l 765 1092 m 194 119 l 689 119 l 643 906 l 194 119 z "},"Ε":{"ha":940,"x_min":28,"x_max":1092,"o":"m 28 0 m 1092 1092 l 1061 964 l 422 964 l 340 632 l 957 632 l 926 508 l 310 508 l 214 128 l 856 128 l 824 0 l 28 0 l 299 1092 l 1092 1092 z "},"Ζ":{"ha":940,"x_min":42,"x_max":1057,"o":"m 42 0 m 1057 1092 l 1028 975 l 257 128 l 817 128 l 786 0 l 42 0 l 71 122 l 847 964 l 281 964 l 313 1092 l 1057 1092 z "},"Η":{"ha":940,"x_min":28,"x_max":1072,"o":"m 28 0 m 454 1092 l 340 632 l 803 632 l 917 1092 l 1072 1092 l 801 0 l 646 0 l 772 508 l 310 508 l 183 0 l 28 0 l 299 1092 l 454 1092 z "},"Θ":{"ha":940,"x_min":75,"x_max":1019,"o":"m 688 1107 q 810 1105 750 1107 q 916 1085 869 1103 q 991 1025 963 1067 q 1019 904 1019 983 q 1000 723 1019 814 q 958 544 981 632 q 922 399 943 481 q 868 241 901 318 q 787 101 835 164 q 668 13 739 39 q 540 -12 608 -10 q 408 -15 471 -15 q 286 -14 346 -15 q 180 6 226 -12 q 104 65 133 24 q 75 186 75 107 q 94 367 75 276 q 136 544 114 457 q 174 690 153 608 q 228 849 194 772 q 309 989 261 926 q 428 1078 357 1051 q 556 1103 488 1100 q 688 1107 625 1107 m 657 981 q 569 978 615 981 q 483 960 524 976 q 403 889 436 940 q 347 776 369 838 q 308 651 324 714 q 282 544 293 588 q 246 394 264 471 q 228 242 228 317 q 245 162 228 189 q 292 124 263 135 q 359 111 321 113 q 439 110 397 110 q 527 112 482 110 q 613 131 572 114 q 693 201 660 150 q 750 315 726 253 q 789 439 774 376 q 815 544 804 501 q 852 695 835 618 q 869 849 869 772 q 851 928 869 900 q 804 967 833 956 q 737 979 775 978 q 657 981 699 981 m 774 632 l 743 508 l 339 508 l 368 632 l 774 632 z "},"Ι":{"ha":940,"x_min":57,"x_max":1042,"o":"m 57 0 m 1042 1092 l 1014 978 l 736 978 l 521 114 l 799 114 l 771 0 l 57 0 l 85 114 l 364 114 l 581 978 l 300 978 l 328 1092 l 1042 1092 z "},"Κ":{"ha":940,"x_min":28,"x_max":1143,"o":"m 28 0 m 1143 1092 l 763 754 l 869 0 l 703 0 l 618 625 l 260 308 l 183 0 l 28 0 l 299 1092 l 454 1092 l 303 479 l 969 1092 l 1143 1092 z "},"Λ":{"ha":940,"x_min":-22,"x_max":853,"o":"m 765 1092 l 853 0 l 692 0 l 642 903 l 132 0 l -22 0 l 614 1092 l 765 1092 z "},"Μ":{"ha":940,"x_min":-14,"x_max":1114,"o":"m 0 0 m 393 1092 l 560 585 l 976 1092 l 1114 1092 l 843 0 l 703 0 l 918 868 l 540 389 l 486 389 l 343 871 l 128 0 l -14 0 l 257 1092 l 393 1092 z "},"Ν":{"ha":940,"x_min":15,"x_max":1085,"o":"m 15 0 m 444 1092 l 740 275 l 943 1092 l 1085 1092 l 814 0 l 697 0 l 372 867 l 157 0 l 15 0 l 288 1092 l 444 1092 z "},"Ξ":{"ha":940,"x_min":6,"x_max":1092,"o":"m 1092 1092 l 1061 964 l 249 964 l 279 1092 l 1092 1092 m 957 632 l 926 508 l 157 508 l 186 632 l 957 632 m 856 128 l 824 0 l 6 0 l 36 128 l 856 128 z "},"Ο":{"ha":940,"x_min":75,"x_max":1019,"o":"m 75 0 m 688 1107 q 810 1105 750 1107 q 916 1085 869 1103 q 991 1025 963 1067 q 1019 904 1019 983 q 1000 723 1019 814 q 958 544 981 632 q 922 399 943 481 q 868 241 901 318 q 787 101 835 164 q 668 13 739 39 q 540 -12 608 -10 q 408 -15 471 -15 q 286 -14 346 -15 q 180 6 226 -12 q 104 65 133 24 q 75 186 75 107 q 94 367 75 276 q 136 544 114 457 q 174 690 153 608 q 228 849 194 772 q 309 989 261 926 q 428 1078 357 1051 q 556 1103 488 1100 q 688 1107 625 1107 m 657 981 q 572 978 617 981 q 490 960 528 976 q 411 888 444 939 q 354 774 378 836 q 315 650 331 713 q 289 544 300 588 q 252 394 269 471 q 235 240 235 317 q 251 163 235 189 q 296 124 268 136 q 361 111 324 113 q 439 110 399 110 q 524 112 479 110 q 607 131 568 114 q 685 201 653 150 q 742 315 718 253 q 781 439 765 376 q 807 544 796 501 q 844 696 826 618 q 863 850 863 774 q 845 928 863 901 q 799 966 828 954 q 734 979 771 978 q 657 981 697 981 z "},"Π":{"ha":940,"x_min":28,"x_max":1072,"o":"m 28 0 m 1072 1092 l 801 0 l 646 0 l 886 964 l 422 964 l 183 0 l 28 0 l 299 1092 l 1072 1092 z "},"Ρ":{"ha":940,"x_min":28,"x_max":1043,"o":"m 28 0 m 683 1092 q 803 1088 740 1092 q 920 1066 867 1085 q 1008 1006 974 1047 q 1043 890 1043 965 q 1036 808 1043 849 q 1018 726 1029 767 q 952 551 992 619 q 861 443 913 483 q 747 385 810 403 q 609 363 683 368 q 451 361 535 358 q 274 364 367 364 l 183 0 l 28 0 l 299 1092 l 683 1092 m 304 488 l 544 488 q 672 497 619 488 q 760 532 724 506 q 822 605 797 558 q 864 725 846 651 q 876 782 871 753 q 882 840 882 811 q 861 913 882 888 q 808 949 840 938 q 736 962 775 960 q 663 964 697 964 l 422 964 l 304 488 z "},"Σ":{"ha":940,"x_min":28,"x_max":1092,"o":"m 1092 1092 l 1061 964 l 450 964 l 714 593 l 701 544 l 239 128 l 856 128 l 824 0 l 28 0 l 56 117 l 557 564 l 269 975 l 299 1092 l 1092 1092 z "},"Τ":{"ha":940,"x_min":236,"x_max":1104,"o":"m 236 0 m 1104 1092 l 1072 964 l 732 964 l 493 0 l 338 0 l 576 964 l 236 964 l 267 1092 l 1104 1092 z "},"Υ":{"ha":940,"x_min":214,"x_max":1156,"o":"m 214 0 m 388 1092 l 589 699 l 988 1092 l 1156 1092 l 638 583 l 493 0 l 338 0 l 482 583 l 214 1092 l 388 1092 z "},"Φ":{"ha":940,"x_min":69,"x_max":1032,"o":"m 69 0 m 764 1092 l 733 969 q 840 965 786 968 q 935 945 893 963 q 1005 892 978 928 q 1032 788 1032 856 q 1019 664 1032 725 q 992 544 1007 603 q 933 345 963 425 q 853 216 903 265 q 726 144 804 167 q 522 121 649 122 l 493 0 l 336 0 l 365 121 q 260 125 313 122 q 165 144 207 128 q 96 197 122 161 q 69 300 69 233 q 82 424 69 363 q 110 544 94 485 q 169 743 139 663 q 247 873 199 824 q 374 944 296 922 q 578 969 451 967 l 607 1092 l 764 1092 m 529 228 q 675 247 621 229 q 763 303 729 265 q 815 401 796 342 q 854 544 833 461 q 876 639 865 590 q 888 736 888 688 q 870 808 888 782 q 824 844 853 833 q 760 858 796 856 q 686 861 724 861 l 529 228 m 569 861 q 424 841 478 860 q 339 784 371 822 q 288 687 307 746 q 249 544 269 628 q 226 448 238 497 q 215 350 215 399 q 233 280 215 304 q 278 244 250 256 q 341 230 306 232 q 413 228 376 228 l 569 861 z "},"Χ":{"ha":940,"x_min":-47,"x_max":1113,"o":"m 0 0 m 1113 1092 l 658 574 l 876 0 l 697 0 l 529 458 l 122 0 l -47 0 l 475 600 l 288 1092 l 467 1092 l 606 714 l 946 1092 l 1113 1092 z "},"Ψ":{"ha":940,"x_min":99,"x_max":1125,"o":"m 753 1092 l 572 364 q 677 374 631 365 q 760 405 724 383 q 822 465 796 426 q 863 564 847 503 l 994 1092 l 1125 1092 l 994 565 q 932 411 971 472 q 838 313 893 350 q 710 260 782 276 q 547 239 638 243 l 488 0 l 339 0 l 399 239 q 291 249 344 240 q 195 278 238 257 q 126 340 153 300 q 99 446 99 379 q 103 506 99 476 q 115 565 108 536 l 246 1092 l 378 1092 l 246 564 q 238 526 242 544 q 235 488 235 507 q 254 422 235 446 q 303 385 274 397 q 369 370 333 374 q 436 365 404 367 l 617 1092 l 753 1092 z "},"Ω":{"ha":940,"x_min":-4,"x_max":1033,"o":"m 263 128 l 294 256 q 169 294 211 261 q 126 417 126 328 q 140 547 126 482 q 169 675 154 613 q 213 833 192 765 q 262 949 235 901 q 324 1028 289 997 q 409 1076 358 1058 q 528 1100 460 1093 q 689 1107 596 1107 q 804 1107 743 1107 q 916 1092 865 1107 q 1000 1040 967 1078 q 1033 929 1033 1003 q 1020 801 1033 865 q 992 675 1007 738 q 952 526 972 599 q 897 396 932 454 q 806 299 863 338 q 660 256 750 261 l 626 128 l 861 128 l 829 0 l 483 0 l 568 342 q 695 363 649 342 q 768 426 742 385 q 809 524 794 467 q 842 654 824 582 q 867 761 854 706 q 881 869 881 817 q 859 940 881 917 q 804 973 838 964 q 732 981 771 982 q 658 981 693 981 q 496 966 554 981 q 403 914 438 951 q 351 813 369 876 q 308 653 332 750 q 283 548 296 601 q 271 442 271 494 q 284 381 271 401 q 319 352 297 361 q 370 342 342 343 q 429 342 399 342 l 344 0 l -4 0 l 28 128 l 263 128 z "},"Ϊ":{"ha":940,"x_min":57,"x_max":1076,"o":"m 57 0 m 1042 1092 l 1014 978 l 736 978 l 521 114 l 799 114 l 771 0 l 57 0 l 85 114 l 364 114 l 581 978 l 300 978 l 328 1092 l 1042 1092 m 851 1231 q 890 1327 851 1293 q 989 1361 929 1361 q 1049 1349 1021 1361 q 1076 1299 1076 1338 q 1039 1202 1076 1236 q 940 1168 1001 1168 q 908 1170 924 1168 q 879 1179 892 1172 q 859 1199 867 1186 q 851 1231 851 1211 m 382 1233 q 421 1328 382 1296 q 519 1361 460 1361 q 578 1349 551 1361 q 606 1299 606 1338 q 569 1202 606 1236 q 471 1168 532 1168 q 409 1181 436 1168 q 382 1233 382 1193 z "},"Ϋ":{"ha":940,"x_min":214,"x_max":1156,"o":"m 214 0 m 388 1092 l 589 699 l 988 1092 l 1156 1092 l 638 583 l 493 0 l 338 0 l 482 583 l 214 1092 l 388 1092 m 851 1231 q 890 1327 851 1293 q 989 1361 929 1361 q 1049 1349 1021 1361 q 1076 1299 1076 1338 q 1039 1202 1076 1236 q 940 1168 1001 1168 q 908 1170 924 1168 q 879 1179 892 1172 q 859 1199 867 1186 q 851 1231 851 1211 m 382 1233 q 421 1328 382 1296 q 519 1361 460 1361 q 578 1349 551 1361 q 606 1299 606 1338 q 569 1202 606 1236 q 471 1168 532 1168 q 409 1181 436 1168 q 382 1233 382 1193 z "},"ά":{"ha":940,"x_min":92,"x_max":904,"o":"m 92 0 m 894 729 l 768 221 q 762 194 765 207 q 758 167 758 181 q 775 131 758 142 q 815 117 792 119 q 863 115 838 114 q 904 117 888 117 l 876 0 q 806 0 846 0 q 730 8 767 0 q 665 35 693 15 q 626 94 636 54 q 471 13 556 40 q 297 -14 386 -14 q 144 28 196 -14 q 92 178 92 71 q 100 272 92 225 q 119 364 108 318 q 165 508 139 440 q 233 628 192 576 q 335 711 274 681 q 483 742 396 742 q 554 736 518 742 q 623 717 590 731 q 683 682 656 704 q 728 626 710 660 l 754 729 l 894 729 m 690 501 q 614 592 665 565 q 496 618 563 618 q 378 578 426 618 q 301 481 331 539 q 259 355 272 422 q 246 231 246 288 q 274 133 246 164 q 369 103 303 103 q 508 135 444 103 q 619 221 571 168 l 690 501 m 818 1111 l 594 822 l 474 822 l 657 1111 l 818 1111 z "}}}
